<svg width="224" height="157" viewBox="0 0 224 157" fill="none" xmlns="http://www.w3.org/2000/svg">
<g clip-path="url(#clip0_175_6635)">
<path fill-rule="evenodd" clip-rule="evenodd" d="M220.045 144.125C215.572 146.13 207.45 143.6 203.055 142.137C201.87 141.71 201.475 141.627 201.807 140.263C202.428 141.46 203.764 141.749 205.044 141.989C209.381 142.975 213.801 144.797 218.438 143.908C219.119 143.801 219.793 143.433 219.991 142.754C220.113 143.042 220.037 143.432 220.086 143.748C220.095 143.874 220.098 144.01 220.045 144.125M201.954 136.669C202.035 135.866 202.164 135.017 202.622 134.307C202.573 135.455 203.264 137.407 204.778 136.757C205.207 136.53 205.447 136.073 205.723 135.706C206.64 134.5 207.816 133.452 209.145 132.69C209.884 132.817 210.202 134.166 210.678 134.73C210.147 134.966 209.185 135.505 209.087 136.061C209.751 135.839 210.361 135.424 211.056 135.278C211.279 135.585 211.515 135.883 211.763 136.17C211.439 136.312 210.133 136.971 210.141 137.3C210.848 137.186 211.532 136.841 212.242 136.699C212.558 137.012 212.846 137.348 213.16 137.662C212.685 137.857 212.183 138.075 211.924 138.53C211.912 138.551 211.942 138.574 211.959 138.554C212.314 138.126 212.927 138.047 213.457 137.951C214.271 138.716 215.183 139.391 216.203 139.895C217.224 140.452 218.775 140.58 219.181 141.788C219.506 142.996 218.493 143.125 217.558 143.21C216.613 143.345 215.66 143.365 214.721 143.287C211.784 143.165 209.008 142.302 206.232 141.548C202.839 140.925 201.738 140.42 201.954 136.669M208.432 132.303C207.131 133.262 205.862 134.332 204.959 135.67C204.362 136.759 203.567 136.096 203.369 135.224C203.209 133.276 203.347 131.595 203.159 129.635C204.957 129.88 206.804 129.729 208.56 129.296C208.348 130.171 208.251 130.503 208.245 131.4C208.256 131.696 208.252 132.057 208.432 132.303M201.942 75.3086C201.77 75.3716 201.696 75.0966 201.867 75.0344C201.984 74.9916 202.103 74.9535 202.222 74.9174C202.237 74.8855 202.263 74.8581 202.304 74.8432C203.704 74.3345 205.267 74.3839 206.729 74.5056C207.514 74.571 208.298 74.6588 209.074 74.7968C209.818 74.9289 210.555 75.091 211.298 75.2206C211.45 75.2397 211.602 75.258 211.754 75.275C211.934 75.2953 211.936 75.5799 211.754 75.5594C211.72 75.5557 211.687 75.5513 211.653 75.5474C211.631 75.5553 211.607 75.5587 211.579 75.5543C211.463 75.5361 211.348 75.5167 211.232 75.4966C210.725 75.4318 210.219 75.3572 209.713 75.2832C208.381 75.0884 207.045 74.8939 205.699 74.8434C204.434 74.7959 203.141 74.8719 201.942 75.3086M211.528 48.3035C211.219 52.5583 211.299 56.359 211.366 60.6204C211.404 63.4868 211.422 66.3542 211.322 69.2196C208.794 62.6981 209.568 55.6214 209.209 48.7666C209.956 48.5182 210.758 48.4097 211.528 48.3035M198.623 79.7623C198.86 80.2131 199.257 80.5757 199.728 80.8023C199.67 80.9161 199.65 81.044 199.643 81.164C198.796 81.337 199.034 81.7385 198.461 81.93C198.086 82.0333 197.726 82.0774 197.402 82.304C196.3 83.3288 196.026 83.2535 194.843 82.3519C194.859 82.2703 193.249 80.7009 192.75 79.8234C192.335 79.0916 191.899 78.3545 191.262 77.7885C188.143 74.6012 184.82 71.593 181.801 68.3176C175.75 62.2999 176.904 55.4764 178.294 47.9598C180.537 48.2272 182.793 48.7642 184.813 49.7502C184.101 53.0679 184.055 56.075 183.748 59.4415C183.656 59.8577 183.76 60.6593 184.351 60.4744C189.782 64.778 190.414 73.6218 197.541 76.1792C200.446 77.3576 199.22 78.3142 200.18 80.5392C199.652 80.4425 199.181 80.0007 198.954 79.5779C198.841 79.3679 198.513 79.5528 198.623 79.7623M185.216 77.0884C185.041 77.1088 184.866 77.1239 184.69 77.1381C184.67 77.1545 184.645 77.1665 184.614 77.1703C184.34 77.2043 184.062 77.2489 183.786 77.3093C183.376 77.4542 182.962 77.5866 182.55 77.7244C182.514 77.7422 182.478 77.7601 182.442 77.7789C182.408 77.7969 182.375 77.7997 182.346 77.7931C182.334 77.7972 182.321 77.8011 182.309 77.8052C182.306 77.8063 182.303 77.8073 182.3 77.8084C182.289 77.808 182.278 77.8077 182.267 77.8072C182.251 77.8065 182.223 77.8053 182.19 77.8031C182.189 77.7906 182.19 77.7782 182.189 77.7658C182.073 77.7691 181.969 77.624 182.078 77.5282C182.479 77.177 183.019 77.0486 183.534 76.971C184.092 76.8869 184.656 76.8693 185.216 76.804C185.398 76.7828 185.396 77.0674 185.216 77.0884M180.091 125.429C179.591 125.391 177.454 125.317 177.198 125.652C177.487 125.774 177.884 125.706 178.194 125.72C178.798 125.745 179.399 125.798 179.996 125.882C179.952 126.114 179.911 126.346 179.878 126.579C179.276 126.636 178.103 126.662 177.721 127.083C178.403 127.191 179.113 127.094 179.797 127.229C179.764 127.548 179.74 127.867 179.722 128.186C179.449 128.215 177.846 128.48 177.847 128.731C178.448 128.811 179.084 128.706 179.695 128.766C179.563 130.677 180.012 136.45 177.394 136.804C175.105 136.683 174.101 132.981 173.79 131.205C173.1 127.067 173.219 122.654 174.586 118.666C175.074 117.556 176.403 117.364 177.527 117.307C177.569 117.494 177.612 117.679 177.659 117.865C177.172 118.967 177.016 120.209 177.003 121.402C177.106 123.117 179.227 124.392 180.766 123.259C180.479 123.96 180.256 124.69 180.091 125.429M177.062 137.766C172.528 136.794 171.785 131.554 172.096 127.701C172.35 125.019 172.045 119.364 174.526 117.789C171.32 120.71 171.598 140.595 178.703 137.124C178.526 137.684 177.615 137.846 177.062 137.766M177.95 119.071C177.958 119.002 177.967 118.933 177.977 118.864C178.48 120.228 179.341 121.523 180.624 122.313C180.133 122.925 179.177 123.107 178.531 122.606C177.405 121.764 177.875 120.24 177.95 119.071M193.404 31.9489C193.395 31.9645 193.386 31.9801 193.376 31.9953C193.313 31.9996 193.25 32.0053 193.186 32.0124C193.259 31.9906 193.332 31.9702 193.404 31.9489M220.485 143.295C220.473 142.956 220.468 142.518 220.07 142.397C220.251 140.936 219.035 140.103 217.758 139.698C216.669 139.034 215.435 138.57 214.434 137.768C214.899 137.681 215.363 137.576 215.776 137.374C216.088 137.222 215.938 136.716 215.6 136.763C215.002 136.841 214.465 137.145 213.903 137.356C213.584 137.094 213.274 136.821 212.982 136.531C213.346 136.461 213.809 136.487 214.021 136.127C214.087 136.014 214.057 135.897 213.978 135.81C213.609 135.438 212.878 135.809 212.42 135.918C212.201 135.665 211.988 135.407 211.78 135.146C212.126 135.114 213.025 135.177 212.849 134.608C212.511 134.162 211.785 134.429 211.297 134.521C210.677 133.761 210.478 132.595 209.51 132.177C209.475 131.992 209.234 132.006 209.073 132.061C208.836 130.932 208.854 130.358 208.923 129.2C209.642 129.002 210.355 128.741 210.952 128.313C211.227 128.394 211.56 128.301 211.617 127.979C212.114 124.683 212.335 121.346 212.739 118.038C214.213 105.855 214.534 90.9848 211.805 78.9489C211.784 78.4929 211.816 78.0364 211.862 77.5838C212.188 77.497 212.382 77.1799 212.651 76.9964C213.151 76.5893 213.661 76.3613 213.707 75.6507C213.808 75.5545 213.82 75.409 213.764 75.2829C213.894 74.5533 213.703 73.829 213.314 73.1986C212.887 72.4805 212.485 71.7557 212.129 71.002C212.907 63.4053 211.852 56.0429 212.429 48.4083C213.169 48.0172 212.704 45.8443 212.635 45.12C212.203 40.3632 209.978 35.1111 205.246 33.1325C204.914 32.8528 204.451 32.758 204.045 32.604C203.771 32.4694 203.325 32.3528 203.138 32.6661C202.939 32.5737 202.298 32.503 202.078 32.3428C202.037 32.3129 202.011 32.2802 202.005 32.2437C201.989 32.2442 201.97 32.2409 201.95 32.2366C201.747 31.9513 201.554 29.9637 201.305 30.1054C201.033 30.788 201.221 31.5592 201.482 32.2485C201.661 32.8581 201.907 34.4261 202.861 34.0251C203.025 33.9436 202.924 33.7317 202.777 33.7146C202.324 33.5857 202.224 32.9225 202.049 32.5338C202.256 32.7054 203.199 32.9628 203.302 33.0173C205.349 37.7044 192.977 37.4584 192.004 34.227C191.311 33.1107 191.909 32.5059 193.145 32.3267C192.237 33.3345 193.387 33.5582 193.825 32.5699C194.243 31.8621 194.434 31.0023 194.291 30.1879C194.364 29.9021 194.426 29.52 193.998 29.5968C193.983 29.5589 193.96 29.5887 193.969 29.6158C193.813 29.8642 193.922 30.2211 193.866 30.5079C193.819 30.9772 193.685 31.437 193.459 31.8522C193.039 31.9323 192.62 32.0181 192.204 32.112C191.954 31.6052 190.333 32.6158 189.898 32.7348C184.118 34.4389 179.722 38.9772 178.188 44.7015C177.846 45.4637 177.476 46.2297 177.196 47.0156C177.071 47.356 177.071 47.7783 177.415 47.9987C175.737 55.6812 175.327 63.6855 181.667 69.4477C181.811 70.0715 181.715 70.7332 181.711 71.3684C181.752 72.4979 181.007 75.7674 181.362 77.4522C181.324 77.5258 181.296 77.6048 181.286 77.6891C181.236 78.0807 181.555 78.3329 181.907 78.3971C181.918 78.399 181.929 78.4009 181.94 78.4028C181.948 78.4067 181.956 78.4111 181.964 78.4147C181.544 84.8377 183.12 93.5772 184.648 99.7736C184.761 101.903 184.117 103.841 182.385 105.185C179.092 107.642 177.704 111.744 177.319 115.652C177.264 116.053 177.318 116.461 177.408 116.854C176.694 116.987 176.026 117.073 175.333 117.334C171.511 116.603 171.784 124.799 171.491 127.23C171.262 130.825 171.405 135.135 174.715 137.489C175.828 138.279 177.793 139.039 178.877 137.841C179.184 137.475 179.351 137.046 179.23 136.578C180.785 134.306 180.418 131.402 180.534 128.817C180.941 128.831 181.385 129.012 181.786 128.913C182.095 128.831 182.134 128.436 181.873 128.278C181.496 128.065 180.983 128.146 180.561 128.132C180.574 127.884 180.593 127.637 180.616 127.39C181.017 127.487 181.591 127.722 181.71 127.163C181.758 126.655 181.114 126.616 180.713 126.594C180.741 126.402 180.773 126.211 180.808 126.021C181.115 126.051 181.439 126.247 181.741 126.153C181.912 126.086 181.971 125.913 181.846 125.774C181.614 125.547 181.217 125.592 180.909 125.521C181.096 124.609 181.433 123.736 181.758 122.864C182.346 123.067 182.983 123.202 183.611 123.151C183.936 123.083 184.291 123.063 184.62 123.107C184.986 123.011 185.07 122.62 185.118 122.302C185.111 122.29 185.104 122.28 185.096 122.27C185.941 117.359 188.972 113.116 192.371 109.461C193.307 108.415 194.225 107.328 194.861 106.086C196.153 103.49 196.385 100.57 197.374 97.8732C198.206 95.4245 199.319 93.0762 200.41 90.7245C200.848 93.8218 201.665 96.8683 201.758 100.009C201.901 103.983 201.023 107.899 200.649 111.841C199.976 117.029 200.587 122.249 200.263 127.441C200.265 127.809 200.312 128.155 200.26 128.522C200.231 128.725 200.377 128.853 200.531 128.857C201.097 129.227 201.807 129.359 202.456 129.517C202.636 129.654 202.559 129.993 202.59 130.2C202.66 131.364 202.752 132.242 202.639 133.415C202.003 134.353 201.545 134.203 201.369 135.629C201.271 137.117 201.057 138.726 201.709 140.077C201.417 140.143 201.306 141.031 201.35 141.266C201.424 141.929 202.01 142.139 202.576 142.368C206.714 143.915 215.505 146.462 219.757 144.71C220.061 144.882 220.401 144.545 220.499 144.274C220.629 143.943 220.509 143.623 220.485 143.295" fill="#111111"/>
<path fill-rule="evenodd" clip-rule="evenodd" d="M209.665 19.4993C209.354 18.6356 209.025 17.7786 208.68 16.9282C208.343 16.1005 208.039 15.255 207.621 14.4666C205.125 9.75767 200.587 9.75767 198.24 10.3729C197.024 9.84868 194.745 9.99657 193.478 10.4697C191.427 11.2355 188.927 14.2483 188.072 15.6019C186.185 18.5906 185.007 22.5684 186.26 26.0219C186.424 26.4733 186.633 26.8913 186.869 27.2942C186.72 27.4951 186.55 27.6853 186.361 27.8723C185.799 28.4279 185.238 28.9653 184.752 29.592C184.27 30.2148 183.871 30.8771 183.573 31.6073C183.012 32.9845 182.985 34.5438 183.727 35.8578C184.372 37.0012 185.515 37.8526 186.803 37.9338C186.869 37.943 186.935 37.9514 187.002 37.9581C187.173 38.2392 187.381 38.498 187.618 38.7236C188.346 39.4157 190.08 39.7707 191.069 39.7935C191.12 39.8342 191.171 39.875 191.222 39.9153C191.827 40.3917 192.463 40.8723 193.157 41.2113C193.628 41.4412 194.245 41.6332 194.736 41.4672C194.959 41.6161 195.324 41.5848 195.545 41.463C195.908 41.2629 196.204 40.9027 196.383 40.5339C196.819 39.6385 196.714 38.6587 196.602 37.7021C196.479 36.6455 196.361 35.5884 196.24 34.5319C196.146 33.7056 196.047 32.8657 195.796 32.0698C195.666 31.6574 195.496 31.2611 195.276 30.8885C195.282 30.8573 195.281 30.826 195.272 30.7966C195.2 30.5624 195.051 30.4396 194.875 30.2804C194.852 30.26 194.829 30.2391 194.807 30.2178C194.719 30.1173 194.624 30.0239 194.523 29.9448C194.485 29.9054 194.446 29.8656 194.408 29.8258C194.089 29.4916 193.787 29.1404 193.52 28.764C193.26 28.399 193.025 28.0179 192.802 27.6296C192.575 27.2348 192.425 26.7992 192.198 26.4072C192.179 26.3735 192.129 26.3669 192.102 26.3948C192.032 26.4674 191.987 26.5479 191.995 26.6328L191.96 26.638C191.947 26.51 191.829 26.4057 191.669 26.4337C191.429 26.4754 191.232 26.4911 191.024 26.4114C191.061 26.1692 191.094 25.9265 191.127 25.6833C191.188 25.2358 191.244 24.787 191.293 24.3381C191.41 24.366 191.526 24.4063 191.64 24.4575C191.802 24.53 191.955 24.6277 192.086 24.7476C192.215 24.8661 192.304 25.0259 192.461 25.1083C192.642 25.2027 192.861 25.0467 192.808 24.8419C192.7 24.4281 192.091 24.1911 191.714 24.1129C191.585 24.0859 191.453 24.0745 191.32 24.0773C191.35 23.7891 191.377 23.5009 191.399 23.2123C191.409 23.0757 191.418 22.9392 191.427 22.8022C191.72 22.7136 192.034 22.687 192.339 22.7288C192.439 22.8089 192.54 22.888 192.637 22.9681C192.946 23.2232 193.253 23.4796 193.556 23.7408C193.584 23.764 193.611 23.7872 193.638 23.8109C193.818 23.9659 194.043 23.8124 194.013 23.5929C193.765 21.7945 194.867 20.3639 196.156 19.2556C197.584 18.0284 200.179 17.8855 201.877 15.7597C202.659 15.9189 204.405 16.3916 205.125 17.5397C206.134 19.1485 206.002 20.59 206.079 22.415C206.156 24.2414 206.351 26.1464 205.936 27.9472C205.554 29.6077 204.518 31.0265 202.911 31.6787C202.872 31.6948 202.831 31.7105 202.791 31.7257C201.96 32.039 201.053 32.1276 200.179 31.9627C199.212 31.7797 198.404 31.337 197.6 30.7923C197.553 30.7615 197.485 30.825 197.52 30.8715C198.581 32.2774 200.665 32.7472 202.318 32.376C202.395 32.3585 202.472 32.3395 202.548 32.3187C202.178 33.3819 202.253 34.5489 202.734 35.5842C203.024 36.207 203.466 36.746 204.003 37.1712C204.596 37.6395 205.332 38.0178 205.743 38.6753C206.12 39.2777 206.008 39.9546 205.363 40.3026C205.201 40.3907 205.138 40.6756 205.299 40.8008C205.361 40.8482 205.423 40.8965 205.486 40.9439C205.847 41.2165 206.839 41.7284 206.999 41.7474C208.426 41.9166 209.385 40.869 210 39.6333C210.722 38.1828 210.534 36.4151 209.739 35.0338C209.101 33.9256 207.845 32.8334 208.344 31.4308C208.522 30.9298 208.887 30.5027 209.241 30.1168C209.645 29.6774 210.079 29.266 210.466 28.8109C210.851 28.3592 211.192 27.8676 211.383 27.3007C211.661 26.4721 211.523 25.5762 211.314 24.749C210.866 22.9734 210.284 21.2214 209.665 19.4993Z" fill="#111111"/>
<path fill-rule="evenodd" clip-rule="evenodd" d="M200.811 29.0421C200.811 29.0421 201.484 29.5606 202.739 29.5606C203.994 29.5606 204.723 29.0967 204.723 29.0967C204.723 29.0967 203.623 28.4298 202.739 28.3758C201.855 28.3218 200.811 29.0421 200.811 29.0421Z" fill="#FF6C6C"/>
<path fill-rule="evenodd" clip-rule="evenodd" d="M199.315 27.724C199.32 27.2017 199.773 27.1117 200.204 27.1813C200.934 27.299 201.666 27.3819 202.405 27.3968L202.532 27.3991C202.553 27.3692 202.587 27.3465 202.634 27.3416C203.043 27.2974 203.462 27.3045 203.874 27.2924C204.233 27.2819 204.603 27.246 204.962 27.2742L204.991 27.2767C205.43 27.3191 205.893 27.5428 205.84 28.0572C205.792 28.5336 205.335 28.9553 204.971 29.22C204.897 29.273 204.822 29.3227 204.744 29.368C204.72 29.399 204.685 29.4206 204.644 29.425C204.285 29.6184 203.889 29.7328 203.479 29.7709C202.61 29.8516 201.6 29.7643 200.766 29.3885C200.494 29.2664 200.241 29.1138 200.018 28.9265C199.673 28.6375 199.311 28.1993 199.315 27.724ZM202.786 28.6648C202.437 28.6543 202.09 28.703 201.758 28.8102C201.533 28.8826 201.328 29.0218 201.113 29.1185C201.839 29.3948 202.682 29.4551 203.427 29.4048C203.754 29.3827 204.07 29.3075 204.366 29.1782C204.32 29.1451 204.273 29.1114 204.224 29.082C204.077 28.9931 203.923 28.9174 203.762 28.8571C203.45 28.74 203.12 28.6753 202.786 28.6648ZM202.855 24.1924C202.761 24.1251 202.835 23.9021 203.036 23.9366C204.86 24.2493 203.915 27.3845 201.587 25.664C201.309 25.4409 201.645 24.9493 201.944 25.1404L202.05 25.222C202.395 25.4859 202.965 25.8848 203.374 25.4567C203.76 24.9173 203.214 24.41 202.855 24.1924ZM204.09 21.8196C204.477 21.4895 204.964 21.7327 205.249 22.0671L205.299 22.1269C205.356 22.1951 205.42 22.2745 205.458 22.3595C205.774 22.0907 206.203 21.9016 206.613 22.0243C207.011 22.1438 207.238 22.5231 207.17 22.9302C207.092 23.3932 206.741 23.7044 206.364 23.945L206.257 24.0128C205.804 24.3011 205.38 24.5916 205.007 24.988C204.946 25.0524 204.814 25.0439 204.775 24.9581L204.742 24.8891L204.71 24.8201C204.445 24.257 204.162 23.6976 203.929 23.1213C203.757 22.6941 203.701 22.1504 204.09 21.8196ZM199.729 22.0504C200.013 21.7205 200.494 21.4996 200.874 21.8196C201.278 22.1604 201.199 22.724 201.019 23.1587C200.802 23.683 200.549 24.1957 200.306 24.7099L200.254 24.8201C200.232 24.8661 200.21 24.9121 200.189 24.9581C200.149 25.0439 200.017 25.0524 199.957 24.9879C199.595 24.604 199.186 24.3199 198.75 24.0407L198.618 23.9569C198.235 23.7143 197.872 23.4009 197.793 22.9302C197.726 22.524 197.951 22.1424 198.35 22.0243C198.761 21.9025 199.189 22.0903 199.506 22.3595C199.544 22.2724 199.609 22.1904 199.67 22.1186L199.729 22.0504ZM200.19 19.7517C200.329 19.9314 200.18 20.2252 199.978 20.2716C199.727 20.3292 199.474 20.2942 199.227 20.3656C199.001 20.4311 198.785 20.5623 198.592 20.693C198.371 20.842 198.168 21.0084 197.981 21.198C197.87 21.3107 197.73 21.5779 197.559 21.5829C197.389 21.5879 197.617 21.0564 197.636 21.0105C197.77 20.6831 197.959 20.382 198.195 20.1181C198.661 19.5975 199.646 19.0482 200.19 19.7517ZM205.389 19.6078L205.505 19.6401C205.792 19.7198 206.099 19.8179 206.346 19.9899L206.365 20.0036L206.395 20.0254C206.705 20.2558 207.143 20.7156 206.924 21.1167C206.909 21.1444 206.877 21.1471 206.851 21.1358C206.559 21.0083 206.342 20.7535 206.032 20.647L205.975 20.6275C205.674 20.5265 205.302 20.4202 204.979 20.4299C204.751 20.5037 204.444 20.4425 204.385 20.1662L204.382 20.1526L204.377 20.124C204.343 19.9351 204.394 19.6944 204.589 19.6034C204.857 19.4787 205.119 19.5342 205.389 19.6078Z" fill="#111111"/>
<path fill-rule="evenodd" clip-rule="evenodd" d="M65.0584 60.9383C66.3624 60.6218 66.5852 57.4995 67.3727 57.9441C67.8278 58.3395 67.0833 59.0854 66.9515 59.5316L66.8937 59.6449C66.6266 60.1647 66.3244 60.6827 65.7979 60.9823C65.4595 61.3382 64.4479 60.9888 64.5967 61.5555C65.1161 63.2636 67.8726 64.4464 69.4972 64.9782C72.0223 65.9255 76.1073 65.605 76.7006 62.4295C75.3155 62.1762 74.2915 59.6802 75.1451 58.641C75.1742 59.6505 75.4504 60.6922 76.2437 61.3762L76.2875 61.4163C76.4271 61.5435 76.6079 61.6955 76.7881 61.6672C76.9638 61.4228 77.3049 61.5618 77.4053 61.8198C85.2913 63.1813 87.0482 71.6763 92.0144 76.6765C93.0065 77.7196 94.0435 78.7184 95.0672 79.7298C96.1127 80.5583 96.8525 81.7133 96.9041 83.0695C96.9975 83.8238 96.9513 84.5788 96.8513 85.3343L96.8444 85.4025C96.798 85.8707 96.7705 86.3736 96.5474 86.7893C96.5089 86.9301 96.5245 87.1082 96.4024 87.2076C96.4558 88.0696 96.405 88.947 96.259 89.8064L96.6395 89.976C100.826 91.8384 105.062 93.5939 109.427 94.99C109.8 94.9223 109.77 95.3556 109.589 95.5526C109.637 95.7842 109.642 96.0252 109.586 96.2542C110.386 96.369 111.198 96.2736 111.987 96.1281C112.236 95.579 112.9 95.6083 113.412 95.5929C114.05 95.553 114.686 95.4909 115.318 95.4026C116.877 95.0549 118.407 94.5973 119.95 94.1953C120.983 93.905 122.097 93.9188 123.133 94.1859C123.309 94.383 123.472 94.5934 123.609 94.8168C124.556 96.2835 123.623 97.6276 122.301 98.398C120.18 99.8996 118.058 101.399 115.927 102.887L115.773 102.997C113.238 104.809 110.386 107.103 109.032 102.693C108.577 102.639 108.178 102.334 107.755 102.154C107.869 102.684 107.528 103.218 107.293 103.672C107.192 103.931 106.916 104.016 106.661 104.013C106.442 104.227 106.032 104.143 105.889 103.889C104.73 103.558 103.773 102.784 102.747 102.183C101.289 101.299 99.7591 100.545 98.2796 99.6974C100.737 109.86 100.136 120.446 99.4822 130.79L99.4775 130.884C99.3965 132.394 99.0497 133.108 97.7955 134.034C98.0139 134.7 98.2094 135.368 98.3585 136.053C98.4111 136.212 98.6534 136.062 98.6553 136.28C99.1009 136.176 100.007 136.288 99.6906 136.903C100.585 137.653 101.191 138.669 101.975 139.524C103.356 141.177 105.162 142.408 106.932 143.62C111.001 145.691 111.235 149.28 106.473 150.506L106.426 150.517C105.77 150.675 104.98 151.035 104.345 150.732C103.394 150.549 102.45 150.179 101.52 149.897C97.7743 148.659 94.1108 147.209 90.561 145.543C90.4323 145.483 90.3595 145.345 90.3561 145.206C90.3957 144.063 90.085 137.8 91.2717 137.665C91.5367 136.385 91.5783 135.064 91.5302 133.758C91.1452 133.637 90.756 133.521 90.3572 133.445C89.9701 133.323 89.3647 133.296 89.1055 132.983C89.0123 132.949 88.944 132.866 88.9579 132.734C89.1676 130.772 89.3265 128.804 89.4425 126.833C89.8396 120.225 89.7048 113.595 89.2525 106.994C88.3204 107.799 87.2583 108.504 86.0759 108.879C85.4233 109.532 84.3768 109.672 83.4859 109.751C82.3402 109.822 81.2147 109.594 80.0841 109.451C78.1642 109.21 76.2576 109.424 74.3517 109.66L73.7003 109.742C69.0341 110.253 63.9913 110.358 59.6422 108.367C58.8234 108.439 57.8068 107.555 57.296 106.965C57.0705 107.104 56.8488 106.832 56.6691 106.689C56.3724 106.599 56.0359 106.47 55.7667 106.281C55.0838 106.504 54.7154 105.619 54.456 105.137C50.3386 98.0957 54.924 91.0863 54.5791 83.6191C54.7879 77.7649 52.1142 71.6658 54.6983 66.051C55.2211 63.675 58.2786 62.0329 60.5799 61.429C61.3215 61.3067 64.1291 60.2929 64.4382 61.1454C64.5845 60.9535 64.8343 60.9391 65.0584 60.9383ZM99.2122 137.177C98.8263 137.219 98.45 137.243 98.0687 137.312C96.6766 137.541 95.3488 138.079 94.1525 138.827C93.7651 139.068 93.4193 139.372 92.9747 139.506C92.0611 139.838 91.1632 139.015 91.2302 138.126C90.9755 140.361 91.0192 142.66 91.1514 144.907C94.7249 146.521 98.3784 147.961 102.098 149.211C102.936 149.562 103.928 149.674 104.697 150.148C106.009 150.066 107.33 149.606 108.431 148.886C110.259 147.62 109.046 145.611 107.531 144.727C104.195 143.224 101.356 140.182 99.2122 137.177ZM91.9046 133.872C91.8349 134.535 92.3389 135.567 92.2678 136.887C92.2131 137.3 92.0844 137.732 92.1291 138.146C92.3343 139.681 93.9992 137.73 94.6872 137.516C95.6638 136.979 96.7251 136.614 97.8159 136.414C97.8093 136.06 97.5745 135.919 97.5437 135.569C97.4994 135.054 97.5017 134.558 97.4784 134.038C96.0597 134.682 93.4095 134.226 91.9046 133.872ZM99.5485 137.077C99.5238 137.094 99.4977 137.108 99.4709 137.12C99.6681 137.359 99.8389 137.623 100.073 137.829L99.9732 137.674C99.84 137.468 99.7037 137.263 99.5485 137.077ZM55.4866 82.1396C55.4151 82.4297 55.2849 82.7025 55.0899 82.9346C56.0971 91.0897 50.9154 97.8882 55.6795 105.471C55.7397 105.499 55.7946 105.533 55.8475 105.577C55.8755 105.558 55.9035 105.539 55.931 105.519C58.164 101.573 61.3426 98.1692 63.8753 94.393C64.3614 93.4451 65.1616 92.491 65.468 91.3959C60.3784 89.3888 58.3453 86.4603 55.4866 82.1396ZM122.467 94.5093C122.252 94.5864 122.012 94.5228 121.781 94.5186C120.964 94.5012 120.165 94.7143 119.383 94.9296C117.108 95.5509 114.822 96.1009 112.491 96.4688C112.444 96.5175 112.399 96.5671 112.358 96.6194C112.399 96.6877 112.405 96.7731 112.346 96.858C111.995 97.5286 112.279 98.3497 112.023 99.0676C111.653 100.521 110.669 102.16 109.2 102.676C109.69 103.142 110.041 103.742 110.546 104.192C111.786 105.041 113.152 103.776 114.164 103.097C116.092 101.737 118.025 100.387 119.963 99.0417C120.831 98.3231 122.752 97.4173 123.167 96.4652C123.433 95.7352 122.949 95.0241 122.467 94.5093ZM109.183 96.3623C108.353 98.0523 107.874 99.849 107.395 101.664C107.893 101.8 108.352 102.015 108.842 102.159C109.532 102.314 110.506 100.982 110.852 100.454C111.209 99.8627 111.459 99.2131 111.574 98.5326C111.672 97.8661 111.568 97.1739 111.858 96.5566C110.96 96.6483 110.048 96.6675 109.183 96.3623ZM59.8543 92.8753C60.6334 92.6574 58.8609 94.4177 58.7588 94.6056C57.6063 95.9646 56.5503 97.4 55.5024 98.8398L55.1848 99.2768C55.1543 99.3211 54.9439 99.6316 55.096 99.5921C55.1099 99.5884 55.1164 99.6067 55.1054 99.6143C54.1363 99.7855 59.387 92.995 59.8543 92.8753ZM78.8498 92.0444C78.9129 91.8548 78.6137 91.7737 78.5507 91.9622L78.3521 92.5596C77.6025 94.8168 76.8575 97.077 75.9616 99.2814C75.8867 99.4663 76.1864 99.5469 76.2608 99.3641C77.2352 96.9651 78.0314 94.5001 78.8498 92.0444ZM87.5628 91.2541C87.2896 92.549 86.5992 93.7165 86.1807 94.9543C86.9667 94.7813 87.5722 94.0498 88.0304 93.4206L88.0442 93.3996C88.2603 93.0674 88.5116 92.5483 89.0025 92.7827C89.7477 93.215 89.2139 94.7483 89.1999 95.475C89.1054 96.4712 88.7812 97.403 88.5601 98.3707C89.1282 97.983 89.2915 97.2185 89.5683 96.6228L90.6339 94.0697V94.0697C91.4172 92.9978 91.0534 96.2078 91.013 96.5108C90.9493 97.1762 90.6685 97.8457 90.7787 98.5157C91.2205 98.0409 91.4988 97.4444 91.7326 96.839C92.057 95.9971 92.353 95.1444 92.6616 94.2969C92.7683 94.0254 93.1729 94.1206 93.1142 94.4197C93.0943 95.3815 93.0785 96.3433 93.0631 97.3051L93.0516 98.0265C93.0496 98.1633 92.9818 98.5627 93.2183 98.4523C94.4605 97.1502 94.779 94.5465 94.6174 92.7972C92.1756 92.8561 89.6843 92.5398 87.5628 91.2541ZM109.292 96.1119C109.282 96.1437 109.271 96.1755 109.259 96.2072C109.266 96.2087 109.274 96.2101 109.281 96.2121C109.285 96.1783 109.289 96.1451 109.292 96.1119ZM55.0982 96.1119C54.8273 95.9121 59.3799 90.0743 59.085 91.7595C57.8149 93.2603 56.3338 94.5755 55.0982 96.1119ZM95.3036 83.2119C91.0461 82.213 87.2968 85.9446 83.0211 85.3808C83.0707 86.7173 83.1394 88.0629 83.1124 89.4C88.7904 89.8677 88.1443 92.2813 94.6806 92.0383C95.5252 91.4733 95.8721 88.0105 95.8008 86.9651C95.8554 85.7292 94.7904 85.1744 93.7296 84.9576C93.3463 85.1887 92.6586 84.4991 93.2278 84.2565C93.9769 84.0314 94.6779 83.6775 95.3036 83.2119ZM63.8942 61.3063C62.3795 61.4554 60.8793 61.8677 59.4871 62.5049C54.3411 63.9886 53.5991 70.005 54.2179 74.5642C54.4743 78.0313 55.4643 81.4222 57.5457 84.2415C63.0869 92.6817 72.2648 91.3452 80.9582 90.2289C81.2716 90.0111 81.8026 90.1657 82.1046 89.8781C82.073 89.8672 82.0445 89.8522 82.0202 89.8336C82.1653 89.7206 82.2776 89.5222 82.3111 89.3113L82.3737 89.3175V89.3175C82.4351 88.0086 82.386 86.7253 82.4058 85.4266C79.5493 84.6442 76.4858 84.2443 73.5908 83.465C73.2617 83.6942 72.8823 83.4304 72.5609 83.3058C71.7276 82.9518 70.8869 82.6156 70.04 82.2954L69.8282 82.2157C69.2761 82.0091 68.7245 81.7971 68.1776 81.5762L67.9728 81.4929C67.6595 81.365 66.8683 80.8913 66.5266 81.187L66.5542 81.2464C66.7568 81.688 67.4549 83.322 66.5967 82.9989C65.8999 82.5101 65.5386 79.1021 64.8484 79.0719C64.611 79.7064 64.441 80.365 64.4021 81.0433C64.3881 81.1959 64.1873 81.3246 64.0666 81.182C63.248 80.1052 64.4845 78.9324 64.5175 77.7959C64.5955 76.4744 64.0101 75.2379 63.7185 73.973L63.7005 73.8857C63.5295 73.0651 63.2634 72.0702 63.334 71.3342L63.5038 71.9731C63.6742 72.6123 63.8488 73.2517 64.049 73.882C64.546 75.4562 65.4433 77.0781 64.9446 78.7625C65.9449 78.7957 66.1141 80.3727 66.4898 81.0929C67.0977 80.305 71.3756 82.1942 72.3518 82.4973L72.54 82.2839C75.5973 78.8215 77.8043 76.4782 82.5428 79.2171C81.7243 76.5795 81.6452 73.7781 81.5055 71.0393C81.5534 70.5183 81.2519 69.1438 81.6771 68.8594C81.7509 68.8702 81.8226 68.8924 81.8904 68.9221L81.8903 69.1921C81.8923 69.715 81.9168 70.5822 82.1363 70.7792L82.2371 71.8147C82.5009 74.5073 82.8002 77.1978 83.6051 79.7926C85.5375 80.8716 87.3008 82.2228 88.9596 83.6804L89.1485 83.6115C91.1981 82.862 93.6642 81.9013 95.7597 82.8367C95.7247 82.3086 95.5206 81.8032 95.2359 81.3565C94.7612 81.2389 94.4505 80.7388 94.1108 80.4059C93.0336 79.2502 91.9279 78.1209 90.8755 76.9419C86.3852 72.1168 84.4748 64.1938 77.4233 62.3223C76.9571 66.2212 71.9633 66.8434 68.954 65.509L68.8398 65.4653C66.9691 64.7442 64.855 63.6557 64.198 61.6728L64.1707 61.6154C64.1032 61.4755 64.0226 61.333 63.8942 61.3063ZM65.0041 83.4938C65.0095 83.4878 65.0201 83.4959 65.0155 83.5026C64.1387 84.6016 63.4253 86.1005 64.2966 87.4132C64.4577 87.7088 64.0813 87.9927 63.8403 87.7674C62.6309 86.3955 63.9727 84.5361 65.0041 83.4938ZM95.5076 83.7421C95.0255 84.086 94.5085 84.3715 93.9609 84.5968C93.9626 84.6598 93.9318 84.7272 93.9041 84.7767C94.625 84.8339 95.3757 85.0199 95.8817 85.545C95.9063 85.3529 95.9304 85.1603 95.9488 84.9677C95.9954 84.4722 95.9104 84.0287 95.5076 83.7421ZM62.3549 78.8841L62.3605 78.8576C62.3644 78.8276 62.4101 78.8255 62.4087 78.8576C62.392 79.2505 62.1058 79.5299 61.8634 79.8097C61.5038 80.2247 61.144 80.6396 60.7842 81.0544C60.1826 81.7774 59.2964 82.5042 59.4956 83.5516C59.4994 83.9236 59.0326 84.0034 58.8433 83.7298C58.0902 82.2951 60.4609 81.0745 61.26 80.1489C61.6352 79.7483 62.2265 79.4536 62.3549 78.8841V78.8841ZM73.6427 83.1913C73.654 83.2091 73.662 83.2284 73.6663 83.2483C73.7925 83.2617 73.9182 83.276 74.0439 83.2914L73.6427 83.1913V83.1913ZM54.7856 79.8359C54.8081 79.9858 54.8292 80.136 54.8494 80.2865L54.8692 80.4368L54.8723 80.4237C54.8826 80.3847 54.902 80.3508 54.9274 80.3237L54.9361 80.3149C54.8838 80.156 54.8337 79.9964 54.7856 79.8359ZM89.3971 78.2842C89.6992 78.252 88.3304 79.2351 88.2548 79.3567C88.1444 79.4526 88.0154 79.2823 88.1332 79.1993C88.5584 78.8996 88.9776 78.5919 89.3971 78.2842ZM86.734 75.3923C86.9442 75.3063 87.087 75.6559 86.8876 75.7533C86.1614 76.1082 85.3935 76.3592 84.7243 76.8261C84.695 76.8466 84.6582 76.7989 84.686 76.7769L84.7664 76.7134C85.3827 76.2245 85.9984 75.6931 86.734 75.3923ZM55.0364 70.9717C55.2394 71.9264 56.3375 72.24 57.1898 72.4943L57.4561 72.5956C58.2087 72.8833 58.9883 73.207 59.5298 73.8149C59.742 74.5007 58.2277 73.3061 58.0163 73.2456C56.9823 72.6052 55.1139 72.4964 55.0364 70.9717ZM77.4543 62.0575C77.46 62.106 77.4629 62.1556 77.4643 62.2052C77.528 62.2052 77.5912 62.2057 77.6549 62.2077C77.5807 62.1643 77.5128 62.1147 77.4543 62.0575Z" fill="#111111"/>
<path fill-rule="evenodd" clip-rule="evenodd" d="M71.7514 37.8333C72.6525 37.7696 73.57 37.9216 74.4281 38.1935C75.7966 38.627 77.0535 39.392 78.0861 40.3879C79.1503 41.4143 79.9374 42.6798 80.416 44.0775C80.9931 45.7631 81.0795 47.5629 81.2419 49.3224C81.324 50.2114 81.4592 51.0869 81.5998 51.9673L81.622 52.1063C81.7593 52.9641 81.8366 53.8316 81.6469 54.688C81.3315 56.1114 80.386 57.3196 79.2638 58.2124C76.9583 60.0464 73.3693 61.1646 70.685 59.4769C70.2697 59.2158 70.6632 58.5481 71.0686 58.8202C71.3539 59.0117 71.6562 59.1797 71.9804 59.2956C73.3347 59.7799 74.8221 59.6074 76.1607 59.1569C77.4797 58.7129 78.7454 57.9628 79.7187 56.9618C80.7411 55.9103 81.3076 54.6116 81.2258 53.1339C81.177 52.2546 80.9768 51.3916 80.8657 50.5195C80.7673 49.7471 80.7083 48.9705 80.6402 48.195L80.6153 47.9161C80.4711 46.336 80.264 44.7126 79.5456 43.2784C78.9413 42.0717 78.0564 40.9983 76.9924 40.1692C75.8785 39.3013 74.548 38.6943 73.152 38.4679C71.5104 38.2017 69.939 38.6858 68.5696 39.587C67.3551 40.3863 66.3109 41.4544 65.5103 42.6663C65.122 43.254 64.7913 43.8815 64.5056 44.5251C64.2365 45.1315 64.0509 45.767 63.8345 46.392C64.0126 46.3867 64.1937 46.3935 64.3775 46.4139C65.3206 46.5184 66.1993 47.0075 66.7586 47.7787C67.4422 48.7211 67.2574 49.8778 67.5244 50.9495C67.5451 51.0327 67.51 51.1141 67.4387 51.1602C67.0339 51.422 66.4921 51.4307 66.1003 51.1359C65.7602 50.88 65.6006 50.4174 65.7383 50.0132C65.7562 49.9605 65.8329 49.9699 65.8351 50.0263C65.8609 50.7142 66.4987 51.2439 67.1238 50.9166C66.8557 49.9924 66.9968 48.9603 66.4483 48.1256C65.4776 46.6482 63.4687 46.5872 62.0578 47.42C61.3152 47.8583 60.7275 48.5172 60.2898 49.2543L60.1637 49.4682C59.996 49.7541 59.8183 50.0775 59.7835 50.3924C59.7634 50.5741 59.8304 50.7448 60.0387 50.6532C60.2072 50.5792 60.3377 50.4065 60.4378 50.258C60.6085 50.0048 61.0008 50.2236 60.8598 50.4932L60.855 50.5021C60.6498 50.8658 60.5234 51.2667 60.5002 51.6844L60.4943 51.8001C60.4905 51.8844 60.4877 52.0042 60.5055 52.0086C60.5269 52.0139 60.6754 51.8423 60.7001 51.8186C60.8192 51.7041 60.9419 51.6106 61.1077 51.5801C61.3256 51.5401 61.5455 51.81 61.3563 51.9869L61.3484 51.994C61.1796 52.1409 61.1871 52.4338 61.3736 52.5712C61.6369 52.765 61.961 52.4486 61.9992 52.1881L62.0004 52.1784C62.0342 51.8969 62.4249 51.887 62.4462 52.1784C62.4922 52.8109 61.7397 53.3411 61.1671 53.022C60.9407 52.8959 60.7968 52.665 60.7517 52.4175C60.6794 52.4557 60.6015 52.4822 60.519 52.4895C60.2507 52.5133 60.0599 52.3245 60.0165 52.0711C59.966 51.7758 59.996 51.4597 60.0737 51.1531C59.9279 51.1883 59.7746 51.1749 59.6206 51.0859C59.1544 50.8167 59.2883 50.2179 59.4643 49.8137C60.2157 48.0882 61.7725 46.5226 63.7013 46.3983C63.7119 46.0939 63.7531 45.806 63.8206 45.5012C64.4803 42.5195 66.6174 39.7585 69.3997 38.468C70.1432 38.1232 70.9317 37.8912 71.7514 37.8333ZM64.4549 49.7441L64.4814 49.7381C64.782 49.6733 65.573 49.5972 65.4777 50.1034C65.4732 50.1272 65.4386 50.1243 65.4324 50.1034C65.339 49.7851 64.7046 50.0396 64.5194 50.1162C64.2641 50.2218 64.0122 50.3776 63.8037 50.5586C63.3473 50.955 63.0413 51.5137 62.9947 52.1205C62.9486 52.7224 63.1231 53.3726 63.557 53.8079C63.7697 54.0213 64.0412 54.1662 64.3462 54.1769C64.6202 54.1864 64.9229 53.973 65.1757 54.098C65.2256 54.1226 65.2651 54.1903 65.2606 54.2459C65.2521 54.3514 65.2049 54.4334 65.1347 54.4971C65.558 55.269 65.9045 56.086 66.4444 56.7879C66.7153 57.1401 67.0224 57.4662 67.37 57.7437C67.5353 57.8757 67.715 57.9916 67.9002 58.0934C68.1173 58.2128 68.3052 58.2876 68.4601 58.4899C68.5923 58.6624 68.4601 58.996 68.2423 59.0257C67.7294 59.0956 67.2309 58.6807 66.8544 58.3698C66.4782 58.0592 66.153 57.6761 65.8843 57.2696C65.3684 56.489 65.0154 55.5682 64.8743 54.6365C64.7104 54.6885 64.5259 54.7044 64.3872 54.7047C64.0179 54.7055 63.6653 54.5726 63.3752 54.348C62.3129 53.5258 62.1948 51.8378 62.9445 50.7733C63.3032 50.2639 63.8483 49.8876 64.4549 49.7441ZM64.4616 51.7019C64.7079 51.6803 64.954 51.7192 65.1856 51.8032L65.281 51.8379C65.4826 51.9116 65.6972 51.9984 65.8428 52.1496C66.0653 52.3808 65.8438 52.7813 65.5269 52.6927C65.1765 52.5948 64.8917 52.2995 64.5415 52.1756C64.2284 52.065 63.8737 52.0806 63.5959 52.2712C63.5592 52.2964 63.511 52.2468 63.5349 52.2102C63.7475 51.8863 64.083 51.7351 64.4616 51.7019Z" fill="#111111"/>
<path fill-rule="evenodd" clip-rule="evenodd" d="M75.6278 56.3949C75.2907 56.2576 74.9899 56.0285 74.77 55.7358C74.6935 55.6341 74.6737 55.5267 74.6897 55.4284C74.7078 55.3179 74.7732 55.2178 74.8625 55.1506C74.952 55.0832 75.0641 55.05 75.1724 55.067C75.2665 55.0817 75.3601 55.1331 75.4343 55.2398L75.4497 55.2612C75.5805 55.4378 75.7509 55.5827 75.945 55.6761C76.1321 55.7662 76.3414 55.8082 76.5579 55.7837C76.9704 55.7372 77.2546 55.5145 77.5568 55.212C77.5942 55.1738 77.6317 55.1344 77.6694 55.0944C77.6932 55.0582 77.7262 55.0348 77.7628 55.0226C77.8035 55.009 77.8495 55.0098 77.8917 55.0245C77.9323 55.0386 77.9687 55.0655 77.9931 55.1012C78.0162 55.1352 78.0293 55.1771 78.0251 55.2254C77.9974 55.5389 77.8333 55.8186 77.6002 56.0383C77.3413 56.2822 76.9981 56.451 76.675 56.5102C76.319 56.5754 75.9563 56.5287 75.6278 56.3949V56.3949ZM76.8429 51.5592C77.2217 51.7891 77.7987 52.3251 77.3913 52.895C76.9117 53.3974 76.2213 52.8213 75.881 52.5607C75.5655 52.3588 75.2111 52.8782 75.5038 53.114C77.9624 54.9316 78.9602 51.6193 77.0345 51.2889C76.8225 51.2525 76.7437 51.4881 76.8429 51.5592ZM72.437 49.4448C72.4789 48.9262 73.2699 48.8084 73.3486 49.3216C73.419 49.7813 73.3361 50.2037 73.1287 50.6176C72.9306 51.013 72.4325 50.8285 72.3949 50.4684C72.3444 49.9858 72.411 49.7674 72.437 49.4448ZM78.4584 49.2152C78.5687 49.0709 78.728 48.9725 78.9187 49.0281C79.5148 49.2021 79.3391 50.0471 79.1298 50.4584C79.016 50.6817 78.6484 50.7384 78.4822 50.5417C78.2114 50.221 78.0817 49.5805 78.426 49.2646C78.4353 49.2483 78.4457 49.2318 78.4584 49.2152ZM73.1203 47.1754L73.2145 47.1589C73.5058 47.1086 73.8679 47.0603 74.074 47.2941C74.1833 47.4181 74.2209 47.6486 74.074 47.7673C73.8156 47.9761 73.5299 47.8952 73.2203 47.9129C72.9651 47.9275 72.7199 47.9696 72.4741 48.0398C71.9348 48.1937 71.4955 48.4747 71.0349 48.7831C70.9745 48.8236 70.9128 48.7464 70.9416 48.69C71.2075 48.17 71.7227 47.7429 72.2388 47.4825C72.5142 47.3435 72.8156 47.2283 73.1203 47.1754ZM77.9151 46.9424L77.9872 46.9572C78.7714 47.1209 79.7903 47.4478 80.1617 48.2171C80.1758 48.3258 80.1609 48.3491 80.1487 48.3644L80.1447 48.3694C80.1346 48.3824 80.1266 48.4004 80.0794 48.4152C80.0663 48.412 80.0531 48.4087 80.0397 48.4052C79.8695 48.3607 79.7348 48.2993 79.6044 48.2357L79.463 48.1661C79.299 48.0858 79.1336 48.0084 78.9582 47.9513C78.5839 47.8294 78.199 47.7435 77.8081 47.6977C77.7234 47.6877 77.6418 47.6592 77.5774 47.6102C77.5163 47.5638 77.4697 47.4995 77.4484 47.414C77.4208 47.3034 77.4287 47.2196 77.4882 47.1198C77.5329 47.0449 77.5968 46.9929 77.6703 46.9631C77.7451 46.9327 77.8304 46.9255 77.9151 46.9424Z" fill="#111111"/>
<path fill-rule="evenodd" clip-rule="evenodd" d="M27.431 32.3492C27.4482 32.1985 27.6495 32.2008 27.6687 32.3492C27.8802 34.142 27.1715 36.2002 25.4284 37.0357C26.7354 38.1889 27.6553 39.7306 29.2237 40.6011C32.5145 42.7426 37.2701 40.7389 38.0019 36.9623C37.1897 36.7762 35.6763 36.792 35.4297 35.8441C35.3105 35.7221 35.2491 34.6764 35.2565 33.9053C35.249 33.7619 35.2444 33.6184 35.2396 33.4759C35.2271 33.3605 35.2236 33.2428 35.2248 33.1245C35.2273 32.8678 35.6122 32.8728 35.6283 33.1245C35.635 33.2277 35.6394 33.3322 35.6436 33.4372C35.6464 33.4649 35.6502 33.4925 35.6536 33.5202C35.7066 33.7123 35.7432 33.913 35.7864 34.0952C35.8097 34.1933 35.8338 34.2925 35.8596 34.3916C35.8967 34.6513 35.9631 34.905 36.0768 35.1452C36.3791 35.784 37.1245 36.3325 37.8594 36.3384C38.0168 36.3397 38.1733 36.3166 38.3309 36.3205C38.5875 36.3271 38.7971 36.4286 39.026 36.532C39.2327 36.6254 39.4269 36.6885 39.6263 36.6882C47.8527 39.475 46.7201 49.6764 47.973 56.5736C49.2501 63.4232 51.8881 70.0269 52.2764 77.0269C52.3928 77.7528 51.5902 78.0221 51.0924 78.3656C50.9596 80.1919 51.729 82.0404 51.1954 83.8477C50.7019 85.3254 48.7119 88.8783 46.8105 88.3187C44.6543 104.687 39.6431 119.856 39.169 136.423C39.6491 137.809 38.2707 138.814 36.9995 139.017L36.8262 139.117C36.2466 139.449 35.6477 139.774 35.0136 139.98C34.9977 139.989 34.9819 139.998 34.9658 140.007C34.9349 140.024 34.9018 140.034 34.8679 140.039C34.9034 140.463 35.0376 140.861 35.2105 141.249C37.8482 141.856 40.1649 143.452 42.6452 144.496C44.2452 145.479 49.1293 146.899 49.5001 148.627L49.51 148.679C49.6591 149.453 49.2425 150.408 48.3604 150.481C48.8209 150.821 48.5193 151.509 48.0177 151.642C47.4149 151.802 46.7608 151.734 46.1403 151.783C40.2876 151.967 34.3833 151.45 28.6785 150.14C28.1994 150.029 27.7004 149.885 27.2966 149.599C24.8209 147.641 27.3978 143.498 28.0063 140.959C27.7854 140.924 27.5668 140.876 27.3522 140.812L27.3042 140.798C27.0956 140.735 26.8799 140.659 26.7179 140.512C26.7113 140.506 26.7057 140.499 26.6994 140.493C25.6564 140.478 26.7187 138.183 26.8124 137.57C26.3886 138.471 26.0425 139.434 25.5348 140.292C25.1853 140.822 24.4188 140.455 23.904 140.417C24.0752 143.556 24.825 146.616 25.5952 149.657C26.2206 152.182 27.2942 155.217 23.7512 155.984C21.3109 156.623 15.4959 156.379 14.4558 153.71C14.149 151.536 14.8208 149.334 15.1531 147.192L15.2113 146.887C15.608 144.805 15.9746 142.713 16.5498 140.67C16.629 140.337 16.7264 140.011 16.8313 139.687C16.8449 139.498 16.8549 139.309 16.8426 139.119C16.8266 138.871 16.7796 138.628 16.7297 138.384C16.7233 138.353 16.7175 138.317 16.7116 138.279C15.6841 137.805 14.9211 137.269 14.8227 136.691C14.7219 136.143 14.9256 135.587 15.0766 135.063L15.0854 135.033C18.3946 123.423 24.6892 112.961 23.6165 100.577C23.2219 94.4861 20.3346 88.8841 19.8474 82.809C19.5672 81.5972 19.3142 80.3728 19.2735 79.1234C19.1003 79.0827 18.9259 79.0457 18.7537 79.0011C18.6527 79.5413 18.5249 80.0769 18.3155 80.5811C18.2347 81.5779 18.2864 82.5857 18.46 83.5715C18.5 83.7986 18.3893 83.9963 18.2019 84.0689C18.6522 85.4709 18.741 87.2291 17.5798 88.3151L17.4835 88.3788C16.4747 89.0498 16.3693 89.2396 16.1346 90.4898L15.3622 93.6492C15.2653 94.0403 15.1493 94.4386 14.8703 94.7456C14.1297 95.5603 12.9509 95.0286 12.569 94.1603C12.2204 93.2706 12.223 92.2914 11.9685 91.3752C11.775 90.4289 11.2385 89.6206 10.7068 88.8272C9.51821 87.0057 9.42334 84.4694 10.7487 82.6854C10.8644 82.3902 10.9704 82.0997 11.0934 81.8094C10.6348 81.2719 10.9299 80.4252 10.8773 79.7675C10.8764 79.2244 10.8664 78.6814 10.8499 78.1386C10.7531 74.9327 10.4226 71.7467 10.4106 68.5405C10.2821 64.2192 11.4203 60.0333 12.0802 55.7951C12.6476 51.6098 12.6174 47.3427 13.5457 43.2061C15.2734 35.0867 24.968 38.1822 26.6081 34.9826C27.1037 34.182 27.3255 33.2709 27.431 32.3492ZM15.5891 152.714C15.4424 153.794 16.2014 154.053 17.0718 154.381C19.2909 155.195 21.8531 155.388 24.1087 154.612C24.5084 154.443 24.7943 154.191 24.9364 153.82C21.806 154.106 18.5189 153.898 15.5891 152.714ZM27.5234 147.906C27.7198 148.876 28.9704 148.99 29.8078 149.153C31.8076 149.572 33.8268 149.907 35.8574 150.145C39.7923 150.619 43.773 150.7 47.7272 150.52C47.834 150.474 47.9025 150.386 48.0373 150.386L48.0538 150.386C48.0614 150.386 48.0686 150.387 48.0761 150.387C48.0103 150.344 47.954 150.287 47.9123 150.22C41.1156 149.474 34.2777 148.965 27.5234 147.906ZM34.1681 139.592C32.5357 139.875 30.8694 140.024 29.2212 139.767C29.11 141.13 28.582 142.453 28.1666 143.757C30.4439 144.359 31.9511 141.835 33.9881 141.354C33.8727 140.751 33.9137 140.118 34.1681 139.592ZM17.3427 138.55C17.3482 138.559 17.3511 138.571 17.35 138.584C17.3421 140.172 17.181 141.755 16.9468 143.326C18.3937 141.768 20.8155 141.373 22.8099 142.021L22.8012 141.92C22.7499 141.345 22.6733 140.755 22.7672 140.185L22.6758 140.16C21.647 139.876 19.2282 139.307 17.3427 138.55ZM47.1471 78.6662C38.237 81.056 28.7525 81.2059 19.7494 79.2299C20.1984 80.6685 20.5355 82.1334 20.7737 83.618C21.2843 87.4368 22.6906 91.0457 23.6379 94.7663C24.7308 99.1575 24.9912 102.855 24.4473 107.34L24.4306 107.476C23.2329 117.535 18.3283 126.717 16.024 136.482C18.7357 138.127 22.0855 138.77 25.1948 139.45C27.149 135.423 28.8002 131.293 29.8823 126.956C33.7804 113.344 38.9168 100.528 37.7759 86.1568C37.5216 85.99 37.6043 85.6382 37.7441 85.4134C37.6958 84.3767 37.629 83.3409 37.5196 82.3098C37.5159 82.2749 37.5743 82.268 37.5815 82.3016C37.7624 83.1847 37.9523 84.0656 38.1112 84.9531C39.2067 83.8391 39.9151 82.4468 40.8785 81.2381C41.0156 82.1406 39.1376 85.6364 38.3113 86.1773C40.072 96.9839 37.14 106.876 33.9731 117.154C31.8421 124.534 29.7716 131.935 27.573 139.294C27.5997 139.294 27.6263 139.295 27.653 139.296C27.5208 139.052 30.319 139.22 30.5488 139.098C32.6095 138.903 34.6264 138.415 36.6308 137.926L36.8767 137.863C37.3761 137.732 37.9559 137.543 38.0457 137.009L38.0471 136.942C38.0476 136.922 38.0485 136.906 38.0502 136.905L38.0358 136.845C38.0327 136.831 38.0306 136.82 38.031 136.817L38.0111 136.787C37.9881 136.754 37.9666 136.725 37.9972 136.759C37.7707 136.511 37.7502 136.129 38.0115 135.893C38.5013 117.918 44.2944 101.466 46.4399 83.6916C46.6525 82.0133 46.9121 80.3415 47.1471 78.6662ZM11.6553 82.1464C10.6251 83.4251 10.4481 85.2097 10.8543 86.7682C11.0675 87.5416 11.4987 88.1929 11.9434 88.8562C12.723 89.9619 13.0866 91.2466 13.2849 92.5632L13.2905 92.5882C13.3809 93.0114 13.4371 94.1791 14.0354 94.0477C14.1926 93.9467 14.2678 93.503 14.3231 93.271L15.0138 90.4455C15.2137 89.6274 15.3337 88.6552 16.0421 88.0889L16.1258 88.0355C16.7045 87.6636 17.269 87.2323 17.3598 86.5076C17.5591 85.6194 17.1884 84.7594 17.05 83.8959C15.2025 83.4736 13.3987 82.8775 11.6553 82.1464ZM50.8665 78.4956L50.8047 78.5261C50.0941 78.8799 47.9738 80.0249 47.4271 79.5852C47.44 82.2025 47.2302 84.8069 46.9228 87.403C47.0014 87.3858 47.0824 87.3878 47.1551 87.4144C48.6966 86.988 50.3715 84.0763 50.5008 82.5799C50.6062 81.2179 50.3355 79.7972 50.8665 78.4956ZM25.5224 38.3813L25.4439 38.2775C24.6093 37.1804 24.1411 36.7886 22.6979 37.374C22.8919 37.6138 22.9832 37.9352 22.9005 38.2681L22.895 38.2893C22.4397 40.1607 20.1041 41.2449 18.3946 40.2267C17.7974 40.382 17.1746 39.9531 17.1505 39.3452C15.4589 40.34 14.6773 42.1625 14.3601 43.993C15.4705 43.4091 16.9638 43.9664 17.407 45.1277C18.3784 47.2501 15.5475 49.4579 13.8211 47.6707C13.4471 51.2506 13.2715 54.8578 12.5901 58.4004C13.0951 57.5707 14.2991 57.3755 15.017 58.0582C17.3678 60.0853 14.664 64.6907 11.8223 62.4952C11.4779 64.4672 11.3564 66.4672 11.3725 68.4622C12.2831 68.1117 12.7816 69.6838 12.8476 70.3493C12.9301 71.1501 12.5162 72.8293 11.5461 72.9241L11.6259 74.2049C11.7615 76.4 11.8819 78.593 11.8518 80.7936C11.9005 80.8058 11.9421 80.828 11.9768 80.8568C11.9794 80.9203 11.9878 80.9839 11.9999 81.0468C12.0119 81.1091 12.0515 81.1422 12.0983 81.1526L12.0999 81.155C12.0978 81.199 12.0891 81.2432 12.0726 81.2848C13.853 82.0295 15.691 82.6443 17.5631 83.1284C17.5171 82.5059 17.5287 81.8852 17.5935 81.2702C16.8857 80.5979 17.7563 78.1572 17.8398 77.2086C18.1669 75.3079 18.4158 73.3954 18.6359 71.4802C17.9788 71.4241 17.6424 70.7388 17.4696 70.1811C17.2444 69.5671 17.1085 68.9114 17.2671 68.2657C17.428 67.497 18.2902 66.7624 19.1033 67.0331L19.1546 66.5182C19.4765 63.2565 19.7578 59.9895 20.2398 56.7459C18.6657 57.6233 17.1792 55.7154 17.5595 54.2345C17.6708 53.6058 18.054 52.9966 18.6195 52.67C19.1197 52.3829 20.1536 52.0984 20.4816 52.7302C20.6352 52.7498 20.7792 52.8247 20.8879 52.9352C21.228 51.1761 21.6416 49.4035 22.2998 47.7363C20.2194 46.4311 20.6086 43.1446 23.3466 43.1402C27.0388 43.4561 26.0566 48.8361 22.4955 47.8244C21.3769 54.5574 20.7323 61.3461 20.1603 68.1412C20.5908 68.8421 20.5226 69.8821 19.9318 70.472C19.6749 72.9302 19.3632 75.3832 18.9537 77.8215C21.6623 78.4246 24.4042 78.9233 27.1759 79.1531C27.3092 78.2968 28.2418 77.8399 29.0477 77.7711C29.5814 77.7139 30.1619 77.9161 30.6717 78.013C31.2877 78.2485 31.7917 78.7898 32.0167 79.3801C34.6041 79.3958 37.1932 79.2324 39.7565 78.8976C39.4976 77.6097 41.3743 76.628 42.517 76.8284C42.9743 76.8844 43.4204 77.0573 43.7631 77.3658C44.0978 77.4368 44.4124 77.7256 44.4954 78.0731C45.403 77.8575 46.3325 77.6933 47.2093 77.373C48.0697 77.0911 48.3508 76.3837 48.1279 75.5476C45.6947 76.521 43.6301 72.6592 45.9519 71.2623C46.2491 71.0425 46.8685 70.9004 47.0427 71.3159C47.0724 71.321 47.1018 71.3273 47.1312 71.3344C46.938 70.5397 46.7436 69.7453 46.5493 68.9509C45.4336 68.8445 45.0612 67.2098 45.9877 66.6355C45.6724 65.3177 45.3667 63.9973 45.0797 62.6732C43.5509 62.988 42.2836 61.0889 42.6071 59.7169L42.6174 59.6755C42.8001 58.9297 43.3558 58.1963 44.1766 58.0724C43.9827 56.9518 43.8094 55.8274 43.6635 54.6993C43.452 54.4745 43.3574 54.1393 43.4397 53.8427C43.4993 51.6742 43.0589 49.4414 43.2364 47.242C41.6141 49.2109 38.2337 47.8707 39.0058 45.2727C38.9607 42.8659 42.3867 42.0129 43.542 44.1406C43.6657 43.6867 43.8247 43.2352 43.9025 42.7672C43.9144 42.7135 43.9974 42.7243 44.0024 42.7747L44.0026 42.7805C44.1747 45.8583 44.048 48.9563 44.3788 52.0308C45.6151 52.0914 46.1201 55.0355 44.7771 55.2469C45.285 58.6697 46.0479 62.048 46.877 65.4103C48.3177 65.0409 48.8747 68.1327 47.6887 68.6527C48.0338 70.0195 48.3773 71.3863 48.7125 72.7554L48.719 72.7525C48.8932 72.4536 49.3574 72.4869 49.6558 72.5439C50.6417 72.9066 50.225 74.6881 49.1516 74.579C49.7371 76.3383 49.3659 77.9707 47.4124 78.5752L47.4135 78.6312C47.4739 78.584 47.5475 78.5457 47.6365 78.5207C48.8572 78.1786 49.9971 77.647 51.0489 76.9578C50.7395 71.8779 49.2665 66.9534 48.0747 62.0259C46.705 61.8079 46.2682 59.6173 47.3366 58.8106C46.5969 55.539 46.3839 52.1935 46.022 48.871C45.0354 48.6563 44.7862 47.0758 45.6769 46.5917C45.1125 42.4656 42.9874 38.9876 39.0223 37.2188C38.8937 37.8061 38.6804 38.3763 38.3949 38.91C38.4216 38.9115 38.4475 38.9148 38.4728 38.919C38.4794 38.9308 38.4874 38.9425 38.4983 38.9537C38.7131 39.173 38.8507 39.4198 38.938 39.684C38.9464 39.7408 38.9558 39.7975 38.9654 39.8542C38.9558 39.8774 38.9451 39.9003 38.9327 39.9228C39.3576 41.5351 37.3664 42.3592 36.022 41.9986C35.8136 41.9577 35.6774 41.8411 35.6047 41.6937C33.2244 42.9713 30.118 42.702 27.9737 41.0128C26.4152 41.8437 24.4086 39.9033 25.5224 38.3813ZM14.353 74.5293C16.6305 74.195 17.3754 77.8485 15.5399 78.8629C14.948 79.2137 14.1342 79.244 13.5515 78.8565C11.9999 77.9187 12.4314 74.722 14.353 74.5293ZM23.0221 72.3432C25.9206 72.3308 26.1686 76.7694 23.6403 77.5686C21.7602 78.1101 19.9185 76.031 20.8827 74.2974C20.9718 73.2189 21.9069 72.359 23.0221 72.3432ZM32.0538 72.746C32.2045 71.5995 33.4091 70.5041 34.6215 70.8197C35.7324 71.0991 36.0221 72.3914 36.219 73.3485C36.667 75.3301 34.4109 77.3393 32.5099 76.248C31.2957 75.525 31.1181 73.7555 32.0538 72.746ZM38.5274 66.0547C38.9337 65.4114 39.8438 65.128 40.5869 65.3522C42.6248 65.9993 42.3827 69.2479 40.7428 70.2162C37.9257 71.6823 35.679 67.4672 38.5274 66.0547ZM25.2543 67.9526C25.2067 66.0221 27.2099 64.2648 29.0916 65.3621C32.1373 67.3917 29.0182 72.0478 26.096 69.4382C25.5752 69.104 25.2675 68.5616 25.2543 67.9526ZM21.4653 63.027C20.0557 60.844 22.4766 57.6079 24.787 59.6995C25.5794 60.5082 25.544 61.9912 25.0853 62.9525C24.3391 64.2369 22.2668 64.267 21.4653 63.027ZM31.7009 58.9332C32.8009 57.8831 34.7231 57.8721 35.5589 59.2577C36.5497 60.967 35.3673 63.8913 33.134 63.7523C30.8135 63.5887 30.1778 60.3451 31.7009 58.9332ZM25.9373 55.5201C24.1721 53.7222 26.0887 50.8381 28.4826 51.5326C32.3951 52.9641 28.9996 58.3505 25.9373 55.5201ZM35.5729 55.1145C34.0007 52.2627 37.82 49.6986 39.7638 52.4435C41.2547 54.9295 37.2297 57.7994 35.5729 55.1145ZM30.4448 47.0021C29.0844 44.6252 31.4617 41.984 33.9595 43.379C37.5139 45.8335 32.9642 50.5539 30.4448 47.0021Z" fill="#111111"/>
<path fill-rule="evenodd" clip-rule="evenodd" d="M26.7305 31.2775C26.829 31.3117 26.9256 31.3552 27.0201 31.408L27.0694 30.8536L27.072 30.8249L27.0637 30.7974L26.745 29.7291L26.7152 29.629L26.6109 29.6223L26.6108 29.6223L26.6107 29.6223L26.6099 29.6222L26.6063 29.622L26.5914 29.6209C26.5781 29.6199 26.5584 29.6183 26.533 29.6161C26.4823 29.6116 26.4092 29.6044 26.3202 29.5937C26.1421 29.5723 25.9023 29.5368 25.6536 29.4809C25.4039 29.4247 25.1513 29.3491 24.9447 29.2495C24.7338 29.1478 24.595 29.0324 24.5377 28.9101C24.4673 28.7598 24.4131 28.5424 24.3732 28.291C24.3338 28.0422 24.3099 27.7703 24.2958 27.5171C24.2816 27.2642 24.2773 27.032 24.2765 26.8628C24.2761 26.7783 24.2766 26.7098 24.2772 26.6624L24.278 26.6081L24.2783 26.5941L24.2784 26.5907L24.2784 26.5899L24.2784 26.5897L24.2784 26.5897L24.2822 26.4436L24.1676 26.4376C24.1804 26.4132 24.2042 26.376 24.2483 26.324C24.3359 26.2207 24.4883 26.0768 24.7422 25.8803C25.2507 25.4868 25.7601 25.1689 26.1427 24.9493C26.3339 24.8396 26.493 24.7546 26.6041 24.6972C26.6597 24.6685 26.7031 24.6467 26.7326 24.6321L26.7659 24.6158L26.7742 24.6118L26.7762 24.6109L26.7767 24.6107L26.7767 24.6106L26.8535 24.4895L26.8617 24.4903L26.8531 24.5744L32.5146 15.6007C32.8254 15.5491 33.1515 15.5018 33.4887 15.4583C34.7063 15.3013 36.0559 15.1965 37.3152 15.1265C38.1507 15.0801 38.9457 15.0491 39.6352 15.0284L39.7913 14.7237C39.0629 14.7444 38.2046 14.7767 37.2986 14.827C36.0354 14.8971 34.6779 15.0025 33.4503 15.1608C33.2041 15.1925 32.9627 15.2264 32.7279 15.2627L34.5726 12.3387C34.5677 12.338 34.5628 12.3373 34.5578 12.3365L32.7001 15.267C31.7786 15.4105 30.9614 15.5905 30.3641 15.8174C29.5785 16.1158 28.9558 16.824 28.4633 17.687C27.9691 18.5531 27.5942 19.5958 27.3139 20.5962C27.0333 21.5978 26.8457 22.5631 26.7284 23.2776C26.6696 23.635 26.6284 23.93 26.6019 24.1359C26.5886 24.2389 26.5789 24.3196 26.5726 24.3747L26.5724 24.3767C26.5442 24.3908 26.5086 24.4089 26.4664 24.4307C26.3519 24.4898 26.1889 24.5769 25.9934 24.6891C25.6028 24.9133 25.0811 25.2387 24.5586 25.643C24.297 25.8454 24.1264 26.004 24.0195 26.13C23.9171 26.2507 23.8544 26.3631 23.8528 26.4706C23.8511 26.5862 23.9169 26.656 23.9768 26.6919C23.9764 26.7375 23.9762 26.7958 23.9765 26.8643C23.9773 27.0369 23.9817 27.2745 23.9962 27.5338C24.0107 27.7928 24.0353 28.0756 24.0769 28.338C24.1181 28.598 24.1775 28.8486 24.266 29.0374C24.3676 29.2542 24.5831 29.4082 24.8144 29.5197C25.05 29.6333 25.3273 29.7149 25.5878 29.7735C25.8493 29.8324 26.0998 29.8693 26.2844 29.8916C26.366 29.9014 26.435 29.9084 26.4869 29.9132L26.768 30.8556L26.7305 31.2775ZM32.4854 15.6056C32.4952 15.6039 32.5049 15.6023 32.5146 15.6007L32.7279 15.2627C32.7186 15.2642 32.7093 15.2656 32.7001 15.267L32.4854 15.6056ZM26.8634 24.4739L26.8638 24.47L26.8707 24.4088C26.8768 24.3551 26.8863 24.2758 26.8994 24.1743C26.9256 23.9713 26.9663 23.6797 27.0244 23.3262C27.1406 22.6188 27.326 21.6649 27.6028 20.6772C27.8798 19.6884 28.2467 18.6718 28.7239 17.8357C29.2027 16.9966 29.7808 16.3599 30.4707 16.0978C30.9858 15.9021 31.6834 15.7398 32.4854 15.6056L26.8634 24.4739ZM26.8634 24.4739L26.8622 24.4854L26.8618 24.4892L26.8617 24.4901L26.8617 24.4903L26.8535 24.4895L26.8634 24.4739ZM26.8535 24.4895L26.8535 24.4895L26.7125 24.4751L26.8535 24.4895Z" fill="#9DDADB"/>
<path fill-rule="evenodd" clip-rule="evenodd" d="M23.2516 14.7811C24.4828 13.4731 31.4722 11.4499 35.0084 11.8788L35.1145 11.8925C35.3967 11.9283 35.6748 11.9826 35.9492 12.0563C36.8364 12.2637 37.7528 12.5777 38.4859 13.1022C39.0978 13.5313 41.0283 14.2321 40.4594 15.3547C40.6703 15.7548 40.7491 16.2491 40.6065 16.6431C40.5885 16.7792 40.5466 16.9046 40.493 17.0346C40.9437 17.7003 41.3006 18.4533 41.5895 19.1694C42.0943 20.9716 42.4085 22.8472 42.4545 24.686C42.6075 28.1795 42.2248 32.3524 39.185 34.6115C37.3487 36.043 34.4722 36.091 32.4085 34.3162C32.2914 34.1775 31.7407 33.8031 31.9245 33.7374C31.9792 33.7953 32.0354 33.8515 32.0927 33.9068C32.0901 33.9007 32.0895 33.8945 32.0906 33.8879L32.0368 33.8391C31.9354 33.7452 31.804 33.609 31.9536 33.6356C31.9602 33.6433 31.9674 33.6499 31.9745 33.6576C32.0062 33.6766 32.0302 33.6931 32.0488 33.7077L32.0584 33.7154L32.0554 33.7123C31.9692 33.6203 31.9175 33.5264 32.0464 33.5864L32.0635 33.5947C32.1208 33.6551 32.179 33.7129 32.2383 33.7692C32.2373 33.7625 32.2383 33.7559 32.2419 33.7487L32.1866 33.6952C32.1327 33.6423 32.1409 33.6421 32.1673 33.5993C32.0526 33.4384 32.2667 33.5339 32.2818 33.5967C32.4158 33.565 32.5334 33.8168 32.6197 33.8475C36.4026 36.7585 41.8925 34.1755 41.8036 26.0638L41.8022 25.9051C41.7762 23.3113 41.5581 20.6454 40.4863 18.2974C40.3821 18.0713 40.2655 17.8512 40.1372 17.6384C40.0487 17.4787 39.9542 17.3232 39.8524 17.1717C39.5676 17.1487 39.2865 17.0965 39.0094 17.0156C38.9143 16.9916 38.8202 16.965 38.7262 16.9338C37.3521 17.0088 36.0085 17.0904 34.6306 17.1678L34.2001 17.1946C33.0328 17.2697 31.8256 17.39 30.8836 18.1127C29.9593 18.7707 29.9551 20.0681 29.1639 20.7904C28.0356 21.5569 28.0274 22.2481 27.8101 23.3776C27.8262 24.2291 28.4161 25.4662 27.3337 25.8245C27.5163 26.0851 27.2618 25.9599 27.2417 25.8685C27.2397 25.8691 27.2376 25.8696 27.2361 25.8696C27.3988 26.1723 27.1596 25.9817 27.1385 25.8844C27.1257 25.8808 27.1129 25.8716 27.1001 25.8588C27.2641 26.1241 26.999 25.9383 27.0147 25.89C26.6979 25.4026 26.0459 25.327 25.5863 25.4561C25.5807 25.4735 25.5603 25.475 25.5475 25.4658C23.5933 25.8897 24.0975 29.9391 26.1002 29.5477C26.1859 29.5302 26.1839 29.5713 26.2009 29.5753C26.1546 29.4537 26.285 29.5032 26.2836 29.5287L26.2916 29.5283C26.2979 29.5278 26.2953 29.5271 26.3 29.5287C26.2553 29.2801 26.507 29.6403 26.4871 29.6551C26.4948 29.6505 26.5035 29.6479 26.5112 29.6469L26.5025 29.6233C26.4607 29.5119 26.4643 29.5582 26.4646 29.4944C26.4332 29.4156 26.4309 29.4501 26.4383 29.3987C26.5486 29.3131 26.5812 29.5727 26.618 29.5917C26.5549 29.5036 26.605 29.4318 26.6646 29.4795C27.1156 30.4292 27.6982 31.3214 28.4512 32.0243C28.5336 32.0893 28.6169 32.1532 28.7032 32.2136C29.0235 32.4928 29.5148 32.6724 29.8146 32.9197C29.8146 32.9238 29.8126 32.929 29.8096 32.9341L29.8164 32.9403V32.9403L29.8234 32.9469L29.9277 32.997C29.9583 33.0231 29.9859 33.0523 30.0104 33.0845C30.0365 33.1147 30.0595 33.148 30.079 33.1833C30.0887 33.2263 30.0672 33.2442 30.0263 33.2257C30.0084 33.2196 29.9905 33.2124 29.9726 33.2058C29.9737 33.2073 29.9741 33.2083 29.9752 33.2094C29.9811 33.2183 30.0208 33.3104 29.975 33.2954L29.9696 33.2933C29.9445 33.2841 29.9195 33.2738 29.8949 33.2641C29.9241 33.3005 29.9506 33.3399 29.9741 33.3731C29.9992 33.3992 30.0145 33.4299 30.0207 33.4647C30.0196 33.4842 30.0089 33.4923 29.9895 33.4898C29.9599 33.4801 29.9307 33.4698 29.9015 33.4591L29.9098 33.4749C29.9305 33.5155 29.9598 33.5836 29.9077 33.5609C29.8632 33.5471 29.8203 33.5312 29.7774 33.5138C29.7737 33.521 29.7666 33.5236 29.7523 33.5169C29.6158 33.4683 29.4839 33.4089 29.3576 33.3388C29.2467 33.258 29.1347 33.1787 29.0233 33.0983C28.9185 33.0354 28.8172 32.9653 28.7207 32.8865C28.0742 32.4685 27.5082 31.9376 27.0592 31.3463C26.3083 31.9972 24.8069 31.3753 23.8782 30.8658C23.0567 30.4104 22.7338 29.5683 22.6503 28.6605C22.4768 27.4382 21.4789 27.0199 21.5483 24.3381C21.5468 24.3386 21.5452 24.3386 21.5431 24.3386C21.5068 24.3278 21.4716 24.3135 21.4384 24.2951C21.4041 24.2787 21.3719 24.2592 21.3417 24.2357L21.3044 24.184V24.184C21.285 24.1733 21.2676 24.162 21.2543 24.1508L21.2474 24.1597C21.2256 24.186 21.2403 24.1464 21.2416 24.1385L21.1767 24.0502C21.023 23.8402 20.8544 23.6045 20.717 23.416L20.7127 23.4236C20.7096 23.4294 20.7079 23.4336 20.7094 23.4354C20.3825 22.9653 20.075 22.3974 19.9896 21.8476C19.8887 21.4241 19.9281 20.9878 20.0161 20.5955C20.3933 19.2218 21.6291 16.1134 23.2516 14.7811ZM32.1238 33.7781L32.1033 33.7598L32.1213 33.7824C32.1307 33.7941 32.1404 33.8045 32.1561 33.8153C32.1551 33.8117 32.1551 33.8081 32.1556 33.804C32.1451 33.796 32.1345 33.7873 32.1238 33.7781ZM34.9929 12.569C32.5948 12.3626 30.2362 12.8914 27.9479 13.5315L27.7901 13.5769C26.4889 13.9485 25.1131 14.2829 24.0135 15.0784C22.4772 16.2562 21.6839 18.1298 20.9916 19.8597C20.3871 21.145 20.6961 22.5943 21.6071 23.4917C21.7019 22.5999 21.8635 21.7341 22.1161 20.8754C22.1688 20.7412 22.1289 20.6972 22.2425 20.6797C22.414 22.994 21.5691 24.7039 23.2412 27.4467C23.9668 28.7409 23.1269 29.6879 25.1758 30.3689L25.2313 30.3901C25.6582 30.5513 26.1243 30.6786 26.5424 30.5885L26.505 30.5275C26.4668 30.4647 26.4552 30.4342 26.5107 30.4073C26.5093 30.4043 26.5072 30.4012 26.5051 30.3976C26.4602 30.3127 26.4167 30.2267 26.3753 30.1397C26.3584 30.1453 26.3416 30.1494 26.3241 30.154C26.3354 30.175 26.3369 30.196 26.3053 30.2032C26.1926 30.2418 26.0769 30.2574 25.9585 30.2501L25.9331 30.2482C25.7993 30.24 25.715 30.2156 25.6396 30.1929C25.6146 30.1888 25.5896 30.1847 25.565 30.1796C25.3224 30.1258 25.0656 29.9889 24.8994 29.8532C23.005 28.7761 23.2008 25.1099 25.5359 24.7633C25.5838 22.4549 26.6807 18.5605 28.5012 16.3608C30.1467 14.3375 34.6389 13.4606 37.7643 13.7698C37.8099 13.7849 37.8554 13.8002 37.901 13.8156C38.3832 13.8584 38.8427 14.0735 39.3252 14.1733C38.9788 13.9134 38.5858 13.7403 38.1809 13.5932C37.3743 13.0994 36.4496 12.8322 35.5563 12.6437C35.3712 12.5982 35.1836 12.5731 34.9929 12.569ZM25.429 26.6177C25.5546 26.5494 25.5402 26.6153 25.5691 26.5962C26.4722 26.5224 27.446 27.3139 27.9509 27.9737C27.911 28.0151 27.8031 27.8923 27.7842 27.8729C27.7816 27.8754 27.7786 27.8775 27.7755 27.8785L27.7896 27.8984C27.9942 28.1923 27.5886 27.8464 27.5506 27.7751C27.5439 27.7787 27.5373 27.7808 27.5296 27.7792C27.5618 27.8108 27.66 27.8931 27.6768 27.9517L27.7029 27.9734C27.9484 28.1838 27.928 28.3421 27.6493 28.0433C27.6559 28.0571 27.6584 28.0699 27.6538 28.0801L27.6634 28.0865C27.8005 28.1824 27.9132 28.4496 27.6267 28.1753C27.6566 28.3757 27.3429 27.9884 27.3328 27.9911C26.79 27.5646 25.9908 27.1498 25.3099 27.0941L25.2865 27.0914C25.1615 27.0753 25.1025 27.0382 25.1463 26.9564C24.9924 26.9198 25.0285 26.8439 25.1013 26.8464C24.9928 26.775 25.0905 26.7067 25.1535 26.7333C25.1102 26.6133 25.2838 26.6933 25.2997 26.6765C25.3898 26.5374 25.4141 26.6534 25.429 26.6177ZM23.536 19.1802C23.9697 19.0211 25.251 19.4972 25.1485 20.1277C25.0875 20.2725 24.8863 20.3554 24.745 20.2737L24.5605 20.1497C24.2394 19.9345 23.9499 19.7457 23.6052 19.558C23.4176 19.4649 23.3368 19.267 23.536 19.1802ZM26.0039 18.2432L25.8363 18.134C24.9323 17.5418 23.6543 16.6445 25.9208 17.5729C26.1791 17.6838 26.5223 17.7494 26.6633 17.9956C26.8847 18.4494 26.302 18.4799 26.0039 18.2432ZM26.1055 15.586C26.0329 15.3104 26.9356 15.6338 27.1983 15.719L27.2384 15.7341C27.494 15.8295 27.787 15.9179 27.9399 16.1387C28.119 16.4438 27.7564 16.507 27.5319 16.3692C27.0714 16.068 26.5666 15.8407 26.1055 15.586ZM28.4008 14.3024C27.8928 13.747 29.2525 14.279 29.4562 14.4267L29.462 14.4311C29.614 14.5382 29.5832 14.7688 29.4404 14.8366C29.0341 14.8443 28.7352 14.5054 28.4008 14.3024ZM30.7129 13.6939C29.9051 13.1129 30.9691 13.3892 31.3387 13.6169C31.5906 13.8393 31.3311 14.2146 30.7129 13.6939Z" fill="#111111"/>
<path fill-rule="evenodd" clip-rule="evenodd" d="M37.6049 31.0171C37.2275 31.1262 36.8224 31.136 36.4378 31.0233C36.0888 30.921 35.7306 30.6959 35.4738 30.3981C35.2457 30.1335 35.0979 29.812 35.1037 29.4688C35.1044 29.4296 35.1184 29.3969 35.14 29.3715C35.1632 29.3441 35.1957 29.3253 35.2305 29.3172C35.2662 29.3088 35.304 29.3118 35.3362 29.3264C35.3654 29.3396 35.3903 29.3621 35.4059 29.3949C35.4454 29.4467 35.4847 29.4977 35.5242 29.5473C35.8415 29.9386 36.1488 30.2311 36.6259 30.336C36.8848 30.393 37.1434 30.3677 37.3806 30.2809C37.6346 30.1879 37.8641 30.0244 38.044 29.8152C38.1253 29.7207 38.2213 29.6821 38.3152 29.6814C38.4215 29.6807 38.5266 29.7301 38.6058 29.809C38.6837 29.8865 38.7358 29.9919 38.7405 30.1021C38.7447 30.1989 38.7131 30.3 38.629 30.3901C38.3521 30.6871 37.9932 30.9047 37.6049 31.0171ZM37.5933 26.1154C37.9801 26.3503 38.5696 26.898 38.1534 27.4802C37.6635 27.9936 36.9582 27.405 36.6107 27.1388C36.2884 26.9324 35.9263 27.4631 36.2253 27.704C38.7368 29.5612 39.756 26.1768 37.7889 25.8393C37.5723 25.8021 37.4919 26.0427 37.5933 26.1154ZM33.9744 25.0819C33.8501 25.0025 33.7038 24.9752 33.5417 25.0489C33.4151 25.1064 33.1929 25.2983 33.0383 25.5504C32.9325 25.7229 32.8575 25.9253 32.8731 26.1361C32.8767 26.185 32.8586 26.2211 32.83 26.2478C32.8075 26.2689 32.7749 26.2844 32.7366 26.2892C32.7041 26.2933 32.6677 26.2896 32.6382 26.2804C32.5819 26.2629 32.5521 26.2264 32.5409 26.1967C32.4327 25.9095 32.4793 25.589 32.6006 25.2999C32.7644 24.9097 33.0617 24.5829 33.2566 24.4775C33.5899 24.2972 33.9832 24.2889 34.3171 24.4726C34.6013 24.629 34.779 24.8815 34.9557 25.1389C34.9933 25.1936 35.0306 25.2479 35.0691 25.3013C35.1464 25.4082 35.1541 25.5142 35.1242 25.6052C35.091 25.7059 35.0065 25.7909 34.9009 25.8354C34.8032 25.8765 34.6899 25.8823 34.5896 25.8401C34.5049 25.8044 34.4271 25.7348 34.3779 25.6167C34.2951 25.4179 34.157 25.1986 33.9744 25.0819V25.0819ZM40.2893 25.5243C40.2042 25.5686 40.1375 25.5819 40.0431 25.5537C39.9909 25.538 39.9392 25.508 39.8988 25.4676C39.8587 25.4276 39.8298 25.3778 39.8186 25.3226C39.791 25.1864 39.7164 25.0589 39.61 24.9757C39.5191 24.9047 39.4044 24.867 39.2771 24.8883C39.1398 24.9112 39.009 24.9991 38.9189 25.1028C38.8888 25.1375 38.8652 25.177 38.8414 25.2161C38.797 25.2893 38.7539 25.3574 38.6926 25.4111C38.6694 25.4316 38.6345 25.4457 38.6006 25.4457C38.5868 25.4457 38.5729 25.4435 38.5595 25.4394C38.4229 25.3023 38.3966 25.1984 38.401 25.0953C38.4056 24.9872 38.4483 24.8777 38.5172 24.7756C38.679 24.536 38.9861 24.3396 39.1934 24.2951C39.4772 24.2342 39.7591 24.3073 39.9851 24.4657C40.2177 24.6286 40.39 24.8816 40.4437 25.1666C40.4566 25.2353 40.4511 25.3094 40.425 25.3736C40.3994 25.4364 40.3548 25.4902 40.2893 25.5243ZM34.6004 22.5277C34.4301 22.6934 34.2285 22.7191 34.0245 22.7419C33.9112 22.7547 33.8207 22.7651 33.7317 22.7851C33.487 22.8403 33.2451 22.9234 33.0245 23.0431C32.7938 23.1682 32.5424 23.319 32.3616 23.5123C32.3186 23.5583 32.278 23.6066 32.2374 23.6549C32.2004 23.699 32.1648 23.7415 32.1272 23.7824C32.084 23.8294 32.043 23.8787 32.0023 23.9279C31.9771 23.9694 31.9721 23.9796 31.967 23.9902C31.9594 24.0061 31.9505 24.024 31.9403 24.0431C31.9264 24.0694 31.9102 24.0981 31.8931 24.1241C31.8647 24.1717 31.8495 24.1848 31.8364 24.1907C31.8145 24.2004 31.7938 24.2052 31.7738 24.2026C31.7549 24.2002 31.7372 24.1912 31.7197 24.1764C31.6322 24.1026 31.6064 23.9814 31.6091 23.8529C31.6131 23.6578 31.6851 23.4418 31.7515 23.309C31.906 23.0004 32.1201 22.6797 32.3777 22.4494C32.6715 22.1866 32.993 21.9876 33.3623 21.8504C33.5917 21.7652 33.8574 21.687 34.1074 21.6968C34.2874 21.704 34.4592 21.7574 34.6011 21.8908C34.6882 21.9727 34.73 22.0892 34.73 22.2057C34.73 22.3244 34.6866 22.4438 34.6004 22.5277ZM40.6357 24.0456C40.6249 24.0633 40.6099 24.0756 40.5932 24.0829C40.5757 24.0906 40.5562 24.0928 40.5375 24.0897C40.5188 24.0865 40.5011 24.0781 40.487 24.0652C40.4735 24.0528 40.4633 24.0364 40.4587 24.0163C40.3456 23.5202 40.126 23.151 39.6573 22.913C39.4267 22.7959 39.1616 22.7215 38.9106 22.6622C38.8377 22.645 38.7606 22.6338 38.683 22.6225C38.4398 22.587 38.1948 22.5464 38.0362 22.35C37.9407 22.2317 37.9006 22.0804 37.9233 21.9421C37.9446 21.8118 38.0208 21.6924 38.1594 21.6208C38.5043 21.4427 38.9329 21.6174 39.2812 21.7663C39.307 21.7774 39.3324 21.7882 39.3572 21.7987C39.6978 21.9423 40.0085 22.1318 40.2638 22.4029C40.4664 22.618 40.6542 22.9359 40.7298 23.263C40.7927 23.5351 40.7779 23.8129 40.6357 24.0456Z" fill="#111111"/>
</g>
<defs>
<clipPath id="clip0_175_6635">
<rect width="224" height="168.4" fill="white"/>
</clipPath>
</defs>
</svg>
