<svg xmlns="http://www.w3.org/2000/svg">

<defs>
  <svg id="cake" width="26" height="29" viewBox="0 0 26 29" fill="none">

<path d="M12.27 11.7502H3.4C2.69381 11.7502 2.01871 12.0425 1.5226 12.5593C1.02682 13.0757 0.75 13.774 0.75 14.5002L0.75 17.4164L0.75 17.4165C0.750443 18.4815 1.08772 19.5171 1.71 20.3633V25.5C1.71 26.2262 1.98682 26.9245 2.4826 27.4409C2.97871 27.9577 3.65381 28.25 4.36 28.25H21.64C22.3462 28.25 23.0213 27.9577 23.5174 27.4409C24.0132 26.9245 24.29 26.2262 24.29 25.5V20.3633C24.9123 19.5171 25.2496 18.4815 25.25 17.4165V17.4164V14.5002C25.25 13.774 24.9732 13.0757 24.4774 12.5593C23.9813 12.0425 23.3062 11.7502 22.6 11.7502H13.73V10.1724C14.5079 10.0056 15.2119 9.57665 15.732 8.95114C16.299 8.26928 16.6099 7.39912 16.61 6.50028V6.50026C16.61 4.80694 15.8325 3.42066 15.055 2.45679C14.2771 1.49228 13.4831 0.930173 13.4091 0.878783L12.27 11.7502ZM12.27 11.7502V10.1724C11.4921 10.0056 10.7881 9.57665 10.268 8.95114C9.70101 8.26928 9.39009 7.39912 9.39 6.50028V6.50026C9.39 4.80694 10.1675 3.42066 10.945 2.45679C11.7232 1.49195 12.5175 0.92979 12.591 0.878731L12.27 11.7502ZM20.8078 22.25C21.5188 22.2279 22.2116 22.0299 22.83 21.676V25.5C22.83 25.8348 22.7022 26.1538 22.4779 26.3875C22.2539 26.6209 21.9522 26.75 21.64 26.75H4.36C4.04776 26.75 3.74614 26.6209 3.52211 26.3875C3.29775 26.1538 3.17 25.8348 3.17 25.5V21.675C3.78828 22.0292 4.48106 22.2275 5.19213 22.25L5.1933 22.25C6.05522 22.2731 6.90532 22.0432 7.64639 21.5875C8.25849 21.2111 8.77549 20.6935 9.15937 20.078C9.53071 20.6764 10.0283 21.1828 10.6173 21.5569C11.3343 22.0122 12.1587 22.2535 13 22.2535C13.8413 22.2535 14.6657 22.0122 15.3827 21.5569C15.9718 21.1828 16.4694 20.6764 16.8407 20.0778C17.2132 20.6746 17.7109 21.1794 18.2995 21.5527C19.0159 22.0069 19.8391 22.2485 20.6795 22.2501H20.68H20.8V22.2502L20.8078 22.25ZM20.7677 20.7489L20.7675 20.7489C20.3533 20.7611 19.9408 20.6867 19.5541 20.5298C19.1675 20.3728 18.8143 20.1365 18.5157 19.8341C18.2171 19.5317 17.9792 19.1694 17.8165 18.7684C17.6539 18.3673 17.57 17.9361 17.57 17.5001C17.57 17.3044 17.4955 17.1148 17.3598 16.9734C17.2237 16.8317 17.037 16.7501 16.84 16.7501C16.643 16.7501 16.4563 16.8317 16.3202 16.9734C16.1845 17.1148 16.11 17.3044 16.11 17.5001C16.11 18.3653 15.78 19.1931 15.1955 19.8018C14.6114 20.4103 13.8215 20.7501 13 20.7501C12.1785 20.7501 11.3886 20.4103 10.8045 19.8018C10.22 19.1931 9.89 18.3653 9.89 17.5001C9.89 17.3044 9.81547 17.1148 9.67976 16.9734C9.54372 16.8317 9.35698 16.7501 9.16 16.7501C8.96302 16.7501 8.77628 16.8317 8.64024 16.9734C8.50453 17.1148 8.43 17.3044 8.43 17.5001V17.5002C8.43017 17.9363 8.34636 18.3677 8.18378 18.7688C8.02121 19.17 7.78332 19.5324 7.48468 19.8349C7.18607 20.1374 6.83282 20.3739 6.44611 20.5309C6.05943 20.6879 5.64681 20.7624 5.23255 20.7502L5.23232 20.7502C3.58221 20.7032 2.21 19.2212 2.21 17.4176V14.5002C2.21 14.1654 2.33775 13.8464 2.56211 13.6126C2.78614 13.3793 3.08776 13.2502 3.4 13.2502H22.6C22.9122 13.2502 23.2139 13.3793 23.4379 13.6126C23.6622 13.8464 23.79 14.1654 23.79 14.5002V17.4164C23.79 19.2199 22.4178 20.702 20.7677 20.7489ZM10.85 6.50026C10.85 5.48044 11.2547 4.57525 11.7529 3.84851C12.1776 3.22875 12.6632 2.74942 12.9999 2.45392C13.3366 2.74994 13.8223 3.22959 14.2471 3.84944C14.7453 4.57623 15.15 5.48109 15.15 6.50026C15.15 7.10021 14.9211 7.67363 14.5167 8.09487C14.1126 8.51577 13.5668 8.75023 13 8.75023C12.4332 8.75023 11.8874 8.51577 11.4833 8.09487C11.0789 7.67363 10.85 7.10021 10.85 6.50026Z" fill="#FFBBF4" stroke="#FFBBF4" stroke-width="0.5"/>
  </svg>
  <svg id="location" width="20" height="25" viewBox="0 0 20 25" fill="none">
<path d="M10 1C7.61305 1 5.32387 1.92082 3.63604 3.55989C1.94821 5.19895 1 7.42201 1 9.74V10.3769C1.36437 15.1656 5.45749 19.0167 10 24C14.7429 18.7985 19 14.859 19 9.74C19 7.42201 18.0518 5.19895 16.364 3.55989C14.6761 1.92082 12.3869 1 10 1ZM10 5.54103C10.8566 5.54103 11.694 5.78779 12.4062 6.25009C13.1184 6.71238 13.6734 7.36944 14.0009 8.13813C14.3285 8.90681 14.4139 9.75257 14.2463 10.5684C14.0787 11.3842 13.6658 12.1335 13.0596 12.7213C12.4534 13.3091 11.6813 13.7091 10.841 13.8707C10.0007 14.0323 9.12987 13.9482 8.33878 13.629C7.54769 13.3098 6.87187 12.77 6.39682 12.0777C5.92176 11.3854 5.66884 10.5719 5.67004 9.74C5.67165 8.62582 6.12855 7.55781 6.9404 6.77052C7.75225 5.98323 8.85267 5.54102 10 5.54103Z" stroke="#FFBBF4" stroke-width="2" stroke-linecap="round" stroke-linejoin="bevel"/>
</svg>
<svg width="32" height="29" viewBox="0 0 32 29" fill="none" id="education">
<path d="M16.3479 0.839634L16.3481 0.839715L30.8643 8.8397C30.9822 8.90461 31.0797 9.0008 31.1472 9.11706C31.2147 9.23326 31.25 9.36558 31.25 9.49994C31.25 9.6343 31.2147 9.76662 31.1472 9.88283C31.0797 9.99909 30.9822 10.0953 30.8643 10.1602L27.3791 12.0814V18.2829V18.2837H27.1291C27.1317 18.6519 27.0024 19.0081 26.7662 19.2837C25.759 20.4331 24.5734 21.4009 23.2581 22.1475L16.3479 0.839634ZM16.3479 0.839634C16.2413 0.780957 16.1218 0.75 16 0.75C15.8782 0.75 15.7587 0.780957 15.6521 0.839633L15.6519 0.839715L1.13571 8.8397C1.01783 8.90461 0.920346 9.0008 0.852817 9.11706C0.78532 9.23326 0.75 9.36558 0.75 9.49994C0.75 9.6343 0.78532 9.76662 0.852817 9.88283C0.920346 9.99909 1.01783 10.0953 1.13571 10.1602L4.62086 12.0814V18.2853C4.61788 18.7126 4.76792 19.1272 5.04402 19.449L5.04504 19.4502C6.60532 21.246 10.0982 24.2525 16 24.2525C18.4018 24.2525 20.4028 23.7547 22.0404 23.0412V27.5C22.0404 27.6963 22.1158 27.8862 22.2525 28.0274C22.3894 28.1689 22.5769 28.25 22.7743 28.25C22.9716 28.25 23.1591 28.1689 23.2961 28.0274C23.4327 27.8862 23.5081 27.6963 23.5081 27.5V22.2921L16.3479 0.839634ZM5.95958 18.615L6.14849 18.4512C6.11041 18.4073 6.08838 18.3489 6.08861 18.2871V18.2862L6.08861 12.8894L15.6519 18.1602L15.6521 18.1603C15.7587 18.2189 15.8782 18.2499 16 18.2499C16.1218 18.2499 16.2413 18.2189 16.3479 18.1603L16.3481 18.1602L22.0404 15.0232V21.3875C20.4704 22.1697 18.4736 22.75 16 22.75C10.672 22.75 7.53937 20.0511 6.14825 18.4509L5.95958 18.615ZM5.95958 18.615C7.38096 20.25 10.577 23 16 23C18.5875 23 20.667 22.375 22.2904 21.5412L5.83861 18.2862C5.83817 18.4075 5.88127 18.5246 5.95958 18.615ZM16.3481 8.83975L16.3481 8.83971L16.3441 8.8376C16.1716 8.74656 15.9705 8.72893 15.785 8.78922C15.5996 8.84942 15.4471 8.98159 15.358 9.1544C15.2691 9.32699 15.2495 9.52788 15.3029 9.7145C15.3564 9.90126 15.4794 10.0613 15.6482 10.1581L15.6482 10.1581L15.6519 10.1601L21.712 13.5L16 16.6483L3.0299 9.49994L16 2.35162L28.9701 9.49993L23.2425 12.6563C23.2054 12.6249 23.1652 12.5971 23.1222 12.5734L16.3481 8.83975ZM25.9114 18.2859C25.9113 18.3485 25.8893 18.4077 25.8511 18.4529C25.1574 19.2449 24.37 19.9424 23.5081 20.5292V14.2139L25.9114 12.8894V18.2859Z" fill="#FFBBF4" stroke="#FFBBF4" stroke-width="0.5"/>
</svg>
<svg width="29" height="29" viewBox="0 0 29 29" fill="none" id="disability">
<path d="M28.2103 23.0825L28.2105 23.083C28.2425 23.1789 28.2552 23.2801 28.2481 23.3809C28.2409 23.4817 28.2139 23.58 28.1688 23.6704C28.1236 23.7608 28.061 23.8413 27.9846 23.9075C27.9083 23.9737 27.8197 24.0242 27.7238 24.0561C27.7238 24.0561 27.7238 24.0561 27.7238 24.0561L24.609 25.094C24.6086 25.0941 24.6083 25.0942 24.608 25.0944C24.5297 25.1209 24.4477 25.1345 24.365 25.1347H24.3648C24.2219 25.1348 24.0818 25.0951 23.9602 25.02C23.8385 24.9449 23.7402 24.8375 23.6762 24.7097L23.6762 24.7096L19.7341 16.8271H8.78209C8.57806 16.8271 8.38236 16.7461 8.23806 16.6018C8.09376 16.4576 8.01267 16.2619 8.01267 16.0579V11.8544C6.30394 12.2759 4.79288 13.2828 3.74584 14.7048C2.63795 16.2096 2.12854 18.072 2.31639 19.9308C2.50425 21.7897 3.37597 23.5126 4.76255 24.7655C6.14913 26.0184 7.95177 26.7119 9.82088 26.7116H9.82093C13.367 26.7116 16.5459 24.3259 17.387 21.058L17.3894 21.0485L17.3896 21.0486C17.4467 20.8579 17.5754 20.6969 17.7488 20.5992C17.9221 20.5014 18.1265 20.4747 18.3192 20.5244C18.5118 20.5742 18.6777 20.6966 18.782 20.8661C18.8863 21.0355 18.9209 21.2388 18.8784 21.4332L18.8765 21.4422L18.8763 21.4422C17.8594 25.3946 14.0475 28.25 9.82093 28.25H9.82067C7.55339 28.2476 5.36901 27.3974 3.69707 25.8666C2.02512 24.3357 0.986591 22.2349 0.785722 19.9773C0.584852 17.7197 1.23618 15.4687 2.61161 13.6669C3.94465 11.9206 5.86434 10.7188 8.01267 10.2801V8.44223C7.1254 8.26309 6.32592 7.77915 5.75537 7.0708C5.13921 6.30585 4.83577 5.33598 4.90613 4.35638C4.97649 3.37677 5.41542 2.46019 6.13457 1.79108C6.85371 1.12197 7.79968 0.75 8.78209 0.75C9.7645 0.75 10.7105 1.12197 11.4296 1.79108C12.1488 2.46019 12.5877 3.37677 12.658 4.35638C12.7284 5.33598 12.425 6.30585 11.8088 7.0708C11.2383 7.77915 10.4388 8.26309 9.55151 8.44223V10.0986C9.64171 10.0964 9.73024 10.0964 9.81527 10.0964H9.82093H17.0928C17.2968 10.0964 17.4925 10.1774 17.6368 10.3217C17.7811 10.4659 17.8622 10.6616 17.8622 10.8656C17.8622 11.0697 17.7811 11.2653 17.6368 11.4096C17.4925 11.5538 17.2968 11.6348 17.0928 11.6348H9.82093C9.73088 11.6348 9.64118 11.637 9.55151 11.6407V15.2886H20.2091H20.2093V15.5386L28.2103 23.0825ZM28.2103 23.0825C28.1454 22.8893 28.0064 22.7297 27.8239 22.6389M28.2103 23.0825L27.8239 22.6389M27.8239 22.6389C27.6415 22.5481 27.4305 22.5333 27.2372 22.5978M27.8239 22.6389L27.2372 22.5978M27.2372 22.5978L27.237 22.5979M27.2372 22.5978L27.237 22.5979M27.237 22.5979L24.7549 23.425L27.237 22.5979ZM6.43499 4.63493C6.43499 4.17093 6.57264 3.71735 6.83053 3.33153C7.08842 2.94572 7.45498 2.645 7.88386 2.46741C8.31275 2.28983 8.78469 2.24336 9.24 2.3339C9.69531 2.42443 10.1135 2.64789 10.4418 2.97601C10.77 3.30413 10.9935 3.72216 11.0841 4.17724C11.1746 4.63233 11.1282 5.10404 10.9505 5.53272C10.7729 5.96141 10.4721 6.32783 10.0861 6.58563C9.70012 6.84344 9.24632 6.98105 8.78209 6.98105C8.15957 6.98105 7.56257 6.73385 7.12241 6.29385C6.68225 5.85387 6.43499 5.25713 6.43499 4.63493Z" fill="#FFBBF4" stroke="#FFBBF4" stroke-width="0.5"/>
</svg>
<svg width="24" height="16" viewBox="0 0 24 16" fill="none" id="home">
<path d="M1.88885 1.11099V11.2221C1.88885 11.9883 2.19322 12.7231 2.73499 13.2649C3.27676 13.8066 4.01156 14.111 4.77774 14.111H19.2222C19.9884 14.111 20.7232 13.8066 21.2649 13.2649C21.8067 12.7231 22.1111 11.9883 22.1111 11.2221V1.11099" stroke="#FFBBF4" stroke-width="1.8" stroke-linecap="round" stroke-linejoin="round"/>
</svg>
<svg width="23" height="26" viewBox="0 0 23 26" fill="none" id="document">
<path d="M6.83311 10.3334H16.1664M6.83311 15H12.6664M1 10.3333C1 5.93383 1 3.7335 2.36733 2.36733C3.7335 1 5.93383 1 10.3333 1H12.6667C17.0662 1 19.2665 1 20.6327 2.36733C22 3.7335 22 5.93383 22 10.3333V15C22 19.3995 22 21.5998 20.6327 22.966C19.2665 24.3333 17.0662 24.3333 12.6667 24.3333H10.3333C5.93383 24.3333 3.7335 24.3333 2.36733 22.966C1 21.5998 1 19.3995 1 15V10.3333Z" stroke="#FFBBF4" stroke-width="2" stroke-linecap="round"/>
</svg>
<svg width="22" height="24" viewBox="0 0 22 24" fill="none" id="person">
<path d="M15.5829 5.99981L16.5802 6.07375L16.5802 6.07368L15.5829 5.99981ZM6.41658 5.99981L5.41922 6.07234L5.41922 6.07242L6.41658 5.99981ZM1.01888 21.5513L2.00299 21.7288L2.003 21.7288L1.01888 21.5513ZM20.9811 21.5513L21.9652 21.3738L21.9652 21.3737L20.9811 21.5513ZM14.5856 5.92587C14.4092 8.30523 12.6313 9.99961 10.9997 9.99961V11.9996C13.9513 11.9996 16.3483 9.20146 16.5802 6.07375L14.5856 5.92587ZM10.9997 9.99961C9.36712 9.99961 7.58704 8.3047 7.41394 5.92719L5.41922 6.07242C5.64715 9.20303 8.0492 11.9996 10.9997 11.9996V9.99961ZM7.41395 5.92727C7.24754 3.63907 8.82334 2 10.9997 2V0C7.65552 0 5.16898 2.6316 5.41922 6.07234L7.41395 5.92727ZM10.9997 2C13.1698 2 14.7517 3.6845 14.5856 5.92593L16.5802 6.07368C16.8308 2.69033 14.3503 0 10.9997 0V2ZM10.9997 13.3328C6.18474 13.3328 1.0028 16.0063 0.0347532 21.3738L2.003 21.7288C2.73697 17.6591 6.75259 15.3328 10.9997 15.3328V13.3328ZM0.0347617 21.3738C-0.0573931 21.8846 0.0311493 22.4365 0.339225 22.8866C0.662674 23.3592 1.19698 23.6658 1.83343 23.6658V21.6658C1.84118 21.6658 1.87255 21.6686 1.91222 21.6899C1.95051 21.7103 1.97591 21.7369 1.98966 21.757C2.01363 21.792 1.99254 21.7867 2.00299 21.7288L0.0347617 21.3738ZM1.83343 23.6658H20.1661V21.6658H1.83343V23.6658ZM20.1661 23.6658C20.8024 23.6658 21.3369 23.3595 21.6606 22.8868C21.9689 22.4366 22.0574 21.8846 21.9652 21.3738L19.997 21.7288C20.0075 21.7867 19.9864 21.7919 20.0104 21.7568C20.0242 21.7367 20.0496 21.7102 20.0878 21.6897C20.1274 21.6686 20.1586 21.6658 20.1661 21.6658V23.6658ZM21.9652 21.3737C20.9966 16.0063 15.8148 13.3328 10.9997 13.3328V15.3328C15.2469 15.3328 19.2626 17.6591 19.997 21.7289L21.9652 21.3737Z" fill="#FFBBF4"/>
</svg>
<svg width="18" height="22" viewBox="0 0 18 22" fill="none" id="search">
<path d="M18 19.349V7.513C18 6.93 17.7637 6.369 17.3362 5.962L11.9025 0.649C11.4862 0.231 10.9125 0 10.3163 0H2.25C1.0125 0 0.0112503 0.99 0.0112503 2.2L0 19.8C0 21.01 1.00125 22 2.23875 22H15.75C16.2562 22 16.7063 21.835 17.0888 21.56L12.105 16.687C11.1375 17.303 9.97875 17.655 8.73 17.589C6.06375 17.468 3.78 15.433 3.42 12.848C3.30119 11.9888 3.39125 11.1144 3.68286 10.2956C3.97448 9.47683 4.45943 8.73683 5.09836 8.13568C5.73729 7.53452 6.51219 7.08914 7.36016 6.8357C8.20813 6.58225 9.10526 6.52788 9.97875 6.677C12.1725 7.04 13.995 8.712 14.4788 10.835C14.85 12.441 14.49 13.937 13.6913 15.125L18 19.349ZM5.625 12.1C5.625 13.926 7.1325 15.4 9 15.4C10.8675 15.4 12.375 13.926 12.375 12.1C12.375 10.274 10.8675 8.8 9 8.8C7.1325 8.8 5.625 10.274 5.625 12.1Z" fill="#FFBBF4"/>
</svg>
<svg width="21" height="21" viewBox="0 0 21 21" fill="none" id="opinion">
<path fill-rule="evenodd" clip-rule="evenodd" d="M4.22709 8.75017C4.22709 8.75017 4.70104 8.686 5.38874 8.50167C7.20208 8.01576 10.5 6.69687 10.5 3.52474C10.5 3.06191 10.4092 2.6036 10.2329 2.17599C10.0565 1.74839 9.79801 1.35986 9.47214 1.03258C9.14626 0.705304 8.7594 0.445695 8.33362 0.268575C7.90785 0.0914543 7.45151 0.000291685 6.99065 0.000291685H3.55449C3.08988 -0.00571168 2.6287 0.0810086 2.19772 0.255421C1.76674 0.429833 1.37454 0.688464 1.04388 1.01631C0.713211 1.34415 0.450664 1.73468 0.271469 2.16524C0.0922744 2.59579 0 3.0578 0 3.52445C0 3.9911 0.0922744 4.45311 0.271469 4.88367C0.450664 5.31422 0.713211 5.70475 1.04388 6.03259C1.37454 6.36044 1.76674 6.61907 2.19772 6.79348C2.6287 6.96789 3.08988 7.05461 3.55449 7.04861H4.22709V8.75017ZM5.38874 5.88196H3.55449C3.24312 5.88688 2.93388 5.82953 2.64479 5.71327C2.3557 5.597 2.09253 5.42413 1.8706 5.20473C1.64868 4.98533 1.47243 4.72377 1.35213 4.4353C1.23183 4.14683 1.16987 3.8372 1.16987 3.52445C1.16987 3.2117 1.23183 2.90207 1.35213 2.6136C1.47243 2.32513 1.64868 2.06358 1.8706 1.84417C2.09253 1.62477 2.3557 1.4519 2.64479 1.33563C2.93388 1.21937 3.24312 1.16202 3.55449 1.16694H6.99065C7.29896 1.16694 7.60424 1.22793 7.88908 1.34642C8.17391 1.46491 8.43272 1.63858 8.65073 1.85753C8.86873 2.07647 9.04166 2.33639 9.15964 2.62245C9.27763 2.90851 9.33835 3.21511 9.33835 3.52474C9.33835 5.03147 8.28822 6.03479 6.85881 6.7272C6.38438 6.95358 5.89281 7.1418 5.38874 7.29011V5.88196ZM4.98216 15.1667C6.26578 15.1667 7.30546 14.1226 7.30546 12.8334C7.30546 11.5443 6.26578 10.5001 4.98216 10.5001C3.69854 10.5001 2.65886 11.5443 2.65886 12.8334C2.65886 14.1226 3.69854 15.1667 4.98216 15.1667ZM6.14381 12.8334C6.14381 13.1429 6.02142 13.4396 5.80357 13.6584C5.58572 13.8772 5.29025 14.0001 4.98216 14.0001C4.67407 14.0001 4.3786 13.8772 4.16075 13.6584C3.9429 13.4396 3.82051 13.1429 3.82051 12.8334C3.82051 12.524 3.9429 12.2273 4.16075 12.0085C4.3786 11.7897 4.67407 11.6668 4.98216 11.6668C5.29025 11.6668 5.58572 11.7897 5.80357 12.0085C6.02142 12.2273 6.14381 12.524 6.14381 12.8334ZM0.0451468 18.8224C0.0451468 17.167 3.33436 16.3334 4.98216 16.3334C6.62996 16.3334 9.91918 17.1676 9.91918 18.8224V21H0.0451468V18.8224ZM1.2068 19.8333V18.8224C1.2068 18.8166 1.2068 18.8049 1.2219 18.7758C1.24049 18.7396 1.28289 18.676 1.37466 18.5909C1.56575 18.413 1.88578 18.2187 2.32895 18.0396C3.21761 17.6809 4.30376 17.5 4.98216 17.5C5.65998 17.5 6.74729 17.6809 7.63537 18.0396C8.07796 18.2187 8.39857 18.413 8.58967 18.5909C8.68144 18.676 8.72384 18.7396 8.74242 18.7752C8.75753 18.8044 8.75752 18.8172 8.75752 18.8219V19.8333H1.2068ZM18.3411 12.8334C18.3411 14.1226 17.3015 15.1667 16.0178 15.1667C14.7342 15.1667 13.6945 14.1226 13.6945 12.8334C13.6945 11.5443 14.7342 10.5001 16.0178 10.5001C17.3015 10.5001 18.3411 11.5443 18.3411 12.8334ZM16.0178 14.0001C16.3259 14.0001 16.6214 13.8772 16.8393 13.6584C17.0571 13.4396 17.1795 13.1429 17.1795 12.8334C17.1795 12.524 17.0571 12.2273 16.8393 12.0085C16.6214 11.7897 16.3259 11.6668 16.0178 11.6668C15.7098 11.6668 15.4143 11.7897 15.1964 12.0085C14.9786 12.2273 14.8562 12.524 14.8562 12.8334C14.8562 13.1429 14.9786 13.4396 15.1964 13.6584C15.4143 13.8772 15.7098 14.0001 16.0178 14.0001ZM11.0808 18.8224C11.0808 17.167 14.37 16.3334 16.0178 16.3334C17.6656 16.3334 20.9549 17.1676 20.9549 18.8224V21H11.0808V18.8224ZM12.2425 19.8333V18.8224C12.2425 18.8166 12.2425 18.8049 12.2576 18.7758C12.2762 18.7396 12.3186 18.676 12.4098 18.5909C12.6014 18.413 12.922 18.2187 13.3646 18.0396C14.2533 17.6809 15.3394 17.5 16.0178 17.5C16.6957 17.5 17.783 17.6809 18.671 18.0396C19.1136 18.2187 19.4343 18.413 19.6259 18.5909C19.7171 18.676 19.7595 18.7396 19.7781 18.7752C19.7932 18.8044 19.7932 18.8172 19.7932 18.8219V19.8333H12.2425ZM16.0759 9.04533C16.7555 9.26 17.2376 9.33349 17.2376 9.33349V7.63194H17.4455C17.9101 7.63794 18.3713 7.55122 18.8023 7.37681C19.2333 7.20239 19.6255 6.94376 19.9561 6.61592C20.2868 6.28807 20.5493 5.89755 20.7285 5.46699C20.9077 5.03644 21 4.57443 21 4.10778C21 3.64112 20.9077 3.17912 20.7285 2.74856C20.5493 2.31801 20.2868 1.92748 19.9561 1.59963C19.6255 1.27179 19.2333 1.01316 18.8023 0.838746C18.3713 0.664334 17.9101 0.577614 17.4455 0.583617H15.171C14.2403 0.583617 13.3476 0.954942 12.6895 1.6159C12.0314 2.27687 11.6617 3.17333 11.6617 4.10807C11.6617 7.19736 14.4421 8.52967 16.0759 9.04533ZM17.4455 6.46528H16.0759V7.81452C15.7071 7.68223 15.3487 7.52234 15.0037 7.33619C13.7933 6.67645 12.8233 5.68655 12.8233 4.10748C12.8235 3.48226 13.0709 2.88269 13.5111 2.44065C13.9514 1.9986 14.5484 1.75027 15.171 1.75027H17.4455C17.7569 1.74535 18.0661 1.80269 18.3552 1.91896C18.6443 2.03523 18.9075 2.2081 19.1294 2.4275C19.3513 2.6469 19.5276 2.90845 19.6479 3.19693C19.7682 3.4854 19.8301 3.79502 19.8301 4.10778C19.8301 4.42053 19.7682 4.73015 19.6479 5.01863C19.5276 5.3071 19.3513 5.56865 19.1294 5.78805C18.9075 6.00746 18.6443 6.18032 18.3552 6.29659C18.0661 6.41286 17.7569 6.4702 17.4455 6.46528Z" fill="#FFBBF4"/>
</svg>
<svg width="25" height="23" viewBox="0 0 25 23" fill="none" id="health">
<path d="M18.8393 5.52556C18.8393 5.30274 18.7508 5.08906 18.5932 4.93151C18.4357 4.77395 18.222 4.68544 17.9992 4.68544C17.7763 4.68544 17.5627 4.77395 17.4051 4.93151C17.2476 5.08906 17.159 5.30274 17.159 5.52556V6.92575H15.7589C15.536 6.92575 15.3224 7.01426 15.1648 7.17182C15.0072 7.32937 14.9187 7.54305 14.9187 7.76587C14.9187 7.98868 15.0072 8.20237 15.1648 8.35992C15.3224 8.51747 15.536 8.60598 15.7589 8.60598H17.159V10.0062C17.159 10.229 17.2476 10.4427 17.4051 10.6002C17.5627 10.7578 17.7763 10.8463 17.9992 10.8463C18.222 10.8463 18.4357 10.7578 18.5932 10.6002C18.7508 10.4427 18.8393 10.229 18.8393 10.0062V8.60598H20.2395C20.4623 8.60598 20.676 8.51747 20.8335 8.35992C20.9911 8.20237 21.0796 7.98868 21.0796 7.76587C21.0796 7.54305 20.9911 7.32937 20.8335 7.17182C20.676 7.01426 20.4623 6.92575 20.2395 6.92575H18.8393V5.52556Z" fill="#FFBBF4"/>
<path fill-rule="evenodd" clip-rule="evenodd" d="M25 8.12205C25 4.39641 23.34 1.61619 20.7546 0.60469C18.3631 -0.33288 15.4921 0.368337 12.9584 2.73971C10.4246 0.368337 7.55361 -0.33288 5.16207 0.60469C2.57676 1.61619 0.916687 4.39642 0.916687 8.12093C0.916687 10.4945 2.18246 12.8289 3.75852 14.8385C5.35138 16.8693 7.35422 18.6874 9.02549 20.0439L9.17559 20.1671C10.5198 21.2592 11.4921 22.0489 12.9584 22.0489C14.4258 22.0489 15.3958 21.2592 16.7411 20.1671L16.8912 20.0439C18.5625 18.6885 20.5653 16.8693 22.1582 14.8385C23.7342 12.8289 25 10.4945 25 8.12205ZM13.5722 4.50283C15.938 1.9724 18.39 1.48289 20.143 2.16843C21.8994 2.8562 23.3198 4.868 23.3198 8.12205C23.3198 9.92662 22.3341 11.8903 20.8353 13.8012C19.3522 15.6943 17.4569 17.4216 15.8327 18.74C14.2723 20.0058 13.7682 20.3676 12.9584 20.3676C12.1485 20.3676 11.6444 20.0058 10.084 18.7389C8.45981 17.4216 6.56451 15.6932 5.08142 13.8024C3.58154 11.8903 2.59692 9.92662 2.59692 8.12205C2.59692 4.868 4.01728 2.85732 5.77368 2.16843C7.52672 1.48289 9.97874 1.9724 12.3445 4.50283C12.4231 4.58694 12.5182 4.65401 12.6237 4.69986C12.7293 4.74571 12.8432 4.76937 12.9584 4.76937C13.0735 4.76937 13.1874 4.74571 13.293 4.69986C13.3986 4.65401 13.4936 4.58694 13.5722 4.50283Z" fill="#FFBBF4"/>
</svg>
<svg width="21" height="21" viewBox="0 0 21 21" fill="none" id="culture">
<path d="M16.9167 10.5C16.4525 10.5 16.0074 10.3156 15.6792 9.98744C15.351 9.65925 15.1667 9.21413 15.1667 8.75C15.1667 8.28587 15.351 7.84075 15.6792 7.51256C16.0074 7.18437 16.4525 7 16.9167 7C17.3808 7 17.8259 7.18437 18.1541 7.51256C18.4823 7.84075 18.6667 8.28587 18.6667 8.75C18.6667 9.21413 18.4823 9.65925 18.1541 9.98744C17.8259 10.3156 17.3808 10.5 16.9167 10.5ZM13.4167 5.83333C12.9525 5.83333 12.5074 5.64896 12.1792 5.32077C11.851 4.99258 11.6667 4.54746 11.6667 4.08333C11.6667 3.6192 11.851 3.17408 12.1792 2.8459C12.5074 2.51771 12.9525 2.33333 13.4167 2.33333C13.8808 2.33333 14.3259 2.51771 14.6541 2.8459C14.9823 3.17408 15.1667 3.6192 15.1667 4.08333C15.1667 4.54746 14.9823 4.99258 14.6541 5.32077C14.3259 5.64896 13.8808 5.83333 13.4167 5.83333ZM7.58333 5.83333C7.1192 5.83333 6.67408 5.64896 6.3459 5.32077C6.01771 4.99258 5.83333 4.54746 5.83333 4.08333C5.83333 3.6192 6.01771 3.17408 6.3459 2.8459C6.67408 2.51771 7.1192 2.33333 7.58333 2.33333C8.04746 2.33333 8.49258 2.51771 8.82077 2.8459C9.14896 3.17408 9.33333 3.6192 9.33333 4.08333C9.33333 4.54746 9.14896 4.99258 8.82077 5.32077C8.49258 5.64896 8.04746 5.83333 7.58333 5.83333ZM4.08333 10.5C3.6192 10.5 3.17408 10.3156 2.8459 9.98744C2.51771 9.65925 2.33333 9.21413 2.33333 8.75C2.33333 8.28587 2.51771 7.84075 2.8459 7.51256C3.17408 7.18437 3.6192 7 4.08333 7C4.54746 7 4.99258 7.18437 5.32077 7.51256C5.64896 7.84075 5.83333 8.28587 5.83333 8.75C5.83333 9.21413 5.64896 9.65925 5.32077 9.98744C4.99258 10.3156 4.54746 10.5 4.08333 10.5ZM10.5 0C7.71523 0 5.04451 1.10625 3.07538 3.07538C1.10625 5.04451 0 7.71523 0 10.5C0 13.2848 1.10625 15.9555 3.07538 17.9246C5.04451 19.8938 7.71523 21 10.5 21C10.9641 21 11.4092 20.8156 11.7374 20.4874C12.0656 20.1592 12.25 19.7141 12.25 19.25C12.25 18.795 12.075 18.3867 11.795 18.0833C11.5267 17.7683 11.3517 17.36 11.3517 16.9167C11.3517 16.4525 11.536 16.0074 11.8642 15.6792C12.1924 15.351 12.6375 15.1667 13.1017 15.1667H15.1667C16.7138 15.1667 18.1975 14.5521 19.2915 13.4581C20.3854 12.3642 21 10.8804 21 9.33333C21 4.17667 16.2983 0 10.5 0Z" fill="#FFBBF4"/>
</svg>
<svg width="22" height="22" viewBox="0 0 22 22" fill="none" id="sports">
<path d="M11 0C4.9247 0 0 4.9247 0 11C0 17.0753 4.9247 22 11 22C17.0753 22 22 17.0753 22 11C22 4.9247 17.0753 0 11 0ZM8.8814 1.892C10.2753 1.56877 11.7247 1.56877 13.1186 1.892L11.0022 3.1603L8.8814 1.892ZM6.8684 2.6103L10.1772 4.5903V7.0026L7.1071 9.2334L4.8587 8.4557L4.213 4.5683C4.97548 3.76385 5.87452 3.10093 6.8684 2.6103ZM2.849 6.4185L3.2428 8.7912L1.672 10.362C1.76471 8.97606 2.16691 7.62853 2.849 6.4185ZM1.7842 12.5829L4.3439 10.0232L6.5879 10.7987L7.777 14.465L6.71 16.1975L3.0877 15.9841C2.4327 14.9475 1.99042 13.7916 1.7842 12.5829ZM4.5012 17.7199L6.5956 17.8431L7.3381 19.6053C6.28473 19.1557 5.3239 18.5167 4.5012 17.7199ZM9.3841 20.2103L8.0817 17.1204L9.141 15.3967H12.8502L13.8534 17.1358L12.7094 20.1938C11.6107 20.3967 10.4847 20.4023 9.3841 20.2103ZM14.6971 19.591L15.3208 17.9223L17.1578 18.0378C16.4233 18.6808 15.5926 19.2049 14.696 19.591H14.6971ZM18.5823 16.4736L15.2559 16.2646L14.2241 14.4782L15.4198 10.7987L17.6341 10.0331L20.1773 12.8051C19.9179 14.1291 19.3736 15.3809 18.5823 16.4736ZM20.3401 10.5435L18.7561 8.8165L19.1543 6.4207C19.8656 7.6837 20.2717 9.09557 20.3401 10.5435ZM17.7903 4.5705L17.1424 8.4579L14.8984 9.2334L11.8283 7.0026V4.5892L15.1305 2.6092C16.1263 3.10075 17.0268 3.76409 17.7903 4.5705ZM8.2148 10.4687L11.0033 8.4425L13.7918 10.4687L12.727 13.7467H9.2796L8.2148 10.4687Z" fill="#FFBBF4"/>
</svg>
<svg width="17" height="24" viewBox="0 0 17 24" fill="none" id="currency">
<path d="M6.10352e-05 20.0759H1.79206C1.30673 19.5906 0.886728 19.0026 0.532061 18.3119C0.177394 17.6213 6.10352e-05 16.8746 6.10352e-05 16.0719V5.45994C6.10352e-05 3.83594 0.802728 3.02394 2.40806 3.02394H4.14406V1.37194L7.25206 -6.10352e-05V3.02394H8.20406V1.37194L11.3121 -6.10352e-05V3.02394H13.0481C14.6534 3.02394 15.4561 3.83594 15.4561 5.45994V13.3279H16.3241V16.4359H12.3481V6.13194H11.3121V13.1319L8.20406 14.4759V6.13194H7.25206V13.1319L4.14406 14.4759V6.13194H3.10806V15.6799C3.10806 16.0906 3.24806 16.5573 3.52806 17.0799C3.80806 17.5839 4.18139 18.0599 4.64806 18.5079C5.11473 18.9559 5.65606 19.3293 6.27206 19.6279C6.90673 19.9266 7.57873 20.0759 8.28806 20.0759H14.3921V23.1559H6.10352e-05V20.0759Z" fill="#FFBBF4"/>
</svg>

<svg width="26" height="21" viewBox="0 0 26 21" fill="none" id="children">
<path d="M6.60617 0C7.3073 0 7.97971 0.276562 8.47548 0.768845C8.97124 1.26113 9.24977 1.92881 9.24977 2.625C9.24977 3.32119 8.97124 3.98887 8.47548 4.48116C7.97971 4.97344 7.3073 5.25 6.60617 5.25C5.90505 5.25 5.23264 4.97344 4.73687 4.48116C4.2411 3.98887 3.96258 3.32119 3.96258 2.625C3.96258 1.92881 4.2411 1.26113 4.73687 0.768845C5.23264 0.276562 5.90505 0 6.60617 0ZM3.63213 19.6875V16.4062H2.89688C2.44665 16.4062 2.12859 15.9674 2.26903 15.5408L3.55365 11.71L2.37229 13.2604C1.93032 13.8387 1.10007 13.9494 0.52178 13.5146C-0.0565057 13.0799 -0.172163 12.2555 0.265682 11.6771L2.69861 8.49023C3.62387 7.27617 5.07372 6.5625 6.60617 6.5625C8.13863 6.5625 9.58848 7.27617 10.5137 8.49023L12.9467 11.6771C13.3886 12.2555 13.273 13.0799 12.6906 13.5146C12.1081 13.9494 11.2779 13.8387 10.8401 13.2604L9.6587 11.71L10.9433 15.5408C11.0879 15.9674 10.7657 16.4062 10.3155 16.4062H9.58021V19.6875C9.58021 20.4135 8.98954 21 8.25842 21C7.5273 21 6.93662 20.4135 6.93662 19.6875V16.4062H6.27572V19.6875C6.27572 20.4135 5.68505 21 4.95393 21C4.22281 21 3.63213 20.4135 3.63213 19.6875ZM19.8241 0C20.5253 0 21.1977 0.276562 21.6934 0.768845C22.1892 1.26113 22.4677 1.92881 22.4677 2.625C22.4677 3.32119 22.1892 3.98887 21.6934 4.48116C21.1977 4.97344 20.5253 5.25 19.8241 5.25C19.123 5.25 18.4506 4.97344 17.9548 4.48116C17.4591 3.98887 17.1805 3.32119 17.1805 2.625C17.1805 1.92881 17.4591 1.26113 17.9548 0.768845C18.4506 0.276562 19.123 0 19.8241 0ZM19.4937 15.75V19.6875C19.4937 20.4135 18.903 21 18.1719 21C17.4408 21 16.8501 20.4135 16.8501 19.6875V12.3252L16.3172 13.166C15.929 13.7812 15.1111 13.9617 14.4956 13.5762C13.8802 13.1906 13.6943 12.3785 14.0826 11.7674L16.2181 8.4C16.9451 7.25566 18.2132 6.5584 19.5722 6.5584H20.0802C21.4433 6.5584 22.7114 7.25156 23.4343 8.4L25.5698 11.7715C25.9581 12.3867 25.7722 13.1947 25.1568 13.5803C24.5413 13.9658 23.7234 13.7813 23.3352 13.1701L22.7982 12.3252V19.6875C22.7982 20.4135 22.2075 21 21.4764 21C20.7453 21 20.1546 20.4135 20.1546 19.6875V15.75H19.4937Z" fill="#FFBBF4"/>
</svg>
<svg width="26" height="21" viewBox="0 0 26 21" fill="none" id="community">
<path d="M5.46872 8.52671C5.89766 8.3599 6.11017 7.87695 5.94336 7.44801C5.77655 7.01906 5.2936 6.80656 4.86466 6.97336L5.46872 8.52671ZM0.83953 12.8988C0.783601 13.3556 1.10859 13.7713 1.56542 13.8272C2.02225 13.8831 2.43792 13.5581 2.49384 13.1013L0.83953 12.8988ZM21.8021 6.97336C21.3731 6.80656 20.8902 7.01906 20.7233 7.44801C20.5565 7.87695 20.769 8.3599 21.198 8.52671L21.8021 6.97336ZM24.1729 13.1013C24.2288 13.5581 24.6445 13.8831 25.1013 13.8272C25.5581 13.7713 25.8831 13.3556 25.8272 12.8988L24.1729 13.1013ZM10.0302 6.94029C9.58301 6.83156 9.13234 7.10596 9.02361 7.55317C8.91488 8.00038 9.18928 8.45105 9.63648 8.55978L10.0302 6.94029ZM17.0302 8.55978C17.4774 8.45105 17.7518 8.00038 17.6431 7.55317C17.5344 7.10596 17.0837 6.83156 16.6365 6.94029L17.0302 8.55978ZM11.1465 17.3204C11.5996 17.2395 11.9013 16.8066 11.8204 16.3535C11.7395 15.9005 11.3066 15.5988 10.8535 15.6797L11.1465 17.3204ZM6.71173 19.7298C6.56247 20.1651 6.79439 20.6391 7.22975 20.7883C7.66511 20.9376 8.13904 20.7057 8.28831 20.2703L6.71173 19.7298ZM15.8132 15.6797C15.3601 15.5988 14.9272 15.9005 14.8463 16.3535C14.7654 16.8066 15.0671 17.2395 15.5202 17.3204L15.8132 15.6797ZM18.3784 20.2703C18.5277 20.7057 19.0016 20.9376 19.437 20.7883C19.8723 20.6391 20.1042 20.1651 19.955 19.7298L18.3784 20.2703ZM5.16669 7.75004C4.86466 6.97336 4.86422 6.97353 4.86377 6.97371C4.8636 6.97377 4.86314 6.97396 4.86281 6.97408C4.86214 6.97434 4.86143 6.97462 4.86068 6.97492C4.85916 6.97552 4.85747 6.97619 4.85558 6.97694C4.85182 6.97844 4.84732 6.98026 4.84212 6.98239C4.8317 6.98666 4.81843 6.99221 4.80249 6.99909C4.77061 7.01286 4.72797 7.032 4.67596 7.05698C4.57203 7.10691 4.4302 7.18041 4.26185 7.28126C3.92566 7.48267 3.47991 7.79546 3.01872 8.25074C2.08811 9.16941 1.11485 10.65 0.83953 12.8988L2.49384 13.1013C2.71844 11.2668 3.49518 10.1223 4.18959 9.43684C4.54091 9.09003 4.87643 8.85595 5.11838 8.711C5.2391 8.63868 5.33555 8.58913 5.39764 8.5593C5.42865 8.54441 5.45095 8.5345 5.46326 8.52918C5.46941 8.52652 5.47305 8.52502 5.47402 8.52462C5.4745 8.52443 5.47431 8.5245 5.47344 8.52485C5.473 8.52503 5.47239 8.52527 5.4716 8.52558C5.47121 8.52574 5.47077 8.52591 5.47029 8.5261C5.47005 8.52619 5.46966 8.52634 5.46954 8.52639C5.46913 8.52655 5.46872 8.52671 5.16669 7.75004ZM21.5 7.75004C21.198 8.52671 21.1976 8.52655 21.1972 8.52639C21.197 8.52634 21.1967 8.52619 21.1964 8.5261C21.1959 8.52591 21.1955 8.52574 21.1951 8.52558C21.1943 8.52527 21.1937 8.52503 21.1933 8.52485C21.1924 8.52451 21.1922 8.52443 21.1927 8.52462C21.1937 8.52502 21.1973 8.52652 21.2035 8.52918C21.2158 8.5345 21.2381 8.54441 21.2691 8.5593C21.3312 8.58913 21.4276 8.63868 21.5483 8.711C21.7903 8.85595 22.1258 9.09003 22.4771 9.43684C23.1715 10.1223 23.9483 11.2668 24.1729 13.1013L25.8272 12.8988C25.5519 10.65 24.5786 9.16941 23.648 8.25074C23.1868 7.79546 22.741 7.48267 22.4049 7.28126C22.2365 7.18041 22.0947 7.10691 21.9907 7.05698C21.9387 7.032 21.8961 7.01286 21.8642 6.99909C21.8483 6.99221 21.835 6.98666 21.8246 6.98239C21.8194 6.98026 21.8149 6.97844 21.8111 6.97694C21.8092 6.97619 21.8075 6.97552 21.806 6.97492C21.8053 6.97462 21.8046 6.97434 21.8039 6.97408C21.8036 6.97396 21.8031 6.97377 21.8029 6.97371C21.8025 6.97353 21.8021 6.97336 21.5 7.75004ZM9.83335 7.75004C9.63648 8.55978 9.63606 8.55968 9.63565 8.55958C9.63553 8.55955 9.63513 8.55945 9.63488 8.55939C9.63439 8.55927 9.63394 8.55916 9.63353 8.55906C9.63271 8.55885 9.63205 8.55869 9.63155 8.55856C9.63055 8.55831 9.63019 8.55821 9.63045 8.55828C9.63098 8.55842 9.63398 8.55921 9.63932 8.56071C9.65001 8.56372 9.66998 8.56955 9.69808 8.57866C9.75439 8.59692 9.84268 8.6281 9.954 8.67573C10.1775 8.77134 10.4881 8.93077 10.8182 9.18042C11.4679 9.67172 12.2135 10.5253 12.5171 12.0013L14.1496 11.6654C13.7532 9.73884 12.7488 8.55077 11.8235 7.85105C11.3661 7.50519 10.933 7.28177 10.6096 7.14341C10.4475 7.07405 10.3115 7.02547 10.212 6.9932C10.1622 6.97705 10.1213 6.96494 10.0906 6.95631C10.0753 6.952 10.0625 6.94855 10.0524 6.9459C10.0473 6.94458 10.0429 6.94346 10.0392 6.94252C10.0374 6.94206 10.0357 6.94164 10.0342 6.94127C10.0334 6.94108 10.0327 6.94091 10.0321 6.94075C10.0317 6.94066 10.0313 6.94055 10.0311 6.94051C10.0307 6.9404 10.0302 6.94029 9.83335 7.75004ZM16.8334 7.75004C16.6365 6.94029 16.636 6.9404 16.6356 6.94051C16.6354 6.94055 16.635 6.94066 16.6346 6.94075C16.634 6.94091 16.6333 6.94108 16.6325 6.94127C16.631 6.94164 16.6293 6.94206 16.6275 6.94252C16.6238 6.94346 16.6194 6.94458 16.6143 6.9459C16.6042 6.94855 16.5914 6.952 16.5761 6.95631C16.5454 6.96494 16.5045 6.97705 16.4547 6.9932C16.3552 7.02547 16.2192 7.07405 16.0571 7.14341C15.7337 7.28177 15.3006 7.50519 14.8432 7.85105C13.9179 8.55077 12.9135 9.73884 12.5171 11.6654L14.1496 12.0013C14.4532 10.5253 15.1988 9.67172 15.8485 9.18042C16.1786 8.93077 16.4892 8.77134 16.7127 8.67573C16.824 8.6281 16.9123 8.59692 16.9686 8.57866C16.9967 8.56955 17.0167 8.56372 17.0274 8.56071C17.0327 8.55921 17.0357 8.55842 17.0363 8.55828C17.0365 8.55821 17.0362 8.55831 17.0352 8.55856C17.0347 8.55869 17.034 8.55885 17.0332 8.55906C17.0328 8.55916 17.0323 8.55927 17.0318 8.55939C17.0316 8.55945 17.0312 8.55955 17.0311 8.55958C17.0306 8.55968 17.0302 8.55978 16.8334 7.75004ZM11 16.5C10.8535 15.6797 10.8531 15.6798 10.8526 15.6798C10.8524 15.6799 10.8519 15.68 10.8516 15.68C10.8509 15.6802 10.8502 15.6803 10.8494 15.6804C10.8479 15.6807 10.8462 15.681 10.8444 15.6814C10.8407 15.682 10.8365 15.6829 10.8316 15.6838C10.8219 15.6857 10.8098 15.6882 10.7954 15.6913C10.7667 15.6976 10.7289 15.7064 10.6831 15.7183C10.5914 15.7421 10.467 15.7786 10.3178 15.8325C10.0198 15.94 9.61952 16.1184 9.18388 16.4067C8.30335 16.9894 7.30248 18.0067 6.71173 19.7298L8.28831 20.2703C8.74756 18.9308 9.49669 18.1982 10.1037 17.7965C10.4118 17.5926 10.6896 17.4702 10.8838 17.4C10.9807 17.3651 11.0559 17.3434 11.1023 17.3314C11.1255 17.3253 11.1414 17.3217 11.1491 17.3201C11.1529 17.3192 11.1547 17.3189 11.1543 17.3189C11.1541 17.319 11.1534 17.3191 11.1521 17.3194C11.1514 17.3195 11.1507 17.3196 11.1497 17.3198C11.1493 17.3199 11.1488 17.32 11.1482 17.3201C11.148 17.3201 11.1475 17.3202 11.1474 17.3202C11.147 17.3203 11.1465 17.3204 11 16.5ZM15.6667 16.5C15.5202 17.3204 15.5197 17.3203 15.5193 17.3202C15.5192 17.3202 15.5187 17.3201 15.5185 17.3201C15.5179 17.32 15.5174 17.3199 15.517 17.3198C15.5161 17.3196 15.5153 17.3195 15.5146 17.3194C15.5133 17.3191 15.5126 17.319 15.5124 17.3189C15.512 17.3189 15.5138 17.3192 15.5176 17.3201C15.5253 17.3217 15.5412 17.3253 15.5644 17.3314C15.6108 17.3434 15.686 17.3651 15.7829 17.4C15.9771 17.4702 16.2549 17.5926 16.563 17.7965C17.17 18.1982 17.9192 18.9308 18.3784 20.2703L19.955 19.7298C19.3642 18.0067 18.3634 16.9894 17.4828 16.4067C17.0472 16.1184 16.6469 15.94 16.3489 15.8325C16.1997 15.7786 16.0753 15.7421 15.9836 15.7183C15.9378 15.7064 15.9 15.6976 15.8713 15.6913C15.8569 15.6882 15.8448 15.6857 15.8351 15.6838C15.8302 15.6829 15.826 15.682 15.8223 15.6814C15.8205 15.681 15.8188 15.6807 15.8173 15.6804C15.8165 15.6803 15.8158 15.6802 15.8151 15.68C15.8148 15.68 15.8143 15.6799 15.8141 15.6798C15.8136 15.6798 15.8132 15.6797 15.6667 16.5ZM15.4167 14.75C15.4167 15.9006 14.4839 16.8333 13.3334 16.8333V18.5C15.4044 18.5 17.0834 16.821 17.0834 14.75H15.4167ZM13.3334 16.8333C12.1828 16.8333 11.25 15.9006 11.25 14.75H9.58335C9.58335 16.821 11.2623 18.5 13.3334 18.5V16.8333ZM11.25 14.75C11.25 13.5994 12.1827 12.6667 13.3334 12.6667V11C11.2623 11 9.58335 12.6789 9.58335 14.75H11.25ZM13.3334 12.6667C14.484 12.6667 15.4167 13.5994 15.4167 14.75H17.0834C17.0834 12.6789 15.4044 11 13.3334 11V12.6667ZM21.8334 4.83331C21.8334 6.30607 20.6394 7.49998 19.1667 7.49998V9.16665C21.5599 9.16665 23.5 7.22655 23.5 4.83331H21.8334ZM19.1667 7.49998C17.6939 7.49998 16.5 6.30607 16.5 4.83331H14.8334C14.8334 7.22655 16.7735 9.16665 19.1667 9.16665V7.49998ZM16.5 4.83331C16.5 3.36055 17.6939 2.16665 19.1667 2.16665V0.49998C16.7735 0.49998 14.8334 2.44008 14.8334 4.83331H16.5ZM19.1667 2.16665C20.6394 2.16665 21.8334 3.36055 21.8334 4.83331H23.5C23.5 2.44008 21.5599 0.49998 19.1667 0.49998V2.16665ZM10.1668 4.83331C10.1668 6.30607 8.97289 7.49998 7.50013 7.49998V9.16665C9.89337 9.16665 11.8335 7.22655 11.8335 4.83331H10.1668ZM7.50013 7.49998C6.02738 7.49998 4.83347 6.30607 4.83347 4.83331H3.1668C3.1668 7.22655 5.1069 9.16665 7.50013 9.16665V7.49998ZM4.83347 4.83331C4.83347 3.36055 6.02738 2.16665 7.50013 2.16665V0.49998C5.1069 0.49998 3.1668 2.44008 3.1668 4.83331H4.83347ZM7.50013 2.16665C8.97289 2.16665 10.1668 3.36055 10.1668 4.83331H11.8335C11.8335 2.44008 9.89337 0.49998 7.50013 0.49998V2.16665Z" fill="#FFBBF4"/>
</svg>









</defs>
</svg>
