<svg width="135" height="176" viewBox="0 0 135 176" fill="none" xmlns="http://www.w3.org/2000/svg">
<path fill-rule="evenodd" clip-rule="evenodd" d="M133.372 98.0917L133.082 99.6995C133.013 99.722 132.943 99.741 132.872 99.7566C132.781 100.715 132.674 101.675 132.553 102.635L130.757 112.605C130.447 114.369 130.152 116.136 129.86 117.905L129.473 119.804L129.234 120.984C128.716 123.541 128.214 126.089 127.773 128.622C127.839 128.718 127.891 128.821 127.929 128.93L127.895 129.073L127.871 129.168L127.847 129.262C127.499 130.594 126.893 131.886 125.466 132.277C124.39 132.573 123.209 132.6 122.097 132.716L121.974 132.73L102.525 134.907C100.175 135.17 97.8259 135.441 95.4771 135.715L93.441 135.953C90.603 136.28 87.7487 136.538 84.9526 137.13C84.8498 137.152 84.7647 137.192 84.6953 137.246C85.2584 135.124 85.7974 133.005 86.2858 130.862C86.8357 128.449 87.3575 126.032 87.9456 123.628C89.1304 118.786 90.4585 113.975 91.9124 109.205C92.2175 108.204 92.5297 107.205 92.8487 106.209L93.0725 105.512L93.2448 104.957C93.5114 104.11 93.8413 103.24 94.623 102.773C95.5379 102.227 96.7855 102.136 97.8231 101.947L98.5257 101.816C99.577 101.62 100.63 101.433 101.684 101.252C106.729 100.388 111.804 99.695 116.897 99.1743C122.197 98.6325 127.515 98.2804 132.839 98.1083L133.372 98.0917ZM85.0982 131.333L85.1479 131.338L84.4214 137.119C84.3053 137.038 84.1578 136.989 83.9778 136.989C81.5948 136.996 79.3105 136.238 77.101 135.404L76.7645 135.277L75.8265 134.918C74.8729 134.554 73.9143 134.198 72.9378 133.903L72.543 133.785L72.3424 133.726C71.603 133.511 70.8253 133.316 70.0562 133.267L69.9514 133.261L70.1754 133.144C70.2081 133.127 70.2368 133.108 70.2623 133.087C70.6856 133.119 71.1098 133.11 71.5563 133.03C72.396 132.879 73.2126 132.589 73.9624 132.184L74.2972 132.003L74.4343 131.931L74.5249 131.884L74.615 131.838C75.2589 131.519 75.8747 131.319 76.6878 131.489C77.6108 131.682 78.4197 132.178 79.2517 132.596L79.3994 132.669L79.4986 132.717L79.5999 132.764L79.7023 132.811C80.8275 133.315 82.6181 133.859 83.0496 132.336C83.2229 131.724 83.0872 131.151 82.7864 130.649C83.3469 130.6 84.3481 131.258 85.0982 131.333ZM113.106 112.284L113.12 112.353C113.279 113.206 112.88 114.021 112.276 114.616C111.781 115.104 110.904 115.375 110.656 116.076C110.515 116.476 110.665 116.854 110.955 117.118L110.888 117.151L110.823 117.184L110.759 117.218L110.697 117.252L110.636 117.286C109.65 117.85 108.847 118.768 109.736 119.876C110.746 121.133 112.854 121.174 114.34 121.075L114.44 121.068C115.881 120.961 117.587 120.479 118.369 119.155C118.727 118.547 118.688 117.812 118.188 117.292C117.887 116.979 117.349 116.657 116.856 116.618C116.878 116.342 116.845 116.075 116.747 115.85C116.536 115.362 115.974 115.034 115.432 115.023C115.475 113.988 114.643 112.967 114.031 112.14L113.968 112.056L113.907 111.972C113.626 111.583 113.025 111.801 113.106 112.284ZM113.928 113.385L114.487 115.467L114.477 115.484C114.28 115.855 114.796 116.277 115.102 115.965L115.132 115.932C115.495 115.559 116.052 116.06 116.059 116.458C116.069 117.017 115.703 117.449 115.268 117.734L115.237 117.754L115.157 117.804C114.8 118.039 115.07 118.531 115.463 118.471C115.949 118.397 116.348 118.013 116.593 117.533C116.856 117.608 117.155 117.599 117.431 117.753C118.128 118.141 117.727 118.819 117.273 119.229L117.255 119.246L117.218 119.278C116.386 119.984 115.253 120.23 114.185 120.283L114.123 120.285C113.045 120.331 111.639 120.347 110.715 119.715C110.139 119.322 109.972 118.764 110.459 118.236C110.735 117.938 111.013 117.637 111.299 117.346C111.727 117.55 112.11 117.467 112.548 117.274C112.604 117.25 112.573 117.164 112.518 117.164C112.276 117.164 111.39 116.717 111.346 116.432C111.307 116.168 111.797 115.945 112.036 115.817L112.07 115.798L112.1 115.781C112.35 115.63 112.585 115.455 112.8 115.258C113.345 114.759 113.74 114.133 113.913 113.447L113.928 113.385Z" fill="white"/>
<path fill-rule="evenodd" clip-rule="evenodd" d="M61.7028 73.4979C62.1921 72.2737 63.8461 72.7496 63.6617 74.0357C63.5513 74.8061 63.1275 75.6197 62.7469 76.2949C62.4369 76.8445 62.0833 77.3808 61.604 77.7928C62.4573 78.5854 63.3431 79.3491 64.2513 80.0742C65.2423 80.8654 66.2845 81.5946 67.3616 82.2649C68.3062 82.8527 69.2934 83.3735 70.1838 84.0442C71.0116 84.6677 71.7658 85.4176 72.1496 86.3966C72.5584 87.4391 72.3807 88.5157 72.0797 89.5575L72.0451 89.6752C71.7376 90.7074 71.2051 91.9515 71.9434 92.924C72.3192 93.419 72.8656 93.7696 73.3374 94.1654C73.7566 94.5171 74.1502 94.8997 74.5112 95.3106C75.2982 96.2063 75.9383 97.2142 76.3423 98.3372L76.3784 98.4393C76.7246 99.4334 76.9777 100.651 76.5098 101.627C76.3756 101.907 75.9427 101.816 75.8675 101.544C75.6975 100.927 75.7064 100.28 75.5639 99.6543C75.4156 99.0034 75.1688 98.3855 74.8465 97.8009C74.2229 96.6699 73.3783 95.7039 72.3805 94.8872L72.0818 94.6453C71.3034 94.0093 70.5882 93.3346 70.4302 92.2821C70.2612 91.1559 70.7144 90.0832 71.0058 89.0173C71.2088 88.2745 71.2751 87.5624 71.0557 86.8912C70.7876 87.3269 70.4218 87.7404 70.1325 88.1093C69.5562 88.8441 68.9746 89.5746 68.3944 90.3063C67.7996 91.0567 67.2194 91.8189 66.667 92.6009C66.4198 92.9507 66.1754 93.3026 65.9317 93.6548C65.7485 93.9196 65.4929 94.1841 65.2932 94.4541C65.3417 94.5985 65.3381 94.765 65.2501 94.8833C64.1909 96.308 62.684 93.3352 62.291 92.5841C61.4907 91.0545 60.8951 89.4296 60.0922 87.9003C59.2602 86.3151 58.3127 84.772 57.2568 83.3248C56.618 82.4494 55.9021 81.6271 55.3178 80.7239C53.9413 81.9666 52.1299 82.7996 50.4661 83.5551C48.638 84.385 46.7389 85.0629 44.8646 85.7829L44.311 85.9969C41.0815 87.2517 37.7732 88.6302 35.0889 90.859C31.9347 93.4781 30.0686 97.1285 28.6794 100.909C27.0802 105.26 25.7571 109.73 24.5238 114.196C23.8927 116.481 23.2938 118.777 22.7309 121.08C22.2348 123.109 21.8236 125.158 21.2493 127.166C22.414 127.125 23.7423 127.574 24.7367 127.703C29.2685 128.294 33.7394 129.235 38.018 130.865C38.5465 131.067 38.6994 131.592 38.5843 132.018C38.8891 131.932 39.1936 131.846 39.4984 131.76C39.1645 131.251 39.3239 130.34 39.3501 129.776L39.3517 129.737C39.3787 128.985 39.4607 128.231 39.5139 127.48C39.6151 126.049 39.7469 124.628 39.9221 123.205L39.9668 122.849C40.1654 121.3 40.3122 119.743 40.5289 118.197L40.5545 118.02C40.4506 117.624 40.3296 117.234 40.2027 116.845C39.8643 115.808 39.3868 114.833 38.9683 113.83C38.9189 113.711 39.088 113.644 39.167 113.714C39.8757 114.349 40.4387 115.154 40.891 115.997C40.8988 115.957 40.9057 115.917 40.9139 115.877L40.9655 115.625C41.0928 115.008 41.2476 114.359 41.6276 113.859C41.6681 113.805 41.7481 113.794 41.7864 113.859C42.1501 114.471 42.1908 115.247 42.2468 115.945C42.3101 116.733 42.318 117.532 42.3068 118.323C42.285 119.869 42.1756 121.419 42.0884 122.962C42.0029 124.478 41.8349 125.975 41.6185 127.477L41.5773 127.758C41.4715 128.473 41.3849 129.197 41.2453 129.906L41.2059 130.1C41.1313 130.452 41.0854 130.948 40.9369 131.36C44.7582 130.299 48.5855 129.262 52.42 128.243C55.1914 127.507 57.9657 126.782 60.7389 126.052C60.8852 125.789 61.0674 125.544 61.2948 125.325C62.044 124.602 63.0369 124.28 63.9476 124.836C64.0216 124.882 64.0278 124.997 63.9476 125.041C63.7731 125.136 63.5983 125.233 63.4266 125.335L65.0917 124.886C66.3364 124.55 67.5958 124.13 68.8697 123.896C71.2161 122.743 73.7397 121.909 76.2114 121.084L76.5027 120.986C77.7682 120.557 79.0773 120.076 80.3848 119.837C81.3421 119.663 82.4657 119.874 82.8507 120.85C83.338 121.17 83.7965 121.545 84.239 121.915C84.5588 122.182 84.8655 122.466 85.1773 122.742L85.2348 122.793C85.4897 123.013 85.6916 123.16 85.7542 123.511C85.7865 123.692 85.671 123.937 85.4467 123.913C84.7604 123.839 84.2024 123.048 83.737 122.575C83.3774 122.209 83.015 121.831 82.6868 121.429C82.4955 121.533 82.2332 121.514 82.1115 121.285C81.48 120.094 79.7501 120.919 78.793 121.202L77.4219 121.606C76.7364 121.808 76.0511 122.011 75.367 122.218C73.4869 122.787 71.616 123.423 69.7188 123.945C69.8886 124.13 69.8652 124.461 69.5427 124.587C68.0577 125.167 66.4285 125.467 64.8857 125.865C63.9116 126.116 62.9381 126.369 61.9649 126.624C61.7981 126.893 61.678 127.197 61.6275 127.552C61.4418 128.855 61.8 130.359 62.1489 131.619L62.2014 131.807C62.4882 132.82 62.9102 134.062 63.7883 134.702C64.0027 134.858 64.2756 134.967 64.5508 134.992C66.2698 134.111 67.9887 133.23 69.7087 132.351C70.0273 132.188 70.3217 132.408 70.3932 132.67C70.9997 132.571 71.6047 132.415 72.1558 132.229C73.0818 131.916 73.8049 131.319 74.673 130.906C76.3527 130.107 78.068 131.088 79.5719 131.834L79.9185 132.004C80.5929 132.33 81.996 132.955 82.3196 132.064C82.6326 131.203 81.6431 130.281 81.004 129.893C80.2422 129.431 79.3552 129.183 78.4942 128.977C78.0026 128.859 77.505 128.763 77.0044 128.693C76.4366 128.613 75.8501 128.625 75.3034 128.442C75.0317 128.351 74.99 127.922 75.3034 127.851C76.145 127.66 77.1495 127.868 78.0277 128.08L78.4867 128.193C79.3715 128.409 80.2649 128.681 81.0709 129.112C81.6569 129.425 82.2755 129.902 82.6795 130.485C83.0304 130.161 83.4672 130.172 83.9221 130.292L84.169 130.36C84.5768 130.473 84.9073 130.55 85.304 130.472C85.3571 130.185 85.4108 129.897 85.4684 129.61C86.0338 126.784 86.6538 123.969 87.338 121.169C88.5181 116.339 89.8837 111.563 91.4232 106.835L91.5777 106.362C91.9328 105.281 92.2185 104.103 92.791 103.109C93.3324 102.17 94.1998 101.629 95.2304 101.342C96.3999 101.017 97.6289 100.847 98.8219 100.627C99.0881 100.578 99.3549 100.532 99.6213 100.484C99.3962 100.079 99.2282 99.6198 99.0768 99.2673L99.0503 99.2062C98.7251 98.4682 98.433 97.7168 98.1509 96.9614L97.94 96.3936C97.4307 95.0261 96.905 93.6811 96.1889 92.4021C95.4352 91.0561 94.4353 89.9557 93.1888 89.0449C90.6475 87.1878 87.5843 86.2405 85.1194 84.2559C85.0184 84.1746 85.1479 84.0355 85.2504 84.087C86.9148 84.9196 88.7115 85.4857 90.4427 86.1635L90.7842 86.2977C92.1524 86.8377 93.542 87.4255 94.7263 88.2998C96.0467 89.2748 97.0866 90.4856 97.8683 91.9254C98.6386 93.3446 99.1313 94.9332 99.6748 96.4491L99.8202 96.853C100.039 97.4587 100.266 98.0626 100.525 98.652C100.731 99.12 101.116 99.6542 101.29 100.189C101.768 100.106 102.246 100.023 102.725 99.9439C113.088 98.2213 123.567 97.2091 134.069 96.9131C134.48 96.9015 134.692 97.2918 134.632 97.6486C133.624 103.582 132.728 109.536 131.746 115.474C131.317 118.065 130.879 120.655 130.431 123.243C130.205 124.554 129.942 125.861 129.727 127.174C129.554 128.235 129.428 129.303 129.13 130.339C128.863 131.268 128.453 132.164 127.78 132.873C127.055 133.637 126.042 134.006 125.023 134.181C122.435 134.625 119.78 134.806 117.172 135.101L103.282 136.674C103.485 138.511 103.5 140.319 103.407 142.177L103.354 143.192C103.311 144.008 103.259 144.825 103.141 145.632C102.993 146.645 102.528 147.503 101.842 148.259C101.213 148.954 100.448 149.547 99.7042 150.115C98.9321 150.705 98.1342 151.274 97.2263 151.639L97.1085 151.686C96.312 151.995 94.8179 152.475 93.7292 152.3C93.8715 153.009 94.1469 153.773 93.9027 154.475C93.7895 154.801 93.3611 154.964 93.0986 154.686C92.5787 154.136 92.5381 153.41 92.4149 152.692C92.2868 151.946 92.1763 151.196 92.0782 150.445C91.8884 148.993 91.7407 147.527 91.6956 146.062C91.6492 144.558 91.6671 143.052 91.7485 141.549C91.7904 140.777 91.8423 140.006 91.9406 139.24C91.9826 138.913 92.0255 138.585 92.0745 138.259C92.0924 138.14 92.1122 138.022 92.1336 137.904L90.8869 138.044C88.9753 138.256 87.0628 138.448 85.1377 138.478C84.9098 138.481 84.7344 138.378 84.6197 138.228C84.4976 138.426 84.285 138.567 83.9804 138.566C81.292 138.556 78.7885 137.681 76.3433 136.65C75.1108 136.129 73.8974 135.566 72.6631 135.051C71.511 134.57 70.2793 134.226 69.1549 133.684L66.2005 135.227C66.1788 135.303 66.151 135.375 66.1215 135.435C65.9292 135.825 65.5499 136.038 65.1625 136.197C64.7908 136.351 64.4057 136.399 64.0306 136.36C61.79 137.529 59.5488 138.697 57.3062 139.862L55.063 141.026C50.5937 143.343 46.1422 145.697 41.6448 147.96L41.3137 148.126C39.7603 148.901 38.0923 149.687 36.3684 150.274C36.3377 150.708 36.3571 151.131 36.3936 151.59L36.4024 151.691C36.4538 152.234 36.564 152.915 36.1262 153.302C35.8984 153.503 35.4916 153.504 35.3367 153.2C35.0557 152.65 35.308 151.783 35.3971 151.185C35.4286 150.973 35.4672 150.754 35.5241 150.543C33.5478 151.128 31.5117 151.412 29.5006 151.083C27.5425 150.763 26.0259 149.535 24.8033 148.033C23.5131 146.448 22.5962 144.601 22.1042 142.62C21.5444 140.367 21.5078 138.04 21.521 135.732C21.5349 133.274 21.6263 130.804 21.9265 128.362C21.5975 128.285 21.2327 128.219 20.9002 128.242C20.7355 128.504 20.4161 128.614 20.1275 128.58C19.4998 129.269 21.0919 129.974 21.6007 130.15C21.7773 130.211 21.7584 130.497 21.5546 130.488L21.4263 130.482C20.6401 130.441 19.8279 130.307 19.3657 129.58C18.9953 128.997 19.1066 128.306 19.5481 127.831C19.8398 125.085 20.537 122.412 21.1859 119.734C21.8226 117.106 22.5308 114.494 23.2814 111.895L23.6179 110.732C24.7997 106.658 26.035 102.551 27.6652 98.6384C28.4792 96.6848 29.4169 94.7672 30.6881 93.0638C31.873 91.4759 33.2719 90.1171 34.8799 88.9567C37.8775 86.793 41.395 85.4857 44.851 84.2402L45.0057 84.1845C46.7967 83.5395 48.5833 82.8868 50.3539 82.188C51.9198 81.5699 53.4199 80.7864 54.9784 80.1591C54.9278 80.0676 54.8789 79.975 54.8319 79.8815L54.8031 79.9056C54.7981 79.9095 54.7931 79.9133 54.7878 79.9168C54.6311 80.025 54.4004 79.9718 54.2712 79.8505C53.9065 79.5079 54.03 79.1276 54.2734 78.7723L54.3051 78.7271C54.6029 78.3118 54.8684 77.8728 55.1432 77.4425L55.3153 77.1734C55.7766 76.4545 56.2613 75.7308 56.8763 75.1367C57.1612 74.8614 57.473 74.6554 57.8034 74.5019C57.7751 74.4425 58.0228 74.3209 58.093 74.3821C59.1398 74.0007 60.344 74.0806 61.4852 74.1857M102.61 136.75L101.155 136.915C99.5537 137.096 97.952 137.272 96.3501 137.445L92.8707 137.822C92.8618 138.019 92.8377 138.212 92.8333 138.362C92.8106 139.13 92.7937 139.9 92.7776 140.669C92.7455 142.21 92.7808 143.754 92.8827 145.292C92.9815 146.783 93.1116 148.274 93.3139 149.755L93.3553 150.051L93.3793 150.207C93.5443 150.223 93.7064 150.301 93.8412 150.461C94.1355 150.811 95.2011 150.471 95.6173 150.323C96.3017 150.081 96.9462 149.671 97.5409 149.26C98.1217 148.859 98.6446 148.392 99.1472 147.899L99.5583 147.494C99.9673 147.089 100.377 146.658 100.627 146.149C100.967 145.459 101.011 144.612 101.111 143.86C101.233 142.936 101.38 142.011 101.534 141.091M60.3631 127.044L60.2122 127.084C54.7287 128.534 49.2535 130.028 43.7532 131.414C41.0313 132.101 38.2964 132.737 35.5711 133.41L35.1299 133.52C32.9799 134.061 30.8042 134.712 29.1578 136.264C29.097 136.322 29.0088 136.234 29.066 136.173C30.8404 134.293 33.364 133.496 35.787 132.806C36.2349 132.679 36.6834 132.554 37.1314 132.427C33.8361 131.258 30.4888 130.24 27.0642 129.515C26.1824 129.328 25.2903 129.191 24.4091 129.003C23.7946 128.872 23.1945 128.683 22.5865 128.526L22.1082 128.406L22.1019 129.911C22.0939 132.042 22.0977 134.172 22.2069 136.303L22.2276 136.698C22.355 139.069 22.554 141.49 23.3993 143.727C24.0863 145.544 25.1812 147.256 26.6131 148.579C27.3376 149.249 28.1166 149.77 29.0795 150.028C29.9735 150.267 30.9102 150.295 31.8293 150.231C36.2378 149.925 40.162 147.54 43.9915 145.566C50.2551 142.338 56.5195 139.111 62.7895 135.894C62.62 135.779 62.4604 135.646 62.3152 135.497C61.4744 134.632 61.0309 133.449 60.7396 132.302C60.4295 131.083 60.2441 129.775 60.2225 128.516M68.3411 137.141C68.3964 137.111 68.4606 137.148 68.4631 137.21C68.4825 137.687 68.2178 138.157 68.0201 138.587L67.9992 138.633C67.759 139.165 67.4959 139.69 67.2239 140.206C66.6802 141.238 66.1151 142.26 65.5254 143.266C64.3395 145.292 63.0216 147.232 61.4639 148.995C61.1121 149.394 60.5334 148.883 60.7592 148.454C61.8478 146.386 63.1169 144.434 64.4232 142.499C65.0772 141.53 65.7307 140.56 66.3911 139.595C66.6666 139.193 66.9456 138.792 67.2322 138.397L67.4051 138.16M133.375 98.0973C127.872 98.2628 122.376 98.62 116.9 99.18C111.807 99.7006 106.732 100.394 101.686 101.258C100.632 101.438 99.5798 101.626 98.5285 101.821L97.8979 101.939C96.8465 102.138 95.562 102.22 94.6258 102.779C93.6388 103.368 93.3721 104.6 93.0437 105.617C92.6576 106.811 92.2813 108.01 91.9152 109.211C90.4613 113.98 89.1331 118.791 87.9484 123.634C87.3603 126.038 86.8385 128.455 86.2886 130.867C85.8001 133.011 85.2612 135.13 84.6981 137.252C84.7675 137.198 84.8526 137.157 84.9553 137.135C87.7515 136.543 90.6058 136.286 93.4438 135.959L93.7184 135.927C96.6542 135.583 99.5901 135.242 102.528 134.913L121.977 132.735C123.124 132.607 124.353 132.59 125.469 132.283C127.367 131.762 127.812 129.649 128.13 127.967L128.14 127.916C129.1 122.833 129.864 117.706 130.759 112.611M85.1507 131.343C84.3956 131.294 83.3621 130.605 82.7892 130.654C83.0899 131.157 83.2257 131.73 83.0523 132.342C82.57 134.045 80.3885 133.164 79.3378 132.643C78.4762 132.217 77.6443 131.694 76.6905 131.495C75.61 131.268 74.878 131.696 73.9651 132.189C73.2154 132.594 72.3988 132.885 71.5591 133.036C71.1126 133.116 70.6884 133.124 70.2651 133.093C70.2396 133.114 70.2109 133.133 70.1781 133.15L69.9542 133.267C70.9668 133.313 71.9982 133.624 72.9406 133.909C73.9171 134.204 74.8757 134.56 75.8292 134.923L76.7673 135.282C79.0812 136.165 81.4764 137.002 83.9805 136.995C84.1605 136.994 84.308 137.044 84.4242 137.125M80.926 126.008C81.6719 125.917 82.3605 126.014 82.9566 126.498C83.6755 127.081 84.1584 128.047 85.1919 128.111C85.4932 128.129 85.5632 128.551 85.2637 128.639C84.4944 128.866 83.8716 128.452 83.3475 127.914L82.9951 127.547C82.4772 127.013 81.9995 126.601 81.1206 126.632C80.1794 126.667 79.2366 126.883 78.3015 126.993C77.2422 127.118 76.1831 127.224 75.1204 127.316C75.0711 127.32 75.0627 127.243 75.1089 127.232L76.2991 126.937M80.2058 122.971L80.3288 122.959C81.4121 122.854 82.4027 122.85 83.3702 123.431L83.5557 123.542C84.428 124.07 85.3774 124.692 85.9228 125.546C86.0121 125.686 85.8646 125.851 85.7153 125.815C84.6669 125.565 83.9005 124.799 83.0189 124.226C82.0295 123.583 81.0075 123.689 79.8793 123.789C78.787 123.885 77.6953 124.018 76.6138 124.2C75.5975 124.37 74.578 124.639 73.5514 124.724L73.5516 124.722C73.4344 124.722 73.3675 124.547 73.4871 124.487C74.5288 123.969 75.7354 123.724 76.8686 123.487M43.1128 93.6457C43.1114 93.5604 43.2319 93.5285 43.274 93.6023C43.9788 94.8369 44.3472 96.3501 44.7227 97.7103C45.1159 99.135 45.4334 100.574 45.7186 102.024C46.2962 104.96 46.604 107.879 46.6249 110.871C46.6278 111.298 45.9287 111.412 45.8603 110.974C45.4063 108.063 44.9713 105.15 44.5139 102.24C44.2837 100.777 44.0158 99.3189 43.7595 97.8599M50.0904 95.796C50.0385 95.6258 50.2873 95.5688 50.351 95.7245C51.7655 99.1812 52.2445 103.099 51.3364 106.746C51.1974 107.303 50.3767 107.062 50.4815 106.511M68.3355 92.7245C68.3283 92.597 68.4945 92.5769 68.5571 92.6647C69.2273 93.6048 69.5054 94.8639 70.6813 95.3498C71.2683 95.5924 71.929 95.5501 72.4477 95.9599C72.7944 96.2339 73.0604 96.6665 72.8001 97.0815C72.7161 97.2156 72.4811 97.2828 72.3672 97.1371C72.2009 96.9248 72.1129 96.6706 71.887 96.5115C71.5684 96.2871 71.1387 96.2732 70.7734 96.1677C70.3008 96.0313 69.8843 95.7926 69.5432 95.438M79.5325 77.0436C79.6016 77.0086 79.6679 77.031 79.7121 77.0905C79.7751 77.1752 79.7674 77.2576 79.6901 77.3157C79.7933 77.5257 79.9152 78.0517 79.9327 78.1283C80.0032 78.4388 80.0783 78.7474 80.1568 79.0557C80.3153 79.6777 80.4541 80.3044 80.6127 80.9265C80.7808 81.586 80.9811 82.2384 81.204 82.8815C81.2184 82.9231 81.2342 82.9656 81.2508 83.0087L81.2762 83.0739L81.2824 83.064C81.3278 82.9927 81.4221 83.0425 81.4109 83.1179C81.4005 83.1865 81.3866 83.2548 81.3748 83.3235L81.3982 83.385C81.544 83.7757 81.6438 84.1872 81.3763 84.5319C81.2762 84.6609 81.1661 84.7372 81.0289 84.76C80.8088 85.4821 80.5328 86.1908 80.2372 86.8714L80.1506 87.0701C79.7158 88.0632 79.2521 89.0433 78.5599 89.8888C77.8041 90.8118 76.7646 91.4421 76.1062 92.4536C75.7999 92.924 75.5868 93.4187 75.4138 93.9501L75.3488 94.1517C75.226 94.5276 75.0843 94.8918 74.7302 95.1123C74.6172 95.1825 74.448 95.1601 74.3569 95.0643C73.6307 94.2995 74.3909 92.8716 74.8287 92.1312C75.4374 91.1016 76.3183 90.4429 77.2003 89.6661C78.1511 88.8288 78.7576 87.7088 79.3442 86.6054C79.7035 85.9294 80.0504 85.2388 80.4156 84.5598C80.034 84.2241 79.9119 83.5572 79.7826 83.0936L79.7709 83.0521C79.5572 82.3097 79.3874 81.5481 79.2802 80.7831C79.177 80.0476 79.1339 79.3227 79.1612 78.583L79.1691 78.3946M80.9513 80.5443C80.867 80.4293 81.0065 80.2989 81.1222 80.3229C81.8254 80.4677 82.5129 80.8915 83.1441 81.2342L83.2115 81.2706C83.7153 81.541 84.2222 81.8724 84.4868 82.3979C84.7745 82.969 84.7508 83.6268 84.7115 84.2474L84.7078 84.3055C84.6597 85.0498 84.652 85.8231 84.4938 86.554C84.4128 86.928 84.0725 87.0334 83.7816 86.945C83.4354 88.0333 82.4629 88.8351 81.7526 89.6939C80.8469 90.7887 81.0173 92.2668 81.112 93.5854C81.1503 94.1193 80.4833 94.271 80.1398 93.9862L79.3481 93.3315C79.2163 93.2223 79.0846 93.1128 78.9533 93.0029C78.8408 92.9086 78.7294 92.8137 78.6188 92.7176L78.4537 92.5724C78.3805 92.5072 78.0575 92.148 77.9631 92.1331C77.7343 92.0969 77.1908 92.6971 77.0048 92.8853L76.9812 92.9088C76.6311 93.2506 76.3148 93.6183 76.0202 94.0083C75.966 94.08 75.86 94.0205 75.8988 93.9377C76.1628 93.3747 76.4697 92.8364 76.8342 92.3326L76.9079 92.2323C77.1504 91.9069 77.476 91.3324 77.904 91.2363C78.4267 91.1191 78.9486 91.6409 79.3289 91.9305L79.353 91.9487C79.5339 92.0838 79.7128 92.2214 79.8913 92.3598C79.8726 91.3781 79.9971 90.3862 80.5063 89.5402C80.8652 88.9435 81.4031 88.5016 81.8633 87.9889C82.3757 87.4179 82.6432 86.7162 83.107 86.1216C83.1667 86.0452 83.2491 86.004 83.3382 85.9909C83.356 85.5129 83.4267 85.0301 83.4814 84.5573L83.4972 84.4157C83.5525 83.902 83.683 83.2744 83.4303 82.7933C83.1917 82.3388 82.6441 82.018 82.2386 81.7096L81.9075 81.4539M58.1283 75.1118C57.9166 75.2338 57.7187 75.3854 57.5392 75.575C56.974 76.1718 56.57 76.9147 56.1767 77.6292C55.965 78.0141 55.7609 78.4031 55.5474 78.7871C55.4546 78.9541 55.3591 79.1193 55.2626 79.2843C55.218 79.3603 55.0854 79.5114 55.0196 79.6045C55.0927 79.7064 55.1682 79.8067 55.2452 79.9059C55.2746 79.9438 57.302 82.1425 58.0086 83.003C59.0908 84.3211 60.0581 85.7134 60.885 87.2036C61.6947 88.6629 62.3112 90.208 63.0614 91.6956C63.4368 92.4403 63.8561 93.1798 64.3906 93.8243C64.4113 93.8495 64.4331 93.8732 64.4542 93.898C64.6582 93.3494 65.1809 92.7619 65.4376 92.4246L65.4616 92.3928C66.0438 91.6114 66.6587 90.8536 67.2869 90.1086C67.8607 89.4283 68.4491 88.7627 69.0518 88.1081L69.2785 87.8632C69.6983 87.4116 70.2317 86.736 70.8463 86.4134C70.7805 86.2965 70.7042 86.1809 70.6166 86.0668C70.0407 85.3176 69.2266 84.7738 68.4234 84.2832L67.9024 83.9678C65.9388 82.7764 64.0058 81.5299 62.3011 79.982C61.3992 79.1629 60.5098 78.305 59.7517 77.3497L59.4836 77.0119M61.4047 74.5221C60.4851 74.5989 59.4921 74.5806 58.6424 74.8789C59.3978 75.5899 60.1159 76.3576 60.8536 77.0805C60.9192 76.5916 61.0534 76.1086 61.1671 75.6318" fill="#111111"/>
<path fill-rule="evenodd" clip-rule="evenodd" d="M68.0008 27.1584C72.1262 26.7417 76.1687 27.0918 80.2343 27.8164C80.545 27.8725 80.721 28.0758 80.7865 28.3203C82.7015 28.4075 84.6186 28.5477 86.531 28.6522C87.225 28.6901 87.6184 29.3742 87.302 29.992C87.2388 30.1147 87.1731 30.2341 87.1064 30.3535L87.1902 30.3259C87.7655 30.1418 88.387 30.051 88.9475 30.3433C89.661 30.7153 89.9407 31.536 89.7831 32.2915C89.7427 32.4843 89.6749 32.6692 89.5978 32.8495C89.7543 32.8392 89.912 32.8427 90.0685 32.8633C90.9016 32.9735 91.5207 33.6107 91.5644 34.4591C91.6289 35.7403 90.8015 37.04 89.8268 37.9572C89.9682 38.2478 90.0224 38.5899 89.9636 38.9366C89.8463 39.622 89.3402 40.0325 88.7535 40.3002C88.9982 41.0753 89.1138 41.8856 89.0456 42.7137C89.0228 42.9902 88.7805 43.2185 88.5247 43.2745C89.4782 45.8938 89.9608 48.7058 90.3078 51.446C90.5552 53.3955 90.6772 55.3564 90.6921 57.3207C90.6993 58.2075 90.6847 59.0953 90.6474 59.9823L90.6323 60.3148C90.5863 61.2736 90.584 62.2804 90.4114 63.2288C91.0006 64.2286 91.2376 65.4698 91.3377 66.5902C91.462 67.9771 91.2652 69.4076 90.8267 70.7269C89.1719 75.7117 84.1779 78.8574 79.1617 79.675C74.5186 80.4315 69.1458 79.4132 66.4324 75.2054C66.3898 75.1388 66.4807 75.0838 66.5336 75.1274C68.4749 76.7025 70.7268 77.4051 73.1734 77.7472C77.4035 78.3375 82.1582 77.3362 85.5529 74.682C87.1823 73.4076 88.3572 71.5523 88.874 69.5557C89.1375 68.5352 89.2284 67.4708 89.1248 66.4204C89.0189 65.355 88.5461 64.4457 88.248 63.4389C88.1479 63.0989 88.2538 62.7832 88.462 62.5583C88.5206 61.7408 88.6588 60.9164 88.7116 60.1014C88.7703 59.1748 88.8061 58.2483 88.8188 57.3207C88.8429 55.3965 88.7624 53.4689 88.6001 51.5528C88.3032 48.0442 87.515 44.6208 87.0524 41.142C86.8811 41.2952 86.6356 41.3582 86.3783 41.2243L86.3516 41.2097L86.2112 41.1295C86.2032 41.1295 86.1939 41.1306 86.1858 41.1316C85.225 41.2248 84.2285 41.0916 83.3079 40.8056C82.3446 40.5072 81.4506 40.048 80.6519 39.4361C80.5001 40.204 80.4367 40.9801 80.4357 41.7631C80.4345 42.2522 79.9155 42.506 79.5036 42.2971C77.6773 41.3716 75.9328 40.3051 74.2769 39.1066C74.0835 40.0951 73.8903 41.0834 73.6957 42.0731C73.621 42.4543 73.1341 42.6082 72.8223 42.4268C71.5819 41.7068 70.5106 40.7644 69.6383 39.6437C69.4642 39.976 69.2895 40.3082 69.1137 40.6397L68.8489 41.1362C68.5877 41.6242 68.2379 42.1639 67.6659 42.3199C67.0607 42.4852 66.5554 42.0939 66.3518 41.5473C66.2897 41.3775 66.2321 41.2028 66.1792 41.0272C65.6635 42.2018 65.0814 43.3498 64.4232 44.4451C63.4358 46.0879 62.2505 47.5517 61.0688 49.0534C60.7097 49.5093 60.0953 49.074 60.0458 48.631C60.017 48.3704 59.9928 48.1086 59.972 47.8479C59.2834 49.2343 58.5649 50.6078 57.782 51.9414L57.8941 52.3796V52.3796C58.2171 53.6744 58.4854 54.9784 58.777 56.2801C58.8711 56.7 58.6474 57.3005 58.1556 57.372C57.568 57.4574 57.0121 57.7569 56.4102 57.5509C55.754 57.3261 55.6243 56.7602 55.3145 56.2238C55.2527 56.1169 55.1808 56.0187 55.1035 55.9255L55.0838 55.951V55.951C55.0355 56.0143 54.9204 55.9454 54.9492 55.8731L54.9829 55.7895V55.7895C54.7167 55.5076 54.3982 55.2725 54.1053 55.0196C53.4094 54.9026 52.6265 55.0307 52.147 55.3128C51.055 55.9556 50.5533 57.2805 50.543 58.4987C50.5303 59.9246 50.9733 61.5273 51.7212 62.7466C52.0505 63.2827 52.5015 63.7671 53.0975 64.0049C53.6891 64.2413 54.3301 64.1679 54.9319 64.3905C55.3301 64.5387 55.5752 64.9796 55.3347 65.379C55.3185 65.4067 55.3001 65.4318 55.2828 65.4583L55.4618 65.6954C55.5849 65.8595 55.7132 66.0353 55.8329 66.2183C56.139 66.5697 56.4612 66.9084 56.7731 67.2539C57.3495 67.891 57.9089 68.5455 58.4761 69.1918C59.0113 69.8015 59.5774 70.3743 60.1608 70.938C60.712 71.472 61.4002 71.9207 61.9065 72.4903C62.3989 73.046 62.5325 74.016 61.7223 74.3376C60.8259 74.6942 60.0324 73.8584 59.429 73.3011L59.4037 73.2778C58.2976 72.2623 57.2987 71.1018 56.5055 69.8241C55.7198 70.3578 54.5833 70.4087 53.801 69.8752C53.3892 69.5945 53.0733 69.1228 52.9198 68.6096C52.7751 68.642 52.6304 68.6609 52.4893 68.6587C52.4167 68.7007 52.3439 68.7416 52.2702 68.7797C51.6867 69.0827 50.9699 68.9473 50.7029 68.3032C50.4598 67.7184 50.7103 67.0542 50.9293 66.4908L50.9745 66.3744C51.0988 66.053 51.2357 65.7029 51.406 65.3734C50.9319 65.0175 50.5268 64.5754 50.184 64.0726C49.0321 62.3792 48.4567 59.9027 48.711 57.8822C48.8641 56.6629 49.4382 55.4 50.3783 54.5779L50.3439 54.4884V54.4884C50.0804 53.8214 49.8409 53.152 49.6857 52.4472C49.5039 51.6229 49.4152 50.7687 49.3347 49.9295C49.1644 48.1568 49.2104 46.344 49.4371 44.5783C49.8629 41.2546 50.9423 37.9918 52.8583 35.2261C52.315 34.5773 51.8848 33.8138 52.109 32.9357C52.2116 32.5326 52.445 32.1504 52.7973 31.9195C52.9916 31.7922 53.2231 31.7727 53.4175 31.667L53.476 31.6349C53.5614 31.5852 53.4961 31.5904 53.4451 31.3593C53.2438 30.4362 53.4106 29.5442 54.429 29.2377C55.3876 28.9495 56.2944 29.5615 56.8617 30.2905C58.3461 29.2399 60.3024 28.6901 62.0227 28.2228C63.979 27.6934 65.9858 27.3629 68.0008 27.1584ZM51.9666 58.1221C51.9596 57.3701 52.6742 56.9063 53.3774 57.0293C53.8496 57.1113 54.2435 57.3924 54.6134 57.683L54.7937 57.8254C55.2441 58.1781 55.7612 58.5585 56.0297 59.0579C56.4233 59.795 55.5914 60.7868 54.8147 60.2702C54.2818 59.9139 53.9403 59.3431 53.5908 58.8129L53.5546 58.7582C53.3958 58.5205 53.2566 58.2679 53.039 58.0774L52.992 58.0363C52.9204 57.9755 52.8436 57.92 52.7513 57.8937C52.5731 57.8426 52.2431 57.9141 52.1645 58.1258L52.1575 58.1474C52.1287 58.2543 51.9677 58.2312 51.9666 58.1221Z" fill="#111111"/>
<path fill-rule="evenodd" clip-rule="evenodd" d="M79.8773 68.9632C79.115 69.1799 78.2967 69.1993 77.5197 68.9755C76.8149 68.7725 76.0913 68.3257 75.5726 67.7344C75.1118 67.2092 74.8134 66.571 74.8251 65.8897C74.8264 65.8119 74.8548 65.747 74.8984 65.6965C74.9453 65.6423 75.0109 65.605 75.0811 65.5888C75.1533 65.5722 75.2297 65.5781 75.2947 65.6071C75.3536 65.6333 75.404 65.6779 75.4355 65.7431C75.5152 65.8459 75.5946 65.9471 75.6743 66.0456C76.3153 66.8225 76.936 67.403 77.8998 67.6113C78.4227 67.7243 78.945 67.6742 79.4242 67.5018C79.9372 67.3172 80.4009 66.9927 80.7642 66.5774C80.9284 66.3898 81.1223 66.3132 81.3119 66.3119C81.5267 66.3104 81.7391 66.4084 81.899 66.565C82.0563 66.719 82.1615 66.9282 82.1711 67.147C82.1795 67.3391 82.1156 67.5397 81.9458 67.7187C81.3865 68.3083 80.6616 68.7402 79.8773 68.9632ZM79.8537 59.2331C80.6351 59.6993 81.8258 60.7865 80.9852 61.9423C79.9957 62.9615 78.571 61.793 77.869 61.2645C77.218 60.8549 76.4866 61.9083 77.0906 62.3865C82.1635 66.0733 84.2223 59.355 80.249 58.6849C79.8115 58.611 79.649 59.0888 79.8537 59.2331ZM72.544 57.1815C72.2929 57.0238 71.9974 56.9697 71.67 57.116C71.4141 57.2302 70.9654 57.6109 70.6531 58.1115C70.4394 58.4539 70.2879 58.8556 70.3194 59.2741C70.3267 59.3712 70.2902 59.4429 70.2325 59.4959C70.1869 59.5377 70.1211 59.5685 70.0438 59.5781C69.9781 59.5862 69.9046 59.5789 69.8449 59.5606C69.7313 59.5258 69.6711 59.4534 69.6485 59.3943C69.4298 58.8243 69.524 58.1881 69.7691 57.6142C70.0998 56.8397 70.7005 56.1909 71.094 55.9817C71.7674 55.6237 72.5618 55.6072 73.2362 55.972C73.8102 56.2824 74.1692 56.7837 74.5262 57.2946C74.6021 57.4032 74.6774 57.511 74.7552 57.6169C74.9113 57.8292 74.9268 58.0397 74.8664 58.2202C74.7994 58.4201 74.6288 58.5889 74.4154 58.6772C74.2181 58.7588 73.9892 58.7703 73.7866 58.6865C73.6155 58.6156 73.4584 58.4775 73.3591 58.2431C73.1917 57.8485 72.9129 57.4131 72.544 57.1815V57.1815ZM85.2995 58.0596C85.1275 58.1475 84.9929 58.1741 84.8021 58.1179C84.6966 58.0868 84.5923 58.0272 84.5107 57.9471C84.4298 57.8676 84.3714 57.7689 84.3487 57.6593C84.2929 57.3889 84.1421 57.1357 83.9273 56.9707C83.7437 56.8297 83.512 56.7549 83.255 56.7971C82.9776 56.8425 82.7133 57.0171 82.5313 57.223C82.4705 57.2919 82.4228 57.3701 82.3749 57.4478C82.2852 57.5932 82.198 57.7283 82.0744 57.835C82.0275 57.8756 81.9568 57.9037 81.8884 57.9037C81.8606 57.9037 81.8324 57.8993 81.8055 57.891C81.5294 57.619 81.4763 57.4127 81.4852 57.2081C81.4946 56.9935 81.5808 56.7762 81.72 56.5734C82.0468 56.0978 82.6672 55.7079 83.0858 55.6196C83.6591 55.4987 84.2285 55.6438 84.685 55.9582C85.1547 56.2816 85.5028 56.7837 85.6113 57.3496C85.6374 57.4859 85.6263 57.633 85.5734 57.7606C85.5218 57.8852 85.4317 57.992 85.2995 58.0596ZM73.8085 52.1111C73.4644 52.4401 73.0572 52.4911 72.6452 52.5365C72.4163 52.5619 72.2336 52.5824 72.0537 52.6222C71.5595 52.7317 71.0709 52.8967 70.6252 53.1342C70.1593 53.3825 69.6515 53.682 69.2862 54.0657C69.1993 54.157 69.1175 54.2528 69.0355 54.3488C68.9607 54.4363 68.8887 54.5206 68.8128 54.6019C68.7256 54.6952 68.6428 54.7931 68.5605 54.8906C68.5095 54.973 68.4995 54.9932 68.4892 55.0143C68.4738 55.046 68.4559 55.0814 68.4354 55.1195C68.4073 55.1715 68.3744 55.2286 68.34 55.2802C68.2827 55.3747 68.2519 55.4008 68.2253 55.4124C68.1813 55.4317 68.1394 55.4412 68.0989 55.436C68.0609 55.4312 68.025 55.4133 67.9896 55.3839C67.813 55.2374 67.7609 54.997 67.7662 54.7418C67.7743 54.3545 67.9199 53.9257 68.054 53.6621C68.3659 53.0496 68.7985 52.4129 69.3187 51.9558C69.9123 51.434 70.5616 51.039 71.3075 50.7668C71.771 50.5976 72.3077 50.4422 72.8127 50.4619C73.1762 50.476 73.5232 50.5821 73.8098 50.8469C73.9857 51.0095 74.0702 51.2408 74.0702 51.4719C74.0702 51.7076 73.9825 51.9447 73.8085 52.1111ZM85.9992 55.1243C85.9774 55.1595 85.9471 55.1838 85.9134 55.1984C85.878 55.2136 85.8386 55.218 85.8008 55.2118C85.7631 55.2056 85.7273 55.1888 85.6989 55.1632C85.6716 55.1386 85.6509 55.106 85.6416 55.0661C85.4132 54.0813 84.9696 53.3486 84.0229 52.8761C83.5572 52.6436 83.0217 52.4959 82.5147 52.3782C82.3674 52.344 82.2118 52.3218 82.055 52.2993C81.5637 52.2289 81.0688 52.1483 80.7486 51.7584C80.5556 51.5236 80.4746 51.2233 80.5204 50.9487C80.5635 50.6901 80.7174 50.453 80.9973 50.3109C81.6939 49.9573 82.5597 50.3043 83.2632 50.5998C83.3154 50.6217 83.3666 50.6433 83.4168 50.664C84.1047 50.9491 84.7322 51.3254 85.248 51.8635C85.6573 52.2904 86.0365 52.9215 86.1892 53.5708C86.3163 54.1109 86.2864 54.6623 85.9992 55.1243Z" fill="#111111"/>
</svg>
