<svg width="199" height="259" viewBox="0 0 199 259" fill="none" xmlns="http://www.w3.org/2000/svg">
<path fill-rule="evenodd" clip-rule="evenodd" d="M93.2042 111.775L128.347 117.975L144.502 125.618L147.139 127.661L131.509 155.454L107.374 159.88L101.226 175.936L102.481 194.033L141.742 189.328L158.678 187.305L162.659 203.462L161.94 210.109L160.894 213.479L118.909 224.874C118.909 224.874 97.5302 222.791 93.7404 222.791C89.9506 222.791 62.1645 225.565 62.1645 225.565L55.7355 224.874C55.7355 224.874 41.5115 209.803 39.3054 204.44C37.0992 199.076 32.3286 166.47 32.3286 166.47L32.8539 161.461L45.1431 129.667C45.1431 129.667 46.7842 128.169 48.8532 125.618C50.9221 123.068 93.2042 111.775 93.2042 111.775Z" fill="#9DDADB"/>
<path fill-rule="evenodd" clip-rule="evenodd" d="M156.809 157.701C153.633 157.863 150.453 158.622 147.581 159.998C146.405 160.561 145.34 161.375 145.028 162.713C144.871 163.397 144.909 164.103 144.993 164.794C145.056 165.317 145.072 165.984 145.524 166.338C145.601 166.398 145.683 166.444 145.769 166.477C144.709 166.958 143.7 167.536 142.803 168.131C141.984 168.675 141.141 169.514 140.763 170.459C140.731 170.352 140.7 170.252 140.668 170.156C140.023 168.24 139.03 166.671 137.466 165.616C137.288 164.965 135.382 162.164 133.611 162.27C131.672 162.384 130.112 162.527 128.358 163.423C127.719 163.409 127.081 163.418 126.451 163.446C126.342 163.45 126.347 163.598 126.451 163.61C126.962 163.675 127.474 163.747 127.985 163.832C129.201 164.027 130.413 164.276 131.599 164.584C133.022 164.954 134.493 165.325 135.823 165.972C138.401 167.228 139.997 170.511 139.67 173.367C139.615 173.836 139.435 175.252 138.788 175.106C138.242 174.982 138.025 173.836 137.834 173.411C137.322 172.284 136.401 171.548 135.295 171.049C133.997 170.463 132.608 170.067 131.263 169.605C130.501 169.343 129.739 169.08 128.975 168.82C128.194 168.55 127.451 168.179 126.619 168.367C126.116 168.481 126.058 169.084 126.34 169.429C126.77 169.956 127.407 170.111 128.026 170.327C128.842 170.613 129.657 170.898 130.471 171.183C131.73 171.624 133.05 171.995 134.278 172.534L134.239 172.622C134.139 172.594 134.022 172.694 134.041 172.818C134.225 173.957 134.481 175.275 134.197 176.416C133.973 177.321 133.183 178.324 132.156 178.057C132.317 177.909 132.377 177.654 132.268 177.418C131.862 176.544 126.537 173.096 126.062 174.377C126.046 174.422 126.095 174.456 126.134 174.449C126.538 174.364 127.216 175.058 127.54 175.278C128.008 175.595 128.483 175.905 128.945 176.231C129.452 176.587 129.946 176.96 130.427 177.346C130.806 177.649 131.091 177.964 131.526 178.117C131.298 178.226 131.117 178.429 131.04 178.688C130.844 179.363 130.466 179.935 129.809 180.233C129.121 180.543 128.344 180.347 127.619 180.423C126.631 180.523 125.769 180.995 125.049 181.67C123.538 183.089 122.779 185.59 120.665 186.261C119.402 186.661 118 186.409 116.722 186.228C115.294 186.025 113.903 185.865 112.465 186.076C111.088 186.279 109.786 186.758 108.529 187.343C107.35 187.89 106.046 188.511 105.001 189.328C104.785 188.66 104.568 188 104.403 187.318C104.014 185.707 103.804 184.065 103.753 182.409C103.706 180.833 103.794 179.25 103.928 177.681C103.995 176.897 104.1 176.117 104.167 175.333C104.184 175.135 104.219 174.924 104.246 174.713C106.113 173.605 108.075 172.756 110.052 171.883C110.058 171.881 110.063 171.877 110.068 171.876C110.13 171.847 110.189 171.821 110.251 171.795C110.249 171.791 110.247 171.788 110.244 171.784C110.47 171.645 110.627 171.46 110.722 171.252C113.572 169.352 115.954 166.757 117.731 163.731C118.475 162.463 119.192 161.148 120.166 160.036C121.203 158.851 122.434 158.146 123.958 157.78C125.74 157.351 127.575 157.093 129.401 156.947C130.398 156.868 131.511 156.744 132.598 156.75C133.355 156.755 134.095 156.82 134.775 157.009C135.782 157.287 136.371 158.057 137.003 158.835C137.608 159.582 138.209 160.331 138.773 161.109C139.307 161.847 139.812 162.609 140.249 163.409C140.512 163.888 140.756 164.381 140.961 164.89C141.032 165.07 141.127 165.274 141.171 165.461C141.215 165.649 141.134 165.849 141.344 165.849C140.477 165.861 139.901 168.035 140.763 167.984C141.975 167.913 142.584 166.452 142.346 165.156C141.923 162.844 139.635 160.052 139.182 159.46C138.182 158.154 137.151 156.449 135.549 155.841C135.527 155.832 135.502 155.824 135.479 155.816C135.945 155.372 136.313 154.841 136.665 154.3C137.028 153.743 137.46 153.106 137.58 152.445C137.655 152.025 137.135 151.785 136.888 152.153C136.529 152.69 136.355 153.37 136.087 153.96C135.814 154.559 135.481 155.124 135.218 155.728C134.586 155.533 133.903 155.443 133.207 155.413C134.085 154.219 135.584 151.915 135.765 151.619C136.595 150.249 137.385 148.837 138.14 147.422C138.956 145.89 139.656 144.294 140.437 142.744C140.88 141.866 141.327 140.98 141.819 140.127C141.989 139.835 142.171 139.542 142.378 139.276C142.418 139.224 142.469 139.18 142.516 139.13C142.571 139.1 142.627 139.067 142.658 139.049C142.942 138.886 143.042 138.505 143.241 138.264C143.56 137.875 143.935 137.829 144.415 137.823C145.438 137.813 146.465 137.853 147.486 137.881C148.987 137.924 150.487 137.984 151.986 138.063C152.44 138.088 152.892 138.112 153.346 138.14C155.527 138.271 157.706 138.442 159.88 138.651C161.803 138.836 163.727 139.137 165.652 139.282C163.045 145.508 160.155 151.621 156.882 157.521C156.849 157.581 156.824 157.641 156.809 157.701ZM142.346 173.741C141.926 173.935 141.518 174.176 141.138 174.451C141.201 174.023 141.216 173.572 141.199 173.119C141.512 173.457 141.914 173.651 142.346 173.741ZM160.293 163.031C160.263 163.034 160.235 163.05 160.221 163.08C159.64 164.286 159.883 165.634 160.833 166.579C161.33 167.072 162.414 167.629 162.379 168.439C162.349 169.094 161.64 169.644 161.337 170.185C161.055 170.688 160.95 171.241 161.176 171.788C161.465 172.487 162.273 172.765 162.549 173.452C162.9 174.324 162.33 175.375 161.931 176.134C161.56 176.837 161.079 177.54 160.761 178.283C158.625 179.394 153.78 181.413 153.197 181.525C152.485 181.664 151.772 181.797 151.058 181.92C149.686 182.159 148.311 182.381 146.932 182.577C146.148 182.688 145.361 182.797 144.575 182.883C143.888 182.957 143.114 183.058 142.56 182.538C141.444 181.488 142.069 179.729 142.775 178.669C142.789 178.648 142.789 178.628 142.784 178.61C143.45 178.454 144.114 178.271 144.776 178.142C146.049 177.895 147.332 177.688 148.616 177.503C151.254 177.124 153.91 176.874 156.562 176.622C157.219 176.559 157.226 175.52 156.562 175.581C152.752 175.932 148.922 176.264 145.163 177.003C144.221 177.186 143.285 177.393 142.355 177.628C141.915 177.737 141.444 177.908 140.983 177.913C140.955 177.913 140.927 177.913 140.899 177.911C139.997 177.883 139.866 177.107 140.362 176.46C140.423 176.381 140.486 176.301 140.551 176.226C141.427 175.176 142.518 174.475 143.642 173.749C144.902 173.577 146.158 173.193 147.391 172.911C150.436 172.214 153.48 171.516 156.527 170.82C157.124 170.683 156.87 169.76 156.273 169.896C153.96 170.423 151.648 170.949 149.336 171.476L145.951 172.247C145.275 172.4 144.431 172.708 143.635 172.82C143.243 172.874 142.863 172.881 142.52 172.8C141.411 172.536 141.355 171.143 141.833 170.315C142.369 169.385 143.382 168.804 144.28 168.277C145.838 167.363 147.495 166.706 149.113 165.949C149.401 165.885 149.688 165.822 149.975 165.759C151.646 165.389 153.556 165.207 155.129 164.529C155.6 164.328 155.342 163.582 154.877 163.592C153.656 163.619 152.379 164.055 151.186 164.314C149.895 164.596 148.602 164.876 147.311 165.156C147.181 165.184 146.414 165.431 146.298 165.376C146.225 165.341 146.198 165.084 146.174 164.915C146.095 164.358 146.037 163.774 146.123 163.215C146.312 161.963 147.351 161.375 148.402 160.894C150.742 159.825 153.309 159.156 155.863 158.888C156.451 158.826 157.04 158.788 157.632 158.768C158.327 158.747 158.9 158.624 159.253 159.312C159.806 160.397 160.111 161.792 160.293 163.031ZM157.043 202.367C156.533 200.594 156.672 198.701 156.322 196.892C156.142 195.959 155.896 195.033 155.627 194.122C155.41 193.386 155.049 192.604 155.008 191.836C155.005 191.784 155.065 191.755 155.107 191.778C155.826 192.193 156.379 193.088 156.789 193.791C157.28 194.632 157.655 195.513 157.958 196.439C158.561 198.283 159.056 200.508 158.278 202.367C158.047 202.92 157.234 203.031 157.043 202.367ZM137.141 215.791C136.382 215.258 135.828 214.512 135.183 213.854C134.55 213.207 135.54 212.211 136.174 212.858C136.724 213.419 137.202 214.12 137.849 214.574C138.16 214.792 138.304 215.187 138.1 215.538C137.92 215.848 137.452 216.009 137.141 215.791ZM132.904 195.299C134.291 194.696 135.655 194.039 137.107 193.605C137.975 193.345 138.342 194.705 137.48 194.963C136.142 195.364 134.888 195.96 133.611 196.516C132.791 196.872 132.078 195.658 132.904 195.299ZM118.254 194.877C117.914 194.035 119.271 193.673 119.605 194.503C119.99 195.458 120.431 196.388 120.816 197.343C121.155 198.184 119.799 198.547 119.464 197.718C119.08 196.763 118.638 195.832 118.254 194.877ZM103.794 211.683C103.568 211.986 103.191 212.15 102.835 211.936C102.537 211.756 102.355 211.278 102.584 210.972C103.252 210.077 103.928 209.192 104.711 208.394C105.346 207.747 106.336 208.744 105.702 209.391C105.003 210.103 104.39 210.883 103.794 211.683ZM101.726 117.387C102.369 117.829 102.933 118.365 103.482 118.917C104.121 119.559 103.13 120.556 102.491 119.914C102.028 119.448 101.561 118.976 101.019 118.604C100.705 118.388 100.565 117.988 100.767 117.64C100.949 117.327 101.413 117.172 101.726 117.387ZM122.763 140.061C122.4 140.793 122.072 141.511 122.051 142.343C122.029 143.249 120.628 143.25 120.65 142.343C120.677 141.254 121.076 140.309 121.553 139.349C121.956 138.537 123.165 139.252 122.763 140.061ZM130.482 121.851C131.235 121.346 131.936 122.567 131.189 123.067C130.584 123.473 129.978 123.879 129.373 124.285C128.62 124.789 127.919 123.568 128.666 123.068C129.271 122.662 129.876 122.256 130.482 121.851ZM97.003 153.689C96.8745 154.585 95.5242 154.202 95.6516 153.315C95.8486 151.944 96.0891 150.592 96.4589 149.257C96.701 148.383 98.0525 148.757 97.8102 149.631C97.4405 150.966 97.1999 152.319 97.003 153.689ZM92.0895 169.829C91.1875 169.81 91.1874 168.401 92.0895 168.42C92.9058 168.438 93.7083 168.654 94.4957 168.851C95.3716 169.071 94.9981 170.43 94.1231 170.21C93.4575 170.043 92.7797 169.844 92.0895 169.829ZM90.2757 202.342C89.9659 202.494 89.6479 202.63 89.3347 202.774C88.7074 203.063 88.0804 203.351 87.4537 203.641C86.1479 204.243 84.8428 204.848 83.539 205.455C80.9289 206.67 78.2986 207.841 75.6822 209.043C73.0141 210.268 70.353 211.51 67.6952 212.758C66.443 213.346 65.1814 213.912 63.9223 214.485C62.8456 214.974 61.5148 215.829 60.3329 215.91C60.2721 215.914 60.2518 215.837 60.2865 215.797C60.733 215.286 61.4453 214.989 62.0321 214.658C62.6316 214.318 63.2422 213.999 63.8501 213.676C65.1173 213.001 66.3861 212.331 67.6656 211.68C70.2249 210.378 72.7892 209.085 75.3539 207.794C77.9696 206.477 80.582 205.151 83.2207 203.881C84.4631 203.283 85.7066 202.687 86.9509 202.093C87.625 201.771 88.2994 201.449 88.9738 201.128C89.2652 200.99 89.5535 200.84 89.8513 200.716C90.247 200.551 90.5478 200.585 90.956 200.484C91.6216 200.318 91.9098 201.169 91.3988 201.54C90.978 201.845 90.7566 202.106 90.2757 202.342ZM80.9201 216.79C80.7763 216.438 81.0774 216.011 81.4096 215.923C81.8074 215.818 82.1264 216.061 82.2716 216.415C82.6558 217.355 83.203 218.217 83.9074 218.945C84.537 219.596 83.5465 220.592 82.9164 219.941C82.0337 219.029 81.3996 217.962 80.9201 216.79ZM74.0373 194.173C73.3984 193.531 74.3895 192.535 75.0282 193.177L76.8445 195.003C77.4833 195.645 76.492 196.642 75.8535 195.999L74.0373 194.173ZM55.4038 191.196C54.098 191.581 52.5751 191.935 51.6848 193.055C51.6414 193.11 51.5683 193.04 51.5944 192.985C52.7341 190.61 56.0025 189.776 58.2655 188.944C59.8661 188.355 61.5083 187.867 63.1644 187.431C62.9989 185.532 63.4554 183.496 63.6141 181.606C63.7835 179.588 63.9214 177.564 63.9922 175.54C64.0645 173.475 64.082 171.396 64.0144 169.33C63.9471 167.272 63.6814 165.239 63.5651 163.188C63.5539 162.99 63.8285 162.98 63.8878 163.144C64.5755 165.048 64.8693 167.156 65.0931 169.163C65.3237 171.231 65.4002 173.292 65.3708 175.372C65.3403 177.51 65.2166 179.643 65.0469 181.774C64.9665 182.784 64.8731 183.793 64.785 184.803C64.7177 185.573 64.6866 186.337 64.5303 187.083C65.5292 186.837 66.5303 186.604 67.5283 186.377C70.7105 185.655 73.9061 184.985 77.075 184.204C78.6306 183.821 80.1639 183.362 81.7124 182.955C83.1706 182.571 84.7097 182.106 86.2068 181.934C86.741 181.873 86.809 182.608 86.4553 182.857C85.2386 183.716 83.6226 184.314 82.2171 184.795C80.8066 185.278 79.3404 185.625 77.8947 185.982C74.8797 186.728 71.8362 187.337 68.7972 187.972C65.7625 188.606 62.722 189.236 59.7214 190.018C58.2763 190.395 56.8362 190.774 55.4038 191.196ZM48.2484 153.502C47.4681 153.962 46.7638 152.744 47.5412 152.285C48.5584 151.685 49.6426 151.234 50.7355 150.794C51.5743 150.456 51.9351 151.819 51.1081 152.152C50.1259 152.548 49.1624 152.962 48.2484 153.502ZM45.4231 205.849C44.6408 206.305 43.9359 205.087 44.716 204.632C45.8115 203.994 47.0113 203.568 48.1466 203.009C48.9543 202.611 49.6638 203.827 48.8538 204.226C47.7187 204.784 46.5187 205.21 45.4231 205.849ZM44.1524 176.134C44.9088 176.856 45.9184 177.197 46.8703 177.576C47.7003 177.907 47.3362 179.269 46.4977 178.935C45.3117 178.462 44.1037 178.03 43.1614 177.13C42.5059 176.504 43.4987 175.51 44.1524 176.134ZM52.5207 135.779C53.3523 136.107 52.9881 137.469 52.1481 137.138C51.2165 136.771 50.2545 136.491 49.3229 136.124C48.4915 135.796 48.8555 134.434 49.6955 134.765C50.6271 135.132 51.5891 135.412 52.5207 135.779ZM67.2833 119.75C68.1669 119.601 68.5432 120.959 67.6559 121.109C66.5551 121.296 65.4711 121.515 64.4271 121.921C63.584 122.249 63.2222 120.886 64.0545 120.562C65.0987 120.156 66.1827 119.937 67.2833 119.75ZM72.1611 158.777C71.3509 158.376 72.0618 157.162 72.8683 157.56C73.7183 157.98 74.5989 158.305 75.5262 158.504C76.4093 158.693 76.0332 160.051 75.1536 159.862C74.1099 159.639 73.1169 159.249 72.1611 158.777ZM76.7681 136.794C77.6405 136.554 78.0094 137.913 77.1407 138.153C75.6123 138.573 74.0387 138.792 72.4991 139.167C71.6216 139.38 71.2504 138.022 72.1265 137.808C73.6661 137.434 75.2399 137.215 76.7681 136.794ZM96.3118 129.895C97.1989 130.06 96.8208 131.418 95.9394 131.254C95.0009 131.08 94.0499 131.077 93.0985 131.076C92.1953 131.076 92.1969 129.667 93.0985 129.667C94.1794 129.668 95.2464 129.697 96.3118 129.895ZM160.052 137.256C157.762 137.036 155.469 136.86 153.172 136.728C153.065 136.723 152.96 136.716 152.853 136.71C152.841 136.686 152.826 136.663 152.81 136.638C152.06 135.532 151.508 134.426 151.03 133.175C150.573 131.985 150.13 130.757 149.425 129.683C148.622 128.459 147.538 127.501 146.349 126.671C145.629 127.158 144.96 127.729 144.348 128.334C143.703 128.97 142.712 127.974 143.357 127.338C143.9 126.8 144.481 126.304 145.095 125.855C144.386 125.422 143.663 125.015 142.958 124.61C140.314 123.094 137.608 121.692 134.845 120.41C133.561 119.813 132.262 119.283 130.953 118.746C130.249 118.457 129.553 118.085 128.849 117.751C128.9 117.25 128.751 116.69 128.369 116.361C128.087 116.119 127.868 116.03 127.532 115.859C127.457 115.832 127.411 115.817 127.39 115.808C127.406 115.811 127.451 115.825 127.526 115.85C127.705 115.933 127.719 115.908 127.569 115.778C127.56 115.493 127.001 114.89 126.873 114.596C126.428 113.587 126.29 112.519 125.633 111.6C124.727 110.334 123.207 109.855 121.789 110.284C121.642 108.761 121.604 107.171 121.033 105.811C121.017 105.774 120.966 105.758 120.943 105.799C120.348 106.818 120.297 107.954 120.252 109.131C120.208 110.235 120.25 111.364 120.393 112.461C120.302 112.532 120.209 112.599 120.113 112.664C119.661 112.963 119.174 113.194 118.663 113.365C117.689 113.689 116.667 113.83 115.646 113.879C113.01 114.006 110.293 113.738 107.7 113.284C105.078 112.824 101.057 112.134 98.7241 110.815C97.1842 109.945 95.7637 108.882 94.3235 107.854C94.8457 106.163 94.9789 104.346 94.4534 102.917C94.3903 102.746 94.124 102.715 94.0732 102.917C93.7439 104.28 93.6475 105.651 93.2096 106.998C93.2026 107.017 93.1956 107.039 93.1886 107.058C93.0519 106.965 92.9153 106.873 92.7787 106.781C92.4634 106.572 92.0342 106.729 91.845 107.028C88.8195 111.82 84.0286 112.095 78.9976 112.951C73.4916 113.888 67.958 114.899 62.6642 116.732C57.6016 118.487 52.7632 121.041 48.9303 124.855C48.0627 125.719 47.2513 126.639 46.4854 127.6C47.2264 127.694 47.9613 127.84 48.6867 128.069C49.5456 128.341 49.1765 129.7 48.3141 129.428C47.3818 129.134 46.4392 128.988 45.4869 128.915C42.8826 132.497 40.8519 136.559 39.096 140.557C35.7279 148.222 33.5355 156.385 32.5267 164.696C33.0806 164.362 33.6445 164.044 34.2224 163.748C35.0254 163.338 35.7336 164.554 34.9298 164.965C34.0371 165.422 33.1699 165.925 32.3298 166.471C31.9628 170.108 31.8206 173.77 31.9067 177.425C32.1117 186.14 33.2819 195.11 35.9288 203.425C37.2268 207.506 38.9471 211.553 41.5099 215.002C42.6696 216.564 43.9869 217.973 45.5389 219.147C46.2904 219.718 47.0857 220.227 47.9248 220.657C49.0057 221.213 50.4141 221.397 51.346 222.184C51.6526 222.443 51.8891 222.784 52.0678 223.17C51.9644 223.903 51.9521 224.637 52.1518 225.37C52.2149 225.599 52.3866 225.786 52.5985 225.875C52.602 225.939 52.602 226 52.602 226.06C52.602 226.089 52.6441 226.096 52.6493 226.068C52.6581 226.013 52.6669 225.958 52.6756 225.902C52.7439 225.925 52.8158 225.936 52.8893 225.936C55.5503 225.946 58.2145 225.88 60.8789 225.789C60.6729 225.155 60.4498 224.526 60.2355 223.891C59.9445 223.029 61.2985 222.663 61.5868 223.517C61.8375 224.259 62.0996 224.994 62.3327 225.738C65.1876 225.632 68.0415 225.503 70.8904 225.409C76.9498 225.206 83.0073 225.139 89.0683 225.011C98.4807 224.81 107.962 224.4 117.388 224.801C117.714 224.106 118.079 223.426 118.425 222.74C118.833 221.93 120.042 222.644 119.635 223.451C119.395 223.928 119.146 224.398 118.909 224.874C120.818 224.974 122.726 225.106 124.629 225.286C127.877 225.592 131.093 226.136 134.337 226.474C137.636 226.819 140.863 226.758 144.135 226.21C144.724 226.112 145.07 225.754 145.214 225.31C145.219 225.308 145.223 225.305 145.226 225.3C145.394 225.102 145.552 224.939 145.715 224.796C145.91 224.669 146.12 224.562 146.367 224.466C146.827 224.29 147.307 224.183 147.794 224.111C148.331 224.03 148.874 224.023 149.41 223.956C149.861 223.898 150.303 223.811 150.744 223.706C151.538 223.516 152.291 223.267 153.041 222.938C153.694 222.651 154.285 222.239 154.842 221.789C155.994 220.942 156.993 219.861 157.865 218.737C158.373 218.08 158.852 217.399 159.286 216.689C160.043 215.459 160.687 214.182 161.339 212.895C161.576 212.514 161.791 212.123 161.989 211.724C160.715 211.347 159.429 211.039 158.079 211.017C157.177 211.003 157.177 209.594 158.079 209.608C159.628 209.633 161.092 209.997 162.547 210.43C162.618 210.241 162.686 210.05 162.749 209.857C162.923 209.454 163.066 209.04 163.185 208.62C163.255 208.43 163.326 208.24 163.396 208.05C163.553 207.391 163.711 206.731 163.87 206.07C164.187 205.013 164.438 203.941 164.622 202.854C164.776 202.139 164.895 201.419 164.976 200.69C165.221 198.923 165.421 197.16 165.435 195.374C165.414 194.273 165.344 193.174 165.224 192.081C165.174 191.337 165.088 190.598 164.972 189.863C164.822 188.771 164.673 187.69 164.422 186.612C164.235 185.883 164.047 185.154 163.86 184.424C163.392 182.905 162.84 181.414 162.204 179.958C162.169 179.866 161.992 179.665 161.886 179.664C161.805 179.662 161.693 179.736 161.73 179.835C161.733 179.843 161.737 179.854 161.74 179.863C161.703 179.78 161.668 179.695 161.632 179.613C161.6 179.535 161.477 179.38 161.383 179.382C161.378 179.382 161.372 179.382 161.365 179.384C161.39 179.366 161.413 179.343 161.435 179.317C162.064 178.568 162.472 177.584 162.923 176.717C163.296 176.002 163.648 175.248 163.749 174.44C163.839 173.73 163.718 173.031 163.275 172.457C162.77 171.803 161.821 171.497 162.348 170.553C162.947 169.478 163.828 168.547 162.951 167.326C162.504 166.704 161.796 166.363 161.271 165.822C160.666 165.197 160.379 164.36 160.395 163.506C160.432 163.527 160.481 163.517 160.498 163.464C161.006 161.921 160.638 160.227 160.118 158.724C159.834 157.909 159.233 157.685 158.535 157.645C161.561 151.7 164.394 145.661 166.918 139.482C167.003 139.28 167.085 139.078 167.167 138.875C167.29 138.572 167.031 138.169 166.731 138.102C164.548 137.621 162.275 137.468 160.052 137.256Z" fill="#231F20"/>
<path fill-rule="evenodd" clip-rule="evenodd" d="M71.2144 48.2736L76.4807 51.8084L95.3317 31.7852L89.0585 26.8105C89.0585 26.8105 77.6774 35.2854 75.4397 37.5221C73.2019 39.7588 71.2144 48.2736 71.2144 48.2736Z" fill="#9FD8E5"/>
<path fill-rule="evenodd" clip-rule="evenodd" d="M83.5631 3.64248C84.6382 3.47983 85.45 4.15187 85.8363 5.09911L85.8565 5.15011C85.9806 5.47242 86.1187 5.78592 86.2673 6.09414C88.9576 4.7644 92.7963 5.10608 94.499 7.79904C95.7139 9.72232 94.9727 12.0049 94.5147 14.0444L94.214 15.3883C94.7952 15.7609 95.2335 16.4282 95.2129 17.1192L95.2104 17.1724L95.0881 19.0464C95.4761 18.6501 95.831 18.2186 96.1474 17.7589C96.3659 17.3556 96.6019 16.9593 96.8554 16.5754C98.3465 14.3157 101.694 16.2795 100.463 18.6994C100.227 19.1662 99.9617 19.6082 99.6767 20.0345C99.3551 20.6632 99.0911 21.3096 98.8884 21.9736C99.4705 22.229 99.918 22.7961 99.9652 23.6521C100.075 25.6511 99.0334 27.319 97.3763 28.3669C96.8886 28.6752 96.3851 28.735 95.9289 28.6206C95.8485 28.7298 95.7681 28.839 95.6911 28.9499C96.3519 29.4906 96.948 30.1071 97.4602 30.7904C99.002 30.5579 100.553 30.4487 102.103 30.4452C103.998 29.51 106.267 29.5294 108.303 29.8799C109.614 30.1053 110.873 30.5439 112.163 30.8591C113.523 31.1902 114.904 31.2026 116.28 31.428C118.014 31.7116 119.535 32.5182 120.491 33.8057C121.542 33.8374 122.646 34.2707 123.562 34.8589C125.695 36.2292 127.815 37.6188 129.943 38.9979C130.759 39.5273 131.064 40.3725 130.914 41.3152L130.904 41.3756L130.832 41.7666L131.001 42.0072C131.652 42.9335 132.36 43.9038 132.782 44.9262C133.561 46.0587 134.266 47.2458 134.89 48.4699C135.731 50.1149 136.425 51.8585 136.895 53.648C137.012 54.1006 137.129 54.5568 137.206 55.0182C137.316 55.6699 137.147 56.1754 137.054 56.8006C136.938 57.5932 136.897 58.3963 136.774 59.1906C136.692 59.7172 136.248 59.9761 135.783 59.9902C135.958 61.3305 136.084 62.6797 136.204 64.0182C136.374 65.9309 136.489 67.8489 136.589 69.7669C137.103 70.519 138.153 71.1143 138.912 71.3204C139.963 71.6039 141.064 71.2957 142.057 70.9347C142.681 70.7075 143.193 71.4983 142.889 72.0266C141.933 73.6857 139.887 73.6787 138.339 72.9442C137.683 72.6343 137.108 72.1851 136.682 71.6004C136.708 72.157 136.736 72.7135 136.764 73.2718L136.79 73.7775C137.105 79.6834 137.785 85.7923 136.683 91.6399C134.776 101.769 126.457 109.481 116.294 110.08C110.961 110.395 106.52 108.807 104.311 107.922C102.103 107.037 102.961 105.232 104.494 105.748C107.135 106.637 111.987 107.961 116.329 107.389C126.562 106.041 135.239 100.888 134.348 78.693C134.221 75.5455 133.832 72.3965 133.748 69.2491C133.668 66.1722 133.698 63.0936 133.563 60.0184L133.518 58.9692C133.466 57.7432 133.409 56.5116 133.318 55.2842C133.208 54.8086 133.117 54.326 132.983 53.8593C132.617 52.5894 132.14 51.3548 131.547 50.1765C131.416 50.2769 131.27 50.3491 131.11 50.3773C129.903 50.5957 128.77 50.5341 127.639 50.0268C127.111 49.7926 126.646 49.4808 126.212 49.0951C126.006 48.9137 125.868 48.7376 125.76 48.5544C125.212 48.5632 124.665 48.3977 124.323 48.0014C123.932 47.5497 123.867 47.0832 124.02 46.6513L124.036 46.6082L123.998 46.5941C123.536 47.7971 122.617 48.8556 121.608 49.5707C120.014 50.7049 118.019 51.0325 116.107 51.0624C113.995 51.0941 111.768 50.7666 109.684 50.4319C109.134 50.3439 108.587 50.2435 108.05 50.1078C108.029 50.129 108.008 50.1536 107.985 50.1748C106.197 51.899 103.682 52.3429 101.413 51.3583C100.102 50.7895 99.002 49.8736 98.0301 48.8239C98.0161 49.3734 97.9881 49.9229 97.9409 50.4671L97.9214 50.6833C97.8246 51.6969 97.6384 52.772 96.8781 53.5035C95.6492 54.6889 93.8662 54.2133 92.4485 53.4419C92.4502 53.4789 92.4502 53.5176 92.4502 53.5564C92.8331 54.8667 93.2176 56.1789 93.6022 57.491L93.685 57.7705C93.9647 58.7022 94.2714 59.6351 94.3556 60.6102C94.5164 62.4736 93.2858 64.3141 91.2301 63.6889C90.1518 63.3621 89.2879 62.4486 88.459 61.7169L87.9367 61.2619C89.288 65.7125 90.2249 70.3217 90.3123 74.9662C90.3176 75.218 90.1026 75.4082 89.8648 75.417C89.309 75.4399 88.7111 75.329 88.1517 75.1053C88.1203 75.1035 88.0888 75.1018 88.0556 75.0965C87.1012 74.9574 86.2149 74.6104 85.4335 74.0979C85.6136 74.6738 85.694 75.292 85.6468 75.9384C85.6345 76.0951 85.3915 76.1497 85.3566 75.9771C84.9056 73.7421 82.3097 72.0531 80.0722 72.481C77.6703 72.9407 75.9013 75.0225 75.4678 77.3914C75.0028 79.9364 75.8926 82.8795 77.541 84.8433C78.2996 85.7486 79.2978 86.5041 80.483 86.6943C81.0249 86.7806 81.5878 86.7507 82.1139 86.5957C82.3377 86.5288 82.5474 86.4354 82.7607 86.3474C83.0719 86.2206 83.4355 86.2012 83.7291 86.0673C84.3952 85.7662 85.0647 86.3844 84.7273 87.073C84.4336 87.6736 84.1696 88.0787 83.6819 88.3887C84.077 88.8748 84.4354 89.5511 84.5682 89.7325C85.2465 90.6554 85.9352 91.5272 86.7078 92.3709C87.4945 93.2268 88.3528 94.0088 89.26 94.7327L89.6414 95.0363C90.5152 95.7346 91.2762 96.3817 91.8926 97.3834C92.3786 98.1742 91.7493 99.2468 90.8385 99.2345C87.9892 99.194 85.9177 96.6718 84.4423 94.4685C84.2326 94.1533 84.035 93.8204 83.8515 93.4787C83.7851 93.5861 83.7117 93.6865 83.6295 93.7781L83.7921 94.2184C84.2745 95.5147 82.1961 96.3619 81.593 95.1519C81.1542 94.2748 80.6456 93.4399 80.0792 92.6509C79.7453 92.6033 79.4184 92.399 79.2366 92.1349C78.7769 91.4638 78.2612 90.7857 77.8259 90.0707C77.5847 89.8399 77.3365 89.618 77.083 89.4014C77.0096 89.4666 76.9344 89.5317 76.8627 89.6004C76.5446 90.3313 76.1513 90.9988 75.6636 91.6276L75.559 91.7618C74.6247 92.9482 73.4077 94.1624 71.9017 94.4527C71.442 94.5407 70.9997 93.9648 71.407 93.5967C72.4611 92.6421 73.7075 91.9922 74.6794 90.9266C75.1582 90.4017 75.5979 89.8235 75.976 89.2176L76.0621 89.0773C76.1251 88.9734 76.1897 88.8695 76.2562 88.7638C75.8174 88.4626 75.3786 88.1597 74.9399 87.8568C73.732 88.8965 72.1591 89.3721 70.8231 90.2333L70.6903 90.3208C69.4824 91.1345 68.2098 89.3345 69.1782 88.3464C70.2458 87.2613 71.137 85.9673 72.0827 84.7612C71.6379 83.9359 71.4275 82.96 71.3486 81.9737C71.3175 81.6945 71.2932 81.4152 71.2689 81.1358C70.5907 81.1464 69.9089 80.9122 69.3321 80.5088L69.1136 80.3521C68.4126 80.5775 67.6767 80.6867 66.9722 80.6673C65.315 80.618 64.6368 78.7106 65.6734 77.5041C66.731 76.2713 68.5822 76.0018 70.0488 76.6006C70.096 76.5759 70.1449 76.5495 70.1921 76.5231C70.1222 76.199 70.1378 75.9051 70.2173 75.6469L70.1942 75.4894C69.8717 74.9908 69.6597 74.4216 69.5792 73.8201C69.5156 73.3437 69.5286 72.8715 69.638 72.4011C69.6743 72.2445 69.75 72.0823 69.8079 71.919C69.6887 71.6157 69.6186 71.3022 69.5969 70.987C69.5635 70.947 69.5303 70.9059 69.4988 70.8616C68.7711 69.8321 68.9181 68.5917 69.6107 67.7586C69.6139 67.7056 69.6188 67.6526 69.6259 67.5999C69.5854 67.508 69.5481 67.4151 69.5142 67.3213C68.8375 66.6335 68.3407 65.8059 68.4334 64.7803C68.4878 64.1769 68.7339 63.6337 69.1064 63.2278C69.0403 63.0309 69.034 62.8028 69.1141 62.6124C68.5196 61.0192 68.5947 59.1003 69.0227 57.3184C68.9283 57.0472 68.8793 56.7531 68.8898 56.4413C68.9388 55.1186 70.075 53.9033 71.421 53.9192C71.5831 53.9206 71.7348 53.9419 71.8806 53.9731L71.8825 53.9416C71.9341 53.5446 72.0424 53.1777 72.2006 52.8485C72.1229 52.8202 72.0508 52.7795 71.9877 52.7254C71.1252 53.189 70.2126 53.5433 69.2557 53.7848C68.5521 53.9623 67.8314 53.1566 68.2687 52.4912C68.4717 52.1824 68.6956 51.9052 68.9368 51.6519C68.5939 51.6539 68.2457 51.6773 67.8934 51.7229C67.2606 51.8057 66.5544 51.3707 66.1436 50.7824C65.6332 51.2826 65.121 51.781 64.6088 52.2795C63.3117 53.5458 61.3522 52.6141 61.1476 50.9444C60.7613 50.8405 60.4012 50.6644 60.0848 50.4125C58.0396 51.3073 55.8388 51.7987 53.589 51.892C51.9738 51.9589 51.0298 50.0638 51.785 48.7253C52.2919 47.827 52.9212 47.0204 53.6467 46.3194C52.5209 46.6664 51.3585 46.9165 50.1715 47.0767C49.53 47.163 48.6227 46.6276 48.3658 46.0341C47.3834 43.7515 47.4673 41.372 48.5983 39.1511C48.642 39.063 48.6909 38.9785 48.7381 38.8939C48.8552 38.5998 48.9828 38.3092 49.1209 38.0239C47.7295 36.5621 47.6089 34.3887 48.3588 32.5693C48.0581 32.0779 47.9427 31.4861 48.1473 30.9507C48.7294 29.4096 49.5684 27.9865 50.6278 26.7642C50.5264 26.5669 50.4372 26.3574 50.3621 26.1319C49.766 24.309 50.4565 22.1092 51.8497 20.8394C52.7255 20.0397 53.7323 19.5607 54.8074 19.2542C55.2601 18.4476 55.8423 17.7202 56.5205 17.1073C56.5467 17.0491 56.5729 16.991 56.6027 16.9329C57.6585 14.9286 59.5814 13.8542 61.6423 13.6059C61.7227 12.8221 62.2472 12.0736 63.0093 11.8305C63.2191 11.1525 63.532 10.5043 63.962 9.91606C64.6385 8.98964 65.7625 8.55285 66.8219 9.16048C67.4022 9.49336 67.9581 9.87555 68.479 10.2983C68.713 10.1877 68.9782 10.1162 69.2775 10.0933L69.353 10.0887L71.0766 10.0006C71.7986 9.67829 72.5188 9.34013 73.2407 9.01078C73.6743 8.64972 74.1585 8.34855 74.6864 8.12487C75.2842 7.87301 75.8961 7.73035 76.5096 7.68279C77.0078 7.519 77.5095 7.37457 78.02 7.26185C79.2191 6.99767 80.4742 6.84972 81.7189 6.86205C81.7443 6.53748 81.757 6.20902 81.7545 5.87668L81.7521 5.71019C81.7241 4.64463 82.5684 3.79395 83.5631 3.64248ZM82.3549 88.896C82.1836 88.9329 82.0106 88.9629 81.8375 88.984C81.8899 89.1144 81.9424 89.2447 81.9931 89.375C82.1329 89.4543 82.2745 89.53 82.4161 89.6005C82.3742 89.3609 82.3497 89.1196 82.3549 88.896ZM73.3739 86.2071L73.2577 86.4227C73.2389 86.4579 73.2203 86.4928 73.2021 86.5271C73.4486 86.5077 73.6968 86.513 73.9415 86.5412L73.9408 86.5149C73.9094 86.5042 73.8779 86.4943 73.8478 86.4795C73.679 86.3978 73.522 86.3062 73.3739 86.2071ZM78.2278 76.37C79.7743 76.4607 81.0846 76.6996 82.4911 77.3813L82.6119 77.4408C83.8548 78.0625 85.9105 79.2109 85.7375 80.8576C85.6885 81.3261 85.3511 81.8193 84.8197 81.7823C83.3636 81.6819 82.5315 80.2024 81.5456 79.2795C80.5509 78.3496 79.329 77.3932 78.1246 76.7539C77.9544 76.6639 78.0214 76.379 78.2067 76.3698L78.2278 76.37ZM71.2146 54.6731C70.844 54.6854 70.9681 55.0482 71.1586 54.7453C71.1743 54.7206 71.1936 54.696 71.2146 54.6731ZM91.2187 30.452C87.7089 30.545 84.1766 32.6329 81.5474 34.7434C79.26 36.5795 77.2849 38.7635 75.5359 41.1174C75.086 42.2897 74.6997 43.4865 74.3733 44.692C74.1583 45.4881 74.0237 46.293 73.8436 47.0962L73.7877 47.3424C73.6463 47.6087 73.5412 47.8952 73.4647 48.1913C73.7833 48.5133 74.1967 48.7438 74.6519 48.8532C74.7986 48.8884 74.9204 48.9647 75.0168 49.0658C75.3832 48.4497 75.7034 47.7994 75.8897 47.1101L75.8966 47.0782C76.6009 45.9159 77.3658 44.7898 78.1858 43.7022C80.4478 40.6993 82.9388 37.9623 85.9332 35.685C88.204 33.959 90.7422 32.6063 93.4412 31.7275C92.7806 31.1905 92.0303 30.7656 91.2187 30.452Z" fill="#231F20"/>
<path fill-rule="evenodd" clip-rule="evenodd" d="M122.981 95.7598C121.69 96.1356 120.305 96.1692 118.99 95.7811C117.797 95.429 116.572 94.6543 115.694 93.6292C114.914 92.7186 114.408 91.6119 114.428 90.4306C114.431 90.2957 114.479 90.1831 114.552 90.0956C114.632 90.0015 114.743 89.9369 114.862 89.9089C114.984 89.88 115.113 89.8903 115.223 89.9405C115.323 89.986 115.408 90.0633 115.462 90.1763C115.597 90.3545 115.731 90.5301 115.866 90.7008C116.951 92.0479 118.002 93.0546 119.633 93.4157C120.519 93.6116 121.403 93.5247 122.214 93.2258C123.082 92.9057 123.867 92.3431 124.482 91.623C124.76 91.2976 125.089 91.1648 125.41 91.1626C125.773 91.1601 126.133 91.33 126.403 91.6015C126.67 91.8684 126.848 92.2312 126.864 92.6106C126.878 92.9436 126.77 93.2915 126.483 93.6019C125.536 94.6242 124.309 95.3731 122.981 95.7598ZM122.941 78.8884C124.264 79.6969 126.279 81.5819 124.856 83.5861C123.181 85.3533 120.77 83.3271 119.581 82.4108C118.479 81.7006 117.241 83.5271 118.263 84.3564C126.851 90.7489 130.336 79.0998 123.61 77.9379C122.87 77.8099 122.595 78.6383 122.941 78.8884ZM110.567 75.3312C110.142 75.0578 109.641 74.964 109.087 75.2176C108.654 75.4156 107.894 76.0758 107.366 76.9437C107.004 77.5375 106.747 78.234 106.801 78.9596C106.813 79.1281 106.751 79.2523 106.654 79.3442C106.576 79.4167 106.465 79.47 106.334 79.4867C106.223 79.5008 106.099 79.4881 105.998 79.4563C105.805 79.396 105.703 79.2705 105.665 79.1681C105.295 78.1796 105.454 77.0766 105.869 76.0815C106.429 74.7385 107.446 73.6136 108.112 73.2509C109.252 72.6301 110.597 72.6015 111.739 73.234C112.71 73.7723 113.318 74.6414 113.922 75.5273C114.051 75.7156 114.178 75.9026 114.31 76.0862C114.574 76.4542 114.6 76.8192 114.498 77.1322C114.385 77.4789 114.096 77.7715 113.735 77.9246C113.401 78.0662 113.013 78.0861 112.67 77.9407C112.381 77.8178 112.115 77.5783 111.947 77.172C111.663 76.4877 111.191 75.7327 110.567 75.3312V75.3312ZM132.16 76.8537C131.869 77.0062 131.641 77.0522 131.318 76.9549C131.139 76.901 130.963 76.7976 130.825 76.6586C130.688 76.5209 130.589 76.3497 130.55 76.1597C130.456 75.6908 130.201 75.2518 129.837 74.9657C129.526 74.7211 129.134 74.5915 128.699 74.6646C128.229 74.7434 127.782 75.0462 127.474 75.4032C127.371 75.5226 127.29 75.6583 127.209 75.793C127.057 76.045 126.91 76.2792 126.7 76.4643C126.621 76.5347 126.501 76.5835 126.385 76.5835C126.338 76.5835 126.291 76.5758 126.245 76.5615C125.778 76.0899 125.688 75.7321 125.703 75.3773C125.719 75.0051 125.865 74.6284 126.1 74.2768C126.654 73.4522 127.704 72.7761 128.413 72.623C129.383 72.4133 130.347 72.665 131.12 73.21C131.915 73.7708 132.504 74.6415 132.688 75.6227C132.732 75.859 132.713 76.1141 132.624 76.3353C132.536 76.5514 132.384 76.7365 132.16 76.8537ZM112.707 66.5395C112.125 67.1101 111.435 67.1984 110.738 67.277C110.351 67.3211 110.041 67.3567 109.737 67.4257C108.9 67.6156 108.073 67.9016 107.318 68.3135C106.53 68.7441 105.67 69.2634 105.052 69.9286C104.905 70.0869 104.766 70.253 104.627 70.4195C104.501 70.5713 104.379 70.7174 104.25 70.8584C104.103 71.0202 103.963 71.1898 103.823 71.359C103.737 71.5018 103.72 71.5369 103.703 71.5734C103.676 71.6284 103.646 71.6898 103.611 71.7558C103.564 71.8461 103.508 71.9449 103.45 72.0346C103.353 72.1984 103.301 72.2435 103.256 72.2637C103.181 72.2971 103.11 72.3136 103.042 72.3047C102.977 72.2963 102.917 72.2652 102.857 72.2143C102.558 71.9603 102.47 71.5434 102.479 71.1009C102.492 70.4294 102.739 69.6859 102.966 69.2288C103.494 68.1668 104.226 67.0628 105.107 66.2702C106.112 65.3655 107.211 64.6805 108.474 64.2086C109.258 63.9152 110.167 63.6458 111.022 63.6799C111.637 63.7044 112.224 63.8883 112.709 64.3475C113.007 64.6294 113.15 65.0304 113.15 65.4312C113.15 65.8399 113.002 66.251 112.707 66.5395ZM133.345 71.7642C133.308 71.8253 133.256 71.8673 133.199 71.8926C133.139 71.9191 133.073 71.9267 133.009 71.9159C132.945 71.9051 132.884 71.876 132.836 71.8316C132.79 71.789 132.755 71.7325 132.739 71.6633C132.352 69.9557 131.602 68.6852 129.999 67.8659C129.211 67.4629 128.304 67.2068 127.446 67.0026C127.196 66.9433 126.933 66.9048 126.668 66.8659C125.836 66.7438 124.998 66.604 124.456 65.928C124.129 65.5209 123.992 65.0002 124.07 64.524C124.143 64.0756 124.403 63.6645 124.877 63.4181C126.056 62.805 127.522 63.4066 128.713 63.9191C128.801 63.9571 128.888 63.9944 128.973 64.0304C130.137 64.5247 131.2 65.1771 132.073 66.1102C132.766 66.8504 133.408 67.9447 133.666 69.0705C133.881 70.007 133.831 70.9631 133.345 71.7642Z" fill="#231F20"/>
</svg>
