<?xml version="1.0" encoding="UTF-8" standalone="no"?>
<!-- Created with Inkscape (http://www.inkscape.org/) -->

<svg
   version="1.1"
   id="svg2"
   width="331.50668"
   height="75.58667"
   viewBox="0 0 331.50668 75.58667"
   sodipodi:docname="CRA_EN_CMYK_vector[1].eps"
   xmlns:inkscape="http://www.inkscape.org/namespaces/inkscape"
   xmlns:sodipodi="http://sodipodi.sourceforge.net/DTD/sodipodi-0.dtd"
   xmlns="http://www.w3.org/2000/svg"
   xmlns:svg="http://www.w3.org/2000/svg">
  <defs
     id="defs6" />
  <sodipodi:namedview
     id="namedview4"
     pagecolor="#ffffff"
     bordercolor="#000000"
     borderopacity="0.25"
     inkscape:showpageshadow="2"
     inkscape:pageopacity="0.0"
     inkscape:pagecheckerboard="0"
     inkscape:deskcolor="#d1d1d1" />
  <g
     id="g8"
     inkscape:groupmode="layer"
     inkscape:label="ink_ext_XXXXXX"
     transform="matrix(1.3333333,0,0,-1.3333333,0,75.586667)">
    <g
       id="g10"
       transform="scale(0.1)">
      <path
         d="m 579.906,0.0117188 h 19.891 V 566.926 H 579.906 V 0.0117188"
         style="fill:#eb2629;fill-opacity:1;fill-rule:nonzero;stroke:none"
         id="path12" />
      <path
         d="m 232.148,492.668 c 1.739,0 3.157,-1.406 3.157,-3.148 0,-1.727 -1.418,-3.141 -3.157,-3.141 -1.726,0 -3.144,1.414 -3.144,3.141 0,1.742 1.418,3.148 3.144,3.148 m 0,-12.277 c 5.063,0 9.161,4.089 9.161,9.129 0,0.839 -0.118,1.652 -0.329,2.414 2.18,-0.704 4.379,-1.641 6.602,-2.852 0.793,1.238 2.141,3.137 3.441,4.988 -12.035,6.782 -26.503,6.731 -37.16,-1.172 1.16,-1.382 2.586,-3.191 3.813,-4.546 1.844,1.218 3.679,2.207 5.508,2.976 -0.121,-0.586 -0.18,-1.183 -0.18,-1.808 0,-5.04 4.101,-9.129 9.144,-9.129"
         style="fill:#231f20;fill-opacity:1;fill-rule:nonzero;stroke:none"
         id="path14" />
      <path
         d="m 278.148,396.418 c 16.547,18.809 18.961,45.406 4.454,72.09 -2.582,-1.25 -4.043,-1.985 -6.551,-3.266 11.703,-25.762 13.262,-43.406 -3.278,-63.679 -16.394,-20.118 -31.613,-23.985 -48.14,-45.606 -15.07,-19.734 -8.379,-39.121 -3.649,-54.426 2.918,0.969 5.664,1.907 7.762,2.668 -6.242,17.481 -8.605,33.156 1.977,47.293 14.097,18.879 30.336,25.5 47.425,44.926"
         style="fill:#231f20;fill-opacity:1;fill-rule:nonzero;stroke:none"
         id="path16" />
      <path
         d="m 254.813,395.945 c 16.609,14.028 23.414,34.184 17.101,54.035 -2.812,-0.539 -4.996,-0.949 -7.777,-1.523 5.355,-17.156 1.293,-33.926 -13.375,-46.887 -14.969,-13.211 -33.559,-17.273 -52.141,-34.168 -17.422,-15.839 -15.48,-37.468 -9.125,-59.464 2.649,0.675 4.637,1.449 7.723,2.128 -4.922,16.411 -8.598,36.243 6.476,51.243 14.903,14.824 36.141,22.011 51.118,34.636"
         style="fill:#231f20;fill-opacity:1;fill-rule:nonzero;stroke:none"
         id="path18" />
      <path
         d="m 224.309,394.902 c 19.539,7.696 31.953,22.149 32.777,41.114 -2.699,0.285 -5.625,0.515 -7.496,0.664 -1.731,-18.489 -13.235,-29.239 -28.469,-35.188 -14.973,-5.855 -36.512,-6.25 -52.32,-22.762 -14.207,-14.851 -14.508,-33.855 -7.414,-55.167 2.66,0.667 5.105,1.332 7.574,1.945 -4.371,16.562 -8.121,33.332 5.934,48.398 14.05,15.059 33.949,14.903 49.414,20.996"
         style="fill:#231f20;fill-opacity:1;fill-rule:nonzero;stroke:none"
         id="path20" />
      <path
         d="m 283.535,21.6016 c -2.512,2.207 -5.387,3.7109 -8.199,5.0781 2.363,3.9844 7.445,6.25 11.91,5.5 -0.504,-3.918 -1.75,-7.5703 -3.711,-10.5781 m -44.019,-9.9532 c -2.407,2.5313 -4.141,6.211 -5.024,10.3321 4.449,2.2578 8.711,1.1445 11.403,-1.5313 -2.68,-2.8828 -4.989,-5.9375 -6.379,-8.8008 m -33.582,32.168 c 3.027,-0.8359 6.191,-3.9726 6.964,-7.8594 -3.285,-0.2422 -6.359,-0.8203 -8.812,-1.7265 -0.063,3.2304 0.543,6.5703 1.848,9.5859 m 0.492,27.082 c 1.969,2.5313 4.254,4.6094 6.773,6.2188 2.481,-2.3984 3.586,-8.2695 2.614,-12.6445 -2.684,2.4804 -6.415,5.2734 -9.387,6.4257 M 150.41,209.609 c 0.496,-12.421 -0.586,-27.043 -3.871,-37.136 3.055,-1.672 6.094,-4.18 8.039,-6.125 -4.269,-5.481 -10.851,-16.493 -13.035,-23.282 4.492,-3.886 7.891,-9.304 9.324,-15.273 -7.027,-0.156 -14.187,-4.91 -15.832,-13.23 -6.344,2.039 -10.972,5.625 -13.68,12.91 -2.015,-0.762 -4.468,-1.821 -6.527,-2.649 0.684,-2.246 2.457,-6.054 5.824,-9.609 -1.797,-1.184 -3.496,-2.649 -5.05,-4.336 -4.43,2.234 -10.774,2.676 -16.0825,-0.488 -2.4804,9.211 1.1285,18.527 10.3245,25.734 -1.406,2.09 -2.813,4.195 -4.199,6.285 -5.454,-3.765 -9.2895,-8.308 -11.7075,-13.16 -0.9844,0.066 -2.0391,0.047 -3.125,-0.02 -1.0078,6.043 -5.1641,10.665 -9.7187,12.391 5.9726,7.449 15.375,10.957 24.2192,11.984 -0.274,2.665 -0.512,4.637 -0.805,7.45 -2.621,-0.313 -5.0666,-0.782 -7.3635,-1.367 0.6914,3.906 0.2578,8.261 -1.2695,11.542 8.809,1.68 18.578,-0.078 24.469,-3.527 1.554,24.27 -2.895,49.848 -5.074,61.43 -1.711,9.09 1.062,11.57 9.046,13.496 20.118,4.871 43.747,11.226 69.914,19.422 1.196,-1.192 2.34,-2.266 3.383,-3.203 -1.425,-1.153 -2.75,-2.098 -4.461,-3.348 4.641,-5.727 9.868,-14.27 12.02,-21.105 -4.981,-17.532 12.953,-21.661 21.23,-14.571 0.703,-1.543 1.356,-3.105 1.993,-4.668 -20.801,-4.148 -54.704,-7.48 -77.985,-5.547 m -0.738,-97.714 c -3.356,0.378 -6.442,0.773 -9.274,1.308 1.438,5.449 6.262,9.055 11.204,8.985 0.062,-3.418 -0.524,-6.883 -1.93,-10.293 m -48.109,-6.653 c 2.914,1.867 7.207,2.113 10.457,0.93 -1.786,-2.93 -3.125,-6.1915 -3.735,-9.6017 -2.918,2.7774 -5.144,5.6957 -6.722,8.6717 m -23.4614,31.684 c 3.2031,-0.969 6.3164,-4.543 7.25,-8.254 -4.3164,-0.672 -8.4102,-1.809 -10.2969,-2.871 0.3828,4.289 1.4609,7.961 3.0469,11.125 m 5.3281,28.523 c 2.0664,1.856 4.4922,3.25 7.1211,4.278 1.5273,-2.352 1.8555,-6.321 1.2344,-9.598 -3.1172,2.359 -6.2422,4.246 -8.3555,5.32 m 139.9373,60.567 c -6.48,-6.805 -16.219,-1.161 -11.32,8.379 -1.621,6.25 -5.195,13.378 -9.188,19.445 8.512,-8.598 15.317,-17.981 20.508,-27.824 M 69.9883,251.672 c -1.0938,2.098 -4.4258,3.758 -7.8164,6.148 2.9179,3.735 8.7734,5.207 13.2187,3.469 -1.1718,-3.691 -3.0547,-6.914 -5.4023,-9.617 m -34.1211,2.644 c -2.3984,2.051 -4.5117,4.446 -6.1406,7.032 2.9765,2.734 8.3828,3.215 12.0898,1.613 -2.7148,-2.844 -5.1992,-6.273 -5.9492,-8.645 M 9.45313,291.238 c 1.17187,3.789 2.85937,6.946 4.98827,9.555 2.7774,-1.273 5.25,-4.863 5.5703,-8.73 -3.5859,0.398 -7.2617,0.132 -10.55857,-0.825 M 33.0234,330.09 c 0.1797,-3.274 -1.7695,-7.602 -4.1718,-10.129 -1.7071,2.383 -3.6875,4.609 -5.7657,6.316 3.1446,1.848 6.5157,3.125 9.9375,3.813 m 68.5466,75.191 c -4.0075,-1.765 -7.8356,-2.312 -11.902,-2.144 -2.2227,11.121 -7.6407,23.093 -14.8242,33.074 C 70.2539,430.449 65.5625,424.043 59,420.41 c -1.9883,6.074 -7.7773,11.238 -15.4609,11.348 0.707,5.859 2.9453,11.426 10.5468,13.125 -0.7851,2.695 -1.7421,5.918 -2.3242,7.785 -4.6172,-0.883 -8.3476,-3.164 -11.0469,-6.23 -1.082,5.242 -5.1718,10.898 -11.7304,12.722 7.4414,11.145 20.4101,9.617 31.3437,0.137 1.6836,1.609 3.7344,3.711 5.461,5.586 -5.1407,5.039 -10.5586,8.105 -15.8711,9.472 5.6836,2.2 9.2461,8.172 9.6953,13.165 9.4336,-3.665 16.7383,-10.957 19.7656,-18.704 2.8711,1.321 4.6094,2.102 7.1524,3.235 -1.2149,2.754 -2.7305,5.285 -4.461,7.617 3.8985,-1.047 8.5977,-0.984 12.3399,0.227 3.7148,-9.829 3.5976,-22.942 -1.7774,-33.442 26.3872,-13.14 47.3942,-24.773 73.8442,-40.965 -1.532,-0.586 -3.024,-1.218 -4.543,-1.894 -14.969,-6.707 -23.938,-19.324 -26.778,-33.289 -10.996,9.011 -23.453,19.55 -33.586,34.976 m -59.0309,12.512 c 0.6054,2.148 0.5742,5.234 0.6523,8.574 4.543,-0.222 8.9141,-3.828 10.2813,-8.191 -3.1954,-0.84 -6.7969,-1.059 -10.9336,-0.383 m -18.4844,28.301 c 0.5781,3.086 1.3828,5.801 2.3476,8.152 4.1407,-0.711 7.9102,-5.047 8.711,-9.141 -3.6719,1.008 -7.7695,1.399 -11.0586,0.989 m 30.3437,43.039 c 0.1485,-3.176 -2.0703,-7.18 -5.5898,-9.16 -1.0664,3.867 -2.6719,7.539 -4.5234,9.976 3.5078,0.207 6.8984,-0.086 10.1132,-0.816 m 37.6758,-4.367 c -2.5195,-0.664 -5.6484,-0.578 -8.1914,0.117 1.293,1.789 2.3945,3.808 3.0156,5.957 1.9922,-1.57 3.7266,-3.652 5.1758,-6.074 m 76.8668,-34.453 c -16.296,-3.809 -20.507,13.066 -16.132,20.351 2.675,-9.883 12.511,-17.226 36.355,-12.82 14.039,2.594 26.941,1.472 41.109,-3.559 0.137,-0.906 0.239,-1.836 0.25,-2.859 0.008,-0.828 -0.062,-1.613 -0.218,-2.363 -23.625,6.027 -46.344,4.765 -61.364,1.25 m 41.446,18.527 c 7.304,-1.067 13.582,-3.149 17.101,-7.727 -12.883,4.043 -24.066,5.149 -39.148,2.305 4.465,3.992 12.34,6.816 22.047,5.422 m -14.418,-28.02 c -0.981,1.465 -2.606,3.914 -4.375,6.477 15.562,0.391 26.66,-1.184 35.551,-3.469 -6.188,-5.168 -19.774,-4.734 -31.176,-3.008 m 25.16,114.493 c 10.219,-1.172 19.187,-8.719 24.285,-19.161 2.672,10.957 9.313,18.848 15.344,22.559 6.035,-3.711 12.676,-11.602 15.347,-22.559 5.11,10.442 14.055,17.989 24.282,19.161 -0.762,-3.821 -3.231,-14.766 -5.293,-23.848 H 226.43 c -2.067,9.082 -4.551,20.027 -5.301,23.848 m 70.848,-37.493 h -62.43 c 0,0 -0.781,3.41 -1.875,8.203 h 66.176 c -1.09,-4.793 -1.871,-8.203 -1.871,-8.203 M 418.145,286.367 c 0.039,-22.89 -15.375,-37.519 -23.813,-40.945 0.469,16.219 -10.648,19.617 -11.445,31.695 -5.645,-0.113 -18.192,-4.449 -20.137,-15.254 -1.406,-7.793 2.184,-13.582 1.273,-19.558 -15.511,4.785 -33.664,17.343 -33.3,44.062 0.382,27.844 18,41.961 43.781,55.071 23.715,-16.157 43.578,-27.454 43.641,-55.071 m 14.371,130.149 c 8.75,5.293 16.632,15.476 17.382,29.949 1.133,22.043 -18.218,32.187 -23.043,49.004 -11.292,-5.41 -23.492,-19.656 -23.492,-35 0,-13.567 7.907,-22.813 13.325,-28.465 1.734,1.805 3.324,3.465 4.984,5.418 -5.457,5.183 -11.598,16.277 -11.074,23.262 0.672,9.265 5.867,18.535 13.101,23.504 4.227,-8.973 19.571,-23.036 18.75,-37.489 -0.679,-11.75 -7.465,-20.117 -16.953,-25.769 -0.551,-34.348 -16.719,-55.61 -44.34,-68.567 -44.269,-20.8 -56.636,-37.566 -57.898,-65.996 -1.36,-30.488 24.879,-49.961 46.797,-53.562 3.789,11.062 -0.637,18.875 0.05,25.554 0.52,5.118 2.418,8.282 7.606,10.02 1.023,-4.59 7.41,-9.824 8.68,-16.602 1.265,-6.797 0.812,-10.91 -2.297,-19.472 24.984,9.675 42.621,27.422 41.488,54.062 -1.367,32.473 -22.367,44.571 -43.852,58.633 1.653,0.801 3.325,1.594 5.032,2.383 2.785,1.289 5.406,2.683 7.894,4.148 29.446,-19.097 45.282,-33.875 45.211,-67.547 -0.062,-29.148 -15.387,-53.757 -54.531,-67.019 0.016,-26.516 -10.336,-60.235 -46.293,-60.235 -24.984,-0.949 -44.895,20.411 -48.945,37.887 -3.438,-1.179 -7.657,-3.711 -11.094,-9.937 -2.149,-3.91 -3.906,-8.696 -4.512,-15.16 -1.719,-17.809 7.246,-31.852 25.899,-41.817 4.922,-2.637 5.363,-4.273 1.273,-9.551 -4.453,-5.742 -9.809,-13.445 -15.531,-24.1364 2.519,-3.5273 4.476,-7.6679 5.976,-10.957 -5.992,-4.6211 -13.375,-12.707 -19.496,-20.5781 9.528,-5.1563 14.289,-14.961 14.832,-24.4453 -6.523,0.8125 -14.007,-2.0664 -17.136,-8.9532 -1.289,0.6758 -2.536,1.3789 -3.625,2.1875 -4.68,3.418 -7.899,9.375 -9.313,13.9649 -1.879,-0.918 -4.07,-2.1211 -6,-3.0469 1.406,-3.8359 3.109,-7.7148 6.371,-11.6016 -2.449,-1.6015 -5.183,-3.75 -7.816,-6.1523 -3.949,3.918 -9.992,5.5547 -16.071,3.2109 -0.128,6.6719 1.942,13.6836 6.938,18.461 -1.926,1.8945 -3,3.0351 -5.027,5.0468 -4.731,-3.7695 -7.739,-9.6757 -8.871,-16.2695 -2.614,0.6367 -5.516,1.0078 -8.438,1.1406 -0.637,5.8711 -4.894,10.9024 -9.602,12.5391 3.735,4.3984 9.7,7.082 18.25,5.8398 0.633,2.7461 1.008,4.7071 1.649,7.7266 -2.332,0.5156 -4.828,0.6836 -7.359,0.5156 1.386,5.3633 0.281,12.668 -3.032,17.0625 9.535,3.4766 21.192,1.4766 31.907,-6.6406 1.273,12.5859 5.644,35.7226 10.195,49.2066 -15.133,1.465 -32.633,15.754 -37.731,34.797 -5.351,19.981 -0.582,38.993 16.547,51.387 -6.746,26.426 -25.476,44.856 -36.238,55.422 -10.754,10.562 -28.434,27.344 -34.629,49.375 -15.121,-5.82 -35.355,-11.848 -54.141,-14.223 -1.003,-5.32 -2.64,-8.941 -4.914,-12.383 -7.332,3.11 -25.5035,4.883 -37.7262,1.457 4.1367,-7.832 5.4727,-14.863 4.9258,-20.949 -6.1523,2.063 -13.8789,0.422 -18.5,-5.879 -3.0313,3.196 -5.1875,7.59 -4.2852,14.36 -1.9375,0.554 -4.957,1.406 -7.6445,2 -0.9023,-3.094 -1.0351,-6.707 -0.2344,-10.332 -4.7968,2.949 -12.6757,3.586 -18.6289,-0.989 -2.9726,8.332 -0.6093,17.579 11.9688,23.86 -0.8164,2.605 -1.6446,5.019 -2.4727,7.617 -4.4804,-2.07 -8.0781,-4.434 -10.8828,-7.031 -0.0976,0.051 -0.1953,0.066 -0.2891,0.09 0.2774,5.679 -3.1796,11.113 -7.1757,13.75 5.9179,4.441 13.8945,5.859 23.0625,4.187 0.664,2.305 1.4218,4.629 2.1562,7.109 -3.5547,0.832 -7.0273,1.204 -10.375,1.106 3.3047,3.609 5.4922,9.18 5.1953,13.719 11.4727,0.273 22.7735,-5.918 28.1524,-19.16 22.4648,15.527 42.8985,28.398 68.0625,41.777 0.738,-5.266 2.297,-10.449 4.687,-15.36 2.25,1.114 4.672,2.352 6.973,3.512 -9.363,23.567 -1.918,46.352 19.434,55.793 23.804,10.535 41.449,7.559 60.129,15.637 6.3,2.723 10.804,9.754 11.707,15.516 -17.828,-4.622 -34.746,-3.528 -50.989,1.472 0.446,1.485 1.477,6.508 2.368,7.988 0.742,-1.179 2.355,-3.113 2.808,-3.992 1.91,-0.293 11.656,-2.148 22.438,-1.633 11.808,0.598 23.765,5.325 23.925,18.618 0.153,14.461 -7.98,23.32 -27.468,25.222 -12.914,1.27 -20.535,-2.363 -24.364,-5.168 -0.836,2.239 -3.113,8.567 -4.425,12.571 7.644,3.613 20.961,8.839 27.156,10.461 3.703,5.015 11.07,13.281 25.113,15.64 14.02,2.375 28.633,-2.359 37.34,-7.222 4.148,4.136 14.379,6.382 20.527,6.46 2.828,-10.015 0.614,-20.957 -2.957,-30.105 9.68,-23.105 16.852,-43.699 6.946,-69.844 -8.258,-21.855 -22.266,-34.148 -34.957,-49.929 -12.7,-15.801 -15.551,-36.504 -9.629,-57.317 3.019,0.891 4.914,1.348 7.285,2.012 -5.387,20.754 -3.676,34.973 8.254,50.351 1.133,1.477 2.308,2.93 3.496,4.336 -1.809,-12.558 -2.274,-25.214 -1.285,-38.242 2.652,-35.344 15.058,-50.566 23.093,-80.359 2.7,-9.973 3.43,-18.281 2.051,-26.262 6.543,-21.476 19.449,-43.945 42.762,-43.945 23.559,0 34.977,21.504 34.977,47.207 -37.493,8.789 -64.168,32.187 -63.708,69.609 0.407,31.875 15.469,53.809 63.77,74.348 32.223,13.699 41.113,36.18 42.992,60.215 -14.012,9.722 -21.371,28.933 -20.105,42.925 1.125,12.629 12.308,33.528 30.468,40.754 -0.457,2.942 -0.644,5.176 -0.714,8.496 -21.844,-8.593 -36.973,-31.804 -37.672,-48.957 -0.91,-21.687 8.797,-37.144 20.187,-46.355 -2.715,-23.777 -9.707,-34.813 -30.828,-46.57 -15.414,11.05 -22.609,22.097 -23.238,47.781 8.68,7.051 21.398,18.027 23.187,38.184 2.059,23.222 -16.937,46.589 -35.972,55.683 -0.039,-2.551 -0.18,-4.766 -0.797,-8.183 14.664,-7.2 31.582,-27.872 28.902,-47.293 -2.383,-17.141 -11.801,-26.196 -23.109,-34.922 2.308,-30.774 6.066,-41.243 24.414,-54.707 -1.363,-0.688 -2.762,-1.379 -4.231,-2.082 -2.468,-1.114 -4.843,-2.254 -7.152,-3.379 -20.922,18.488 -24.098,33.789 -22.977,59.922 -7.863,6.503 -16.734,16.535 -14.675,27.253 3.121,16.223 14.722,24.661 19.988,35.083 7.484,-6.567 12.629,-14.758 11.547,-23.528 -1.149,-9.211 -4.985,-13.113 -11.625,-19.824 1.594,-1.992 2.992,-3.594 4.984,-5.938 6.801,6.668 12.719,13.731 13.871,24.415 1.578,14.558 -9.734,29.421 -21.59,36.296 -4.039,-13.054 -22.472,-28.093 -24.347,-45.261 -1.469,-13.418 5.836,-23.75 14.883,-30.95 -0.414,-28.281 4.968,-44.363 23.16,-60.945 -34.696,-18.496 -49.981,-39.285 -50.598,-72.461 -0.769,-41.894 28.641,-65.508 63.117,-74.941 -0.05,-17.41 -8.625,-34.414 -26.425,-34.414 -19.645,0 -30.946,19.375 -35.657,35.117 1.559,8.105 1,17.059 -2.34,29.797 -8.972,34.168 -20.218,45.191 -22.949,78.191 -1.316,15.828 0.231,34.141 3.047,49.141 8.52,9.863 17.094,20.898 23.563,38.633 9.714,26.562 2.812,51.504 -6.168,71.543 4.211,11.101 4.941,24.421 0.5,33.757 l 10.925,49.25 c -12.132,0.555 -26.566,-5.097 -31.257,-13.203 -3.032,8.797 -10.93,14.492 -16.676,17.676 -5.746,-3.184 -13.633,-8.879 -16.672,-17.676 -4.691,8.106 -19.121,13.758 -31.27,13.203 l 10.782,-48.574 c -8.399,-3.113 -15.723,-8.32 -18.676,-13.254 -7.777,-2.359 -21.606,-7.879 -32.047,-12.996 1.852,-6.211 5.898,-17.195 9.395,-25.105 -13.325,-1.289 -26.102,2.656 -25.008,18.418 -11.766,-3.52 -16.321,-19.778 -7.274,-30.871 9.516,-11.641 19.582,-4.825 34.735,-3.164 -3.024,-6.602 -5.493,-15.997 -6.176,-21.309 9.805,-5.449 32.25,-8.027 41.094,-7.5 -6.883,-3.32 -23.914,-3.672 -42.727,-9.082 -32.734,19.824 -51.016,29.883 -74.449,41.562 5.918,12.715 3.586,42.422 -19.8634,51.731 -0.6914,-5.656 -3.6016,-11.809 -7.3868,-15.449 -11.1132,9.07 -27.0156,12.215 -42.9062,7.261 5.4492,-5.371 8.8359,-12.742 10.0586,-18.914 -15.3711,-0.664 -27.9414,-15.703 -26.7383,-38.418 6.7344,2.715 14.9141,2.957 20.4102,0.528 -1.3164,-5.95 0.5429,-18.789 -4.8243,-24.5 19.5235,-7.524 35,-0.117 42.8907,9.715 5.0312,-8.782 7.25,-16.375 8.6679,-27.09 7.0313,-0.489 11.0821,-0.332 15.7618,0.898 7.0668,-11.035 25.6448,-27.14 35.6408,-34.863 -0.004,-0.195 -0.004,-0.41 -0.004,-0.606 -24.606,-12.734 -42.7345,-23.214 -64.4454,-37.05 -8.5157,14.582 -40.1368,22.402 -58.5157,1.562 4.7032,-1.816 8.8243,-6.262 11.1836,-10.391 C 10.0352,310.461 1.07813,298.586 0,281.016 c 5.03906,2.609 13.3203,3.652 20.2266,2.375 -7.5977,-15.11 3.9922,-33.743 21.0195,-42.532 -0.5977,6.524 2.6406,14.579 8.0078,18.719 0.2383,-0.348 0.4727,-0.683 0.7305,-1.023 4.6875,-6.094 14.75,-11.004 20.25,-18.274 12.0937,10.395 18.0351,26.77 12.5703,41.762 9.1328,1.172 21.4723,-1.516 30.5863,-4.387 2.98,4.578 5.847,9.168 7.656,14.68 13.894,1.863 29.652,5.769 43.547,11.031 3.636,-10.679 14.301,-24.742 23.633,-35.027 -24.696,-7.86 -43.504,-13.367 -65.473,-18.445 -14.941,-3.469 -17.805,-9.016 -15.336,-22.09 3.016,-15.989 4.727,-26.438 5.512,-49.375 -15.2933,4.754 -36.5277,-2.981 -41.7542,-16.086 7.2422,-2.117 11.9687,-4.832 14.6914,-7.071 -16.1055,-9.062 -20.418,-26.25 -18.918,-41.152 6.961,4.863 16.8281,8.035 24.4961,8.008 -3.2461,-15.164 5.6445,-31.4142 22.5777,-37.3438 0.415,9.8945 3.836,19.5628 12.954,25.4878 1.136,-0.632 2.359,-1.218 3.675,-1.718 8.485,-3.203 18.551,-1.985 22.578,-6.094 8.301,16.387 6.321,31.641 -3.093,41.504 3.316,7.195 9.636,17.637 13.718,22.91 -2.632,3.469 -6.605,7.285 -8.152,8.633 1.914,7.312 3.281,18.555 3.356,25.984 22.671,-0.105 47.062,1.938 66.238,5.258 -11.149,-11.32 -16.402,-30.07 -10.563,-51.484 5.418,-19.985 21.278,-33.918 36.036,-38.84 -1.278,-5.293 -4.879,-19.2971 -6.532,-31.3362 -15.343,7.6524 -39.554,4.5586 -49.941,-18.5664 6.683,-0.3906 12.269,-3.7812 15.558,-7.1601 -9.867,-5.293 -16.984,-16.9531 -12.101,-35.6797 8.453,4.1367 19.594,5.418 28.676,3.5742 C 226.855,16.7305 231.738,5.92969 241.516,0 c 6.597,12.3633 12.007,19.1875 22.023,25.1172 6.727,-5.168 15.699,-8.5938 20.309,-14.1406 18.101,16.2187 11.855,41.4726 -0.313,52.7148 4.645,5.8516 10.192,11.8164 17.211,17.1992 -1.199,3.4571 -3.676,8.4258 -5.976,12.7617 4.921,8.8867 9.035,15.1637 14.582,22.2927 5.898,7.61 4.32,12.961 -4.723,17.668 -10.449,5.403 -24.527,17.805 -23.281,34.973 0.41,5.664 2.785,10.144 5.632,14.195 8.141,-15.593 27.075,-33.543 52.063,-33.328 32.219,0.274 52.926,26.199 53.801,62.383 29.812,10.937 54.386,34.269 54.515,72.148 0.106,32.141 -12.769,49.59 -46.441,71.59 21.559,15.266 30.812,37.324 31.598,60.942"
         style="fill:#231f20;fill-opacity:1;fill-rule:nonzero;stroke:none"
         id="path22" />
      <path
         d="m 2466.43,0.0195313 h 19.88 V 566.926 h -19.88 V 0.0195313"
         style="fill:#254991;fill-opacity:1;fill-rule:nonzero;stroke:none"
         id="path24" />
      <path
         d="m 791.762,243.605 c -28.543,0 -35.981,13.79 -35.981,43.653 0,29.859 10.914,44.617 36.821,44.617 13.914,0 16.793,-4.082 19.07,-4.082 0.723,0 0.961,0.242 1.199,0.84 l 0.719,2.285 c 0.121,0.359 0.476,0.957 0.961,0.957 h 7.191 c 0.602,0 0.961,-0.48 0.961,-0.957 -0.961,-10.801 -0.359,-22.07 0,-28.906 0,-0.481 -0.359,-0.957 -0.961,-0.957 h -7.793 c -0.597,0 -0.961,0.476 -0.961,0.957 0,14.511 -0.476,23.867 -20.269,23.867 -20.508,0 -24.946,-17.395 -24.946,-38.02 0,-22.91 2.879,-38.257 23.266,-38.257 18.109,0 21.473,12.234 21.473,22.183 0,0.481 0.359,0.957 0.961,0.957 h 8.992 c 0.601,0 0.957,-0.359 0.957,-0.957 0,-14.871 -6.836,-28.18 -31.66,-28.18"
         style="fill:#100f0d;fill-opacity:1;fill-rule:nonzero;stroke:none"
         id="path26" />
      <path
         d="m 883.91,302.852 -36.461,-52.414 h 21.473 c 3.961,0 6.836,1.437 6.836,6.359 v 5.996 c 0,0.477 0.359,0.957 0.961,0.957 h 6.234 c 0.602,0 0.957,-0.48 0.957,-0.957 l -0.476,-17.273 c 0,-0.352 -0.481,-0.957 -0.957,-0.957 h -47.86 c -0.597,0 -0.957,0.359 -0.957,1.082 v 1.914 l 36.461,52.414 h -19.308 c -4.797,0 -7.918,-0.481 -7.918,-8.996 V 287.5 c 0,-0.48 -0.36,-0.957 -0.957,-0.957 h -6.239 c -0.601,0 -0.957,0.477 -0.957,0.957 l 0.477,17.871 c 0,0.481 0.363,0.957 0.957,0.957 5.164,-0.234 10.918,-0.476 17.031,-0.476 h 29.746 c 0.719,0 0.957,-0.364 0.957,-1.204 v -1.796"
         style="fill:#100f0d;fill-opacity:1;fill-rule:nonzero;stroke:none"
         id="path28" />
      <path
         d="m 922.207,243.605 c -18.352,0 -28.668,6.239 -28.668,29.981 0,23.75 11.274,33.223 28.906,33.223 16.434,0 25.067,-5.278 25.067,-31.418 0,-0.606 -0.36,-0.965 -0.957,-0.965 h -41.742 c 0,-22.309 8.757,-25.903 17.273,-25.903 10.07,0 14.394,8.391 14.394,13.071 0,0.476 0.356,0.957 0.958,0.957 h 8.398 c 0.594,0 0.957,-0.356 0.957,-0.957 -0.363,-10.91 -9.719,-17.989 -24.586,-17.989 m 14.273,36.102 c 0,19.543 -7.437,22.188 -14.273,22.188 -6.355,0 -15.953,-1.446 -17.269,-22.188 h 31.542"
         style="fill:#100f0d;fill-opacity:1;fill-rule:nonzero;stroke:none"
         id="path30" />
      <path
         d="m 1008.23,286.902 h -8.39 c -0.602,0 -0.961,0.481 -0.961,0.957 0,10.2 -5.516,13.911 -13.313,13.911 -9.957,0 -16.07,-5.637 -16.07,-26.145 0,-22.434 4.559,-26.98 15.469,-26.98 8.758,0 13.914,6.953 13.914,13.668 0,0.48 0.359,0.957 0.961,0.957 h 8.39 c 0.6,0 0.96,-0.36 0.96,-0.957 0,-11.875 -8.75,-18.708 -23.745,-18.708 -17.867,0 -27.105,6.473 -27.105,30.106 0,22.539 9.117,33.098 28.547,33.098 13.433,0 22.303,-4.68 22.303,-18.95 0,-0.601 -0.36,-0.957 -0.96,-0.957"
         style="fill:#100f0d;fill-opacity:1;fill-rule:nonzero;stroke:none"
         id="path32" />
      <path
         d="m 1025.42,330.918 h -6.84 c -0.48,0 -0.96,0.359 -0.96,0.957 v 4.082 c 0,0.598 0.36,0.957 0.96,0.957 h 18.23 c 0.6,0 0.96,-0.359 0.96,-0.957 v -37.422 c 4.92,5.274 10.68,8.274 20.03,8.274 15.59,0 18.83,-8.879 18.83,-17.266 v -36.828 c 0,-1.555 0.6,-2.156 2.16,-2.156 h 6.84 c 0.47,0 0.96,-0.364 0.96,-0.957 v -4.082 c 0,-0.598 -0.36,-0.957 -0.96,-0.957 h -28.19 c -0.6,0 -0.96,0.359 -0.96,0.957 v 4.082 c 0,0.593 0.48,0.957 0.96,0.957 h 6.84 c 1.56,0 2.16,0.601 2.16,2.156 v 24.473 c 0,11.992 2.04,22.902 -11.52,22.902 -13.55,0 -17.51,-8.52 -17.51,-12.11 0,-3.593 0.36,-4.796 0.36,-8.273 v -26.992 c 0,-1.555 0.6,-2.156 2.16,-2.156 h 6.84 c 0.48,0 0.95,-0.364 0.95,-0.957 v -4.082 c 0,-0.598 -0.35,-0.957 -0.95,-0.957 h -28.19 c -0.6,0 -0.96,0.359 -0.96,0.957 v 4.082 c 0,0.593 0.48,0.957 0.96,0.957 h 6.84 c 1.56,0 2.16,0.601 2.16,2.156 v 76.047 c 0,1.551 -0.6,2.156 -2.16,2.156"
         style="fill:#100f0d;fill-opacity:1;fill-rule:nonzero;stroke:none"
         id="path34" />
      <path
         d="m 1157.16,330.918 c 26.39,0 42.82,-5.637 42.82,-44.016 0,-36.707 -20.99,-42.339 -44.61,-42.339 h -30.95 c -0.6,0 -0.96,0.359 -0.96,0.957 v 4.082 c 0,0.593 0.48,0.957 0.96,0.957 h 7.56 c 1.56,0 2.16,0.601 2.16,2.156 v 70.051 c 0,1.55 -0.6,2.156 -2.16,2.156 h -7.56 c -0.6,0 -0.96,0.359 -0.96,0.957 v 4.07 c 0,0.61 0.48,0.969 0.96,0.969 h 32.74 m -9.95,-5.996 c -1.56,0 -2.16,-0.606 -2.16,-2.156 v -70.051 c 0,-1.555 0.6,-2.156 2.16,-2.156 h 8.16 c 15.35,0 32.74,2.761 32.74,36.343 0,33.578 -11.28,38.02 -31.06,38.02 h -9.84"
         style="fill:#100f0d;fill-opacity:1;fill-rule:nonzero;stroke:none"
         id="path36" />
      <path
         d="m 1240.09,243.605 c -18.35,0 -28.67,6.239 -28.67,29.981 0,23.75 11.28,33.223 28.91,33.223 16.43,0 25.06,-5.278 25.06,-31.418 0,-0.606 -0.36,-0.965 -0.96,-0.965 h -41.73 c 0,-22.309 8.75,-25.903 17.27,-25.903 10.07,0 14.39,8.391 14.39,13.071 0,0.476 0.36,0.957 0.96,0.957 h 8.4 c 0.6,0 0.95,-0.356 0.95,-0.957 -0.35,-10.91 -9.71,-17.989 -24.58,-17.989 m 14.27,36.102 c 0,19.543 -7.44,22.188 -14.27,22.188 -6.36,0 -15.95,-1.446 -17.27,-22.188 h 31.54"
         style="fill:#100f0d;fill-opacity:1;fill-rule:nonzero;stroke:none"
         id="path38" />
      <path
         d="m 1328.03,297.219 -18.69,-51.699 c -0.14,-0.481 -0.5,-0.957 -0.98,-0.957 h -10.07 c -0.48,0 -0.84,0.605 -0.97,0.957 l -19.66,52.41 c -0.48,1.32 -1.08,1.925 -2.16,1.925 h -2.52 c -0.47,0 -0.95,0.36 -0.95,0.958 v 4.082 c 0,0.593 0.35,0.957 0.95,0.957 h 24.72 c 0.59,0 0.95,-0.364 0.95,-0.957 v -4.082 c 0,-0.598 -0.49,-0.958 -0.95,-0.958 h -7.82 c -1.54,0 -1.77,-1.32 -1.31,-2.519 l 17.16,-45.102 15.47,44.985 c 0.6,1.551 -0.48,2.636 -2.04,2.636 h -7.44 c -0.47,0 -0.96,0.36 -0.96,0.958 v 4.082 c 0,0.593 0.35,0.957 0.96,0.957 h 21.11 c 0.6,0 0.96,-0.364 0.96,-0.957 v -4.082 c 0,-0.598 -0.48,-0.958 -0.96,-0.958 h -2.04 c -1.32,0 -2.27,-1.203 -2.76,-2.636"
         style="fill:#100f0d;fill-opacity:1;fill-rule:nonzero;stroke:none"
         id="path40" />
      <path
         d="m 1369.09,243.605 c -18.35,0 -28.67,6.239 -28.67,29.981 0,23.75 11.27,33.223 28.92,33.223 16.42,0 25.05,-5.278 25.05,-31.418 0,-0.606 -0.37,-0.965 -0.96,-0.965 h -41.74 c 0,-22.309 8.76,-25.903 17.27,-25.903 10.08,0 14.4,8.391 14.4,13.071 0,0.476 0.36,0.957 0.96,0.957 h 8.39 c 0.6,0 0.96,-0.356 0.96,-0.957 -0.36,-10.91 -9.71,-17.989 -24.58,-17.989 m 14.27,36.102 c 0,19.543 -7.44,22.188 -14.27,22.188 -6.36,0 -15.95,-1.446 -17.27,-22.188 h 31.54"
         style="fill:#100f0d;fill-opacity:1;fill-rule:nonzero;stroke:none"
         id="path42" />
      <path
         d="m 1422.97,252.715 c 0,-1.555 0.6,-2.156 2.17,-2.156 h 6.83 c 0.48,0 0.96,-0.364 0.96,-0.957 v -4.082 c 0,-0.598 -0.36,-0.957 -0.96,-0.957 h -28.19 c -0.6,0 -0.96,0.359 -0.96,0.957 v 4.082 c 0,0.593 0.48,0.957 0.96,0.957 h 6.85 c 1.55,0 2.14,0.601 2.14,2.156 v 76.047 c 0,1.551 -0.59,2.156 -2.14,2.156 h -6.85 c -0.48,0 -0.96,0.359 -0.96,0.957 v 4.082 c 0,0.598 0.36,0.957 0.96,0.957 h 18.23 c 0.61,0 0.96,-0.359 0.96,-0.957 v -83.242"
         style="fill:#100f0d;fill-opacity:1;fill-rule:nonzero;stroke:none"
         id="path44" />
      <path
         d="m 1498.55,276.941 c 0,-20.867 -7.32,-33.336 -28.54,-33.336 -21.24,0 -28.67,8.512 -28.67,29.981 0,21.473 9.11,33.223 28.54,33.223 21.23,0 28.67,-8.996 28.67,-29.868 m -46.05,-0.476 c 0,-14.395 2.64,-28.184 17.51,-28.184 14.87,0 17.37,10.672 17.37,25.664 0,14.993 -2.86,28.184 -17.5,28.184 -14.87,0 -17.38,-11.27 -17.38,-25.664"
         style="fill:#100f0d;fill-opacity:1;fill-rule:nonzero;stroke:none"
         id="path46" />
      <path
         d="m 1529.3,223.215 h 10.9 c 0.48,0 0.96,-0.363 0.96,-0.957 v -4.082 c 0,-0.598 -0.36,-0.957 -0.96,-0.957 h -32.26 c -0.6,0 -0.96,0.359 -0.96,0.957 v 4.082 c 0,0.594 0.48,0.957 0.96,0.957 h 6.85 c 1.54,0 2.14,0.601 2.14,2.156 v 72.324 c 0,1.555 -0.6,2.16 -2.14,2.16 h -6.85 c -0.48,0 -0.96,0.36 -0.96,0.958 v 4.082 c 0,0.593 0.36,0.957 0.96,0.957 h 18.23 c 0.6,0 0.96,-0.364 0.96,-0.957 v -6.36 c 4.92,5.274 10.55,8.274 20.02,8.274 15.6,0 22.56,-10.559 22.56,-30.461 0,-19.434 -8.52,-32.743 -27.11,-32.743 -8.28,0 -12.46,2.75 -15.47,4.793 v -23.027 c 0,-1.555 0.6,-2.156 2.17,-2.156 m 14.02,76.875 c -12.11,0 -16.55,-8.52 -16.55,-12.11 0,-3.593 0.36,-4.679 0.36,-8.273 v -11.641 c 0,-3.476 -0.36,-4.55 -0.36,-8.269 0,-3.359 2.53,-10.559 14.39,-10.559 12.71,0 17.39,10.196 17.39,26.028 0,10.308 -0.24,24.824 -15.23,24.824"
         style="fill:#100f0d;fill-opacity:1;fill-rule:nonzero;stroke:none"
         id="path48" />
      <path
         d="m 1672.41,250.559 h 6.83 c 0.49,0 0.96,-0.364 0.96,-0.957 v -4.082 c 0,-0.598 -0.36,-0.957 -0.96,-0.957 h -28.19 c -0.6,0 -0.95,0.359 -0.95,0.957 v 4.082 c 0,0.593 0.49,0.957 0.95,0.957 h 6.85 c 1.55,0 2.15,0.601 2.15,2.156 v 24.473 c 0,11.992 2.05,22.902 -10.07,22.902 -13.55,0 -16.07,-8.52 -16.07,-12.11 0,-3.593 0.35,-4.679 0.35,-8.402 v -26.863 c 0,-1.555 0.6,-2.156 2.17,-2.156 h 6.83 c 0.49,0 0.96,-0.364 0.96,-0.957 v -4.082 c 0,-0.598 -0.35,-0.957 -0.96,-0.957 h -28.19 c -0.59,0 -0.95,0.359 -0.95,0.957 v 4.082 c 0,0.593 0.48,0.957 0.95,0.957 h 6.84 c 1.57,0 2.16,0.601 2.16,2.156 v 24.473 c 0,11.992 2.04,22.902 -10.07,22.902 -13.56,0 -16.07,-8.52 -16.07,-12.11 0,-3.593 0.36,-4.679 0.36,-8.273 v -26.992 c 0,-1.555 0.6,-2.156 2.15,-2.156 h 6.85 c 0.46,0 0.95,-0.364 0.95,-0.957 v -4.082 c 0,-0.598 -0.35,-0.957 -0.95,-0.957 h -28.19 c -0.6,0 -0.96,0.359 -0.96,0.957 v 4.082 c 0,0.593 0.47,0.957 0.96,0.957 h 6.83 c 1.56,0 2.16,0.601 2.16,2.156 v 44.98 c 0,1.555 -0.6,2.16 -2.16,2.16 h -6.83 c -0.49,0 -0.96,0.36 -0.96,0.958 v 4.082 c 0,0.593 0.36,0.957 0.96,0.957 h 18.22 c 0.61,0 0.97,-0.364 0.97,-0.957 v -6.36 c 4.91,5.391 9.6,8.274 18.59,8.274 8.63,0 13.78,-2.524 16.19,-8.75 5.64,5.75 10.43,8.75 19.79,8.75 13.07,0 17.39,-5.996 17.39,-17.266 v -36.828 c 0,-1.555 0.6,-2.156 2.16,-2.156"
         style="fill:#100f0d;fill-opacity:1;fill-rule:nonzero;stroke:none"
         id="path50" />
      <path
         d="m 1716.72,243.605 c -18.35,0 -28.67,6.239 -28.67,29.981 0,23.75 11.29,33.223 28.9,33.223 16.44,0 25.08,-5.278 25.08,-31.418 0,-0.606 -0.36,-0.965 -0.96,-0.965 h -41.73 c 0,-22.309 8.75,-25.903 17.26,-25.903 10.08,0 14.4,8.391 14.4,13.071 0,0.476 0.35,0.957 0.95,0.957 h 8.4 c 0.59,0 0.95,-0.356 0.95,-0.957 -0.36,-10.91 -9.71,-17.989 -24.58,-17.989 m 14.28,36.102 c 0,19.543 -7.45,22.188 -14.28,22.188 -6.35,0 -15.95,-1.446 -17.27,-22.188 H 1731"
         style="fill:#100f0d;fill-opacity:1;fill-rule:nonzero;stroke:none"
         id="path52" />
      <path
         d="m 1758.26,299.855 h -6.83 c -0.5,0 -0.98,0.36 -0.98,0.958 v 4.082 c 0,0.593 0.37,0.957 0.98,0.957 h 18.21 c 0.61,0 0.97,-0.364 0.97,-0.957 v -6.36 c 4.91,5.274 10.67,8.274 20.02,8.274 15.6,0 18.84,-8.879 18.84,-17.266 v -36.828 c 0,-1.555 0.59,-2.156 2.16,-2.156 h 6.83 c 0.49,0 0.95,-0.364 0.95,-0.957 v -4.082 c 0,-0.598 -0.35,-0.957 -0.95,-0.957 h -28.19 c -0.6,0 -0.95,0.359 -0.95,0.957 v 4.082 c 0,0.593 0.48,0.957 0.95,0.957 h 6.84 c 1.56,0 2.16,0.601 2.16,2.156 v 24.473 c 0,11.992 2.04,22.902 -11.52,22.902 -13.55,0 -17.5,-8.52 -17.5,-12.11 0,-3.593 0.36,-4.679 0.36,-8.273 v -26.992 c 0,-1.555 0.6,-2.156 2.16,-2.156 h 6.83 c 0.48,0 0.97,-0.364 0.97,-0.957 v -4.082 c 0,-0.598 -0.37,-0.957 -0.97,-0.957 h -28.17 c -0.61,0 -0.98,0.359 -0.98,0.957 v 4.082 c 0,0.593 0.48,0.957 0.98,0.957 h 6.83 c 1.54,0 2.16,0.601 2.16,2.156 v 44.98 c 0,1.555 -0.62,2.16 -2.16,2.16"
         style="fill:#100f0d;fill-opacity:1;fill-rule:nonzero;stroke:none"
         id="path54" />
      <path
         d="m 1836.73,323.477 h 5.76 c 0.6,0 0.95,-0.477 0.95,-0.957 v -14.512 c 0,-1.563 0.6,-2.156 2.17,-2.156 h 16.3 c 0.61,0 0.97,-0.364 0.97,-0.957 v -4.082 c 0,-0.598 -0.48,-0.958 -0.97,-0.958 h -18.47 v -40.304 c 0,-5.996 3.13,-10.071 20.51,-8.516 0.61,0 0.97,-0.117 1.08,-0.715 l 0.48,-3.965 c 0.12,-0.593 -0.24,-1.074 -0.72,-1.187 -6.84,-0.969 -11.27,-1.563 -16.06,-1.563 -10.8,0 -15.48,4.793 -15.48,18.708 v 37.542 h -9.84 c -0.47,0 -0.95,0.36 -0.95,0.958 v 4.082 c 0,0.593 0.36,0.957 0.95,0.957 7.68,0 11.39,1.558 12.36,16.668 0,0.593 0.36,0.957 0.96,0.957"
         style="fill:#100f0d;fill-opacity:1;fill-rule:nonzero;stroke:none"
         id="path56" />
      <path
         d="m 1917.12,252.715 c -0.47,-1.438 0.13,-2.156 1.68,-2.156 h 7.57 c 0.6,0 0.95,-0.364 0.95,-0.957 v -4.082 c 0,-0.598 -0.35,-0.957 -0.95,-0.957 h -25.92 c -0.59,0 -0.95,0.359 -0.95,0.957 v 4.082 c 0,0.593 0.48,0.957 0.95,0.957 h 4.69 c 1.55,0 2.03,0.718 2.63,2.156 l 19.68,51.457 c 3.23,8.516 5.87,15.945 8.39,25.906 0.12,0.36 0.36,0.84 0.96,0.84 h 12.83 c 0.6,0 0.84,-0.359 0.96,-0.84 1.21,-5.156 3.12,-11.035 4.8,-15.598 l 23.02,-61.765 c 0.61,-1.438 1.09,-2.156 2.64,-2.156 h 4.33 c 0.6,0 0.95,-0.364 0.95,-0.957 v -4.082 c 0,-0.598 -0.35,-0.957 -0.95,-0.957 h -27.11 c -0.59,0 -0.97,0.359 -0.97,0.957 v 4.082 c 0,0.593 0.38,0.957 0.97,0.957 h 6.59 c 1.57,0 2.41,0.718 1.92,2.156 l -8.03,21.711 h -34.07 l -7.56,-21.711 m 23.99,69.211 -14.02,-40.539 h 29.02 l -15,40.539"
         style="fill:#100f0d;fill-opacity:1;fill-rule:nonzero;stroke:none"
         id="path58" />
      <path
         d="m 2040.12,302.969 c 3.95,0 7.9,1.445 10.31,2.402 0.59,0.234 1.43,-0.117 1.43,-0.84 v -4.082 c 0,-0.234 -0.12,-0.594 -0.36,-0.84 -3.23,-2.519 -7.07,-4.199 -9.12,-4.796 0.49,-2.274 0.73,-3.59 0.73,-6.473 0,-13.789 -7.07,-20.508 -24.59,-20.508 -4.2,0 -7.67,0.359 -9.35,0.715 -3.36,-5.512 -1.81,-10.188 5.4,-10.188 h 9.47 c 18.11,0 24.48,-6.125 24.48,-18 0,-12.703 -13.56,-20.261 -30.71,-20.261 -19.31,0 -25.43,7.07 -25.43,16.074 0,7.07 5.99,12.226 10.43,14.746 -3.85,2.043 -4.2,5.039 -4.2,8.035 0,3 1.44,6.723 5.39,10.922 -6.34,2.508 -9.59,6.836 -9.59,16.426 0,13.308 7.8,20.508 24.36,20.508 15.71,0 15.46,-3.84 21.35,-3.84 m -37.18,-64.406 c 0,-8.036 5.02,-13.426 17.5,-13.426 12.72,0 17.99,6.472 17.99,13.308 0,7.793 -4.31,10.676 -12.71,10.676 h -18.47 c -2.76,-2.273 -4.31,-5.762 -4.31,-10.558 z m 1.79,49.417 c 0,-7.792 2.39,-15.351 14.16,-15.351 11.62,0 14.03,6.109 14.03,13.789 0,8.516 -2.52,15.594 -14.29,15.594 -11.62,0 -13.9,-6.36 -13.9,-14.032"
         style="fill:#100f0d;fill-opacity:1;fill-rule:nonzero;stroke:none"
         id="path60" />
      <path
         d="m 2088.96,243.605 c -18.35,0 -28.67,6.239 -28.67,29.981 0,23.75 11.28,33.223 28.91,33.223 16.43,0 25.06,-5.278 25.06,-31.418 0,-0.606 -0.35,-0.965 -0.95,-0.965 h -41.74 c 0,-22.309 8.76,-25.903 17.27,-25.903 10.07,0 14.4,8.391 14.4,13.071 0,0.476 0.35,0.957 0.95,0.957 h 8.4 c 0.59,0 0.96,-0.356 0.96,-0.957 -0.37,-10.91 -9.72,-17.989 -24.59,-17.989 m 14.28,36.102 c 0,19.543 -7.44,22.188 -14.28,22.188 -6.36,0 -15.95,-1.446 -17.27,-22.188 h 31.55"
         style="fill:#100f0d;fill-opacity:1;fill-rule:nonzero;stroke:none"
         id="path62" />
      <path
         d="m 2130.49,299.855 h -6.83 c -0.48,0 -0.96,0.36 -0.96,0.958 v 4.082 c 0,0.593 0.37,0.957 0.96,0.957 h 18.23 c 0.6,0 0.96,-0.364 0.96,-0.957 v -6.36 c 4.92,5.274 10.67,8.274 20.03,8.274 15.6,0 18.82,-8.879 18.82,-17.266 v -36.828 c 0,-1.555 0.6,-2.156 2.17,-2.156 h 6.83 c 0.48,0 0.96,-0.364 0.96,-0.957 v -4.082 c 0,-0.598 -0.36,-0.957 -0.96,-0.957 h -28.18 c -0.61,0 -0.96,0.359 -0.96,0.957 v 4.082 c 0,0.593 0.48,0.957 0.96,0.957 h 6.84 c 1.55,0 2.14,0.601 2.14,2.156 v 24.473 c 0,11.992 2.05,22.902 -11.5,22.902 -13.55,0 -17.51,-8.52 -17.51,-12.11 0,-3.593 0.36,-4.679 0.36,-8.273 v -26.992 c 0,-1.555 0.59,-2.156 2.16,-2.156 h 6.83 c 0.48,0 0.95,-0.364 0.95,-0.957 v -4.082 c 0,-0.598 -0.34,-0.957 -0.95,-0.957 h -28.18 c -0.59,0 -0.96,0.359 -0.96,0.957 v 4.082 c 0,0.593 0.48,0.957 0.96,0.957 h 6.83 c 1.57,0 2.17,0.601 2.17,2.156 v 44.98 c 0,1.555 -0.6,2.16 -2.17,2.16"
         style="fill:#100f0d;fill-opacity:1;fill-rule:nonzero;stroke:none"
         id="path64" />
      <path
         d="M 2249.39,286.902 H 2241 c -0.6,0 -0.97,0.481 -0.97,0.957 0,10.2 -5.51,13.911 -13.32,13.911 -9.95,0 -16.07,-5.637 -16.07,-26.145 0,-22.434 4.57,-26.98 15.47,-26.98 8.77,0 13.92,6.953 13.92,13.668 0,0.48 0.37,0.957 0.97,0.957 h 8.39 c 0.6,0 0.96,-0.36 0.96,-0.957 0,-11.875 -8.76,-18.708 -23.75,-18.708 -17.86,0 -27.1,6.473 -27.1,30.106 0,22.539 9.11,33.098 28.55,33.098 13.41,0 22.3,-4.68 22.3,-18.95 0,-0.601 -0.36,-0.957 -0.96,-0.957"
         style="fill:#100f0d;fill-opacity:1;fill-rule:nonzero;stroke:none"
         id="path66" />
      <path
         d="m 2262.62,297.93 c -0.49,1.32 -1.08,1.925 -2.17,1.925 h -2.51 c -0.48,0 -0.96,0.36 -0.96,0.958 v 4.082 c 0,0.593 0.36,0.957 0.96,0.957 h 24.7 c 0.6,0 0.95,-0.364 0.95,-0.957 v -4.082 c 0,-0.598 -0.46,-0.958 -0.95,-0.958 h -7.8 c -1.55,0 -1.79,-1.32 -1.3,-2.519 l 16.53,-43.652 16.92,43.535 c 0.6,1.551 -0.49,2.636 -2.04,2.636 h -7.43 c -0.48,0 -0.96,0.36 -0.96,0.958 v 4.082 c 0,0.593 0.35,0.957 0.96,0.957 h 20.86 c 0.6,0 0.96,-0.364 0.96,-0.957 v -4.082 c 0,-0.598 -0.47,-0.958 -0.96,-0.958 h -2.04 c -1.32,0 -2.15,-1.203 -2.75,-2.636 l -20.52,-52.778 c -7.67,-19.91 -14.38,-28.179 -26.25,-28.179 -3.25,0 -5.89,0.476 -7.93,0.957 -0.71,0.117 -0.71,0.242 -0.59,0.84 l 2.52,8.394 c 0.11,0.598 0.59,0.715 1.07,0.598 10.56,-3.477 16.31,-3.953 23.03,13.308 l -22.3,57.571"
         style="fill:#100f0d;fill-opacity:1;fill-rule:nonzero;stroke:none"
         id="path68" />
    </g>
  </g>
</svg>
